<?xml version="1.0" encoding="UTF-8" standalone="no"?>
<svg
   width="62.076"
   height="62.075802"
   version="1.1"
   id="svg16"
   sodipodi:docname="continental.svg"
   inkscape:version="1.3.2 (091e20e, 2023-11-25, custom)"
   xmlns:inkscape="http://www.inkscape.org/namespaces/inkscape"
   xmlns:sodipodi="http://sodipodi.sourceforge.net/DTD/sodipodi-0.dtd"
   xmlns="http://www.w3.org/2000/svg"
   xmlns:svg="http://www.w3.org/2000/svg">
  <defs
     id="defs16" />
  <sodipodi:namedview
     id="namedview16"
     pagecolor="#ffffff"
     bordercolor="#000000"
     borderopacity="0.25"
     inkscape:showpageshadow="2"
     inkscape:pageopacity="0.0"
     inkscape:pagecheckerboard="0"
     inkscape:deskcolor="#d1d1d1"
     inkscape:zoom="4.941974"
     inkscape:cx="111.89861"
     inkscape:cy="37.130911"
     inkscape:window-width="1920"
     inkscape:window-height="1137"
     inkscape:window-x="-8"
     inkscape:window-y="-8"
     inkscape:window-maximized="1"
     inkscape:current-layer="svg16" />
  <rect
     x="0"
     y="0"
     width="100%"
     height="100%"
     fill="#ffa500"
     id="rect1" />
  <path
     d="m 16.507137,49.582557 c 0,0 1.089256,1.089028 1.589956,1.65057 v 0.426121 c -0.466701,-0.493545 -1.434475,-0.906617 -2.334138,-0.906617 -2.036453,0 -3.315103,1.535983 -3.315103,3.436959 0,1.89405 1.210997,3.430033 3.315103,3.430033 1.048563,0 1.88744,-0.494231 2.354256,-1.001427 v 0.405459 c -0.636062,0.873076 -1.799553,1.441314 -3.247221,1.441314 -2.59127,0 -4.377317,-1.880514 -4.377317,-4.275379 0,-2.395065 1.982223,-4.268997 4.377317,-4.268997 0.609019,0 1.156881,0.101508 1.637147,0.270868 z"
     id="path1"
     style="stroke-width:0.286179" />
  <path
     d="m 15.32988,54.176168 c 0,-1.380358 0.128552,-1.989262 0.595397,-1.989262 0.46693,0 0.595253,0.608904 0.595253,1.989262 0,1.380043 -0.128323,1.988519 -0.595253,1.988519 -0.466845,0 -0.595397,-0.608476 -0.595397,-1.988519 m -1.677842,0.01342 c 0,1.366621 0.83885,2.47591 2.273239,2.47591 1.434131,0 2.273095,-1.109289 2.273095,-2.47591 0,-1.366622 -0.838964,-2.476112 -2.273095,-2.476112 -1.434389,0 -2.273239,1.10949 -2.273239,2.476112"
     id="path2"
     style="stroke-width:0.286179" />
  <path
     d="m 21.39846,53.350626 c 0,-0.405802 -0.12858,-0.723834 -0.480266,-0.723834 -0.351915,0 -0.493975,0.318032 -0.493975,0.723834 v 2.672087 h 0.4127 v 0.42635 h -2.259588 v -0.42635 h 0.419567 v -3.680212 h -0.419567 v -0.412499 h 1.77935 v 0.689865 h 0.02012 c 0.169246,-0.378759 0.561627,-0.777836 1.190907,-0.777836 0.66302,0 1.068909,0.405802 1.197461,0.940128 0.04731,0.209827 0.06082,0.555045 0.06082,0.730559 v 2.509995 h 0.541079 v 0.42635 h -1.9686 z"
     id="path3"
     style="stroke-width:0.286179" />
  <path
     d="m 25.282003,52.342501 v 3.342262 c 0,0.229745 0.148669,0.283948 0.290872,0.283948 0.135134,0 0.263829,-0.04716 0.263829,-0.04716 v 0.412499 c 0,0 -0.270669,0.169018 -0.872762,0.169018 -0.703686,0 -1.116415,-0.345219 -1.116415,-1.075406 v -3.085159 h -0.480466 v -0.304294 c 0.534784,-0.426121 1.157338,-0.913313 1.650998,-1.325813 h 0.263944 v 1.217609 h 0.554701 v 0.412498 z"
     id="path4"
     style="stroke-width:0.286179" />
  <path
     d="m 26.516695,50.732312 c 0,0.887157 1.745695,0.887157 1.745695,0 0,-0.887156 -1.745695,-0.887156 -1.745695,0 m 0.149014,1.610189 h -0.412928 v -0.412499 h 1.840248 v 4.092711 h 0.419539 v 0.42635 h -2.259787 v -0.42635 h 0.412928 z"
     id="path5"
     style="stroke-width:0.286179" />
  <path
     d="m 31.695658,53.350626 c 0,-0.405802 -0.128581,-0.723834 -0.480267,-0.723834 -0.351915,0 -0.493974,0.318032 -0.493974,0.723834 v 2.672087 h 0.412699 v 0.42635 h -2.259587 v -0.42635 h 0.419567 v -3.680212 h -0.419567 v -0.412499 h 1.779349 v 0.689865 h 0.02012 c 0.169247,-0.378759 0.561627,-0.777836 1.190908,-0.777836 0.663021,0 1.068909,0.405802 1.197461,0.940128 0.04731,0.209827 0.06081,0.555045 0.06081,0.730559 v 2.509995 h 0.54108 v 0.42635 h -1.968601 z"
     id="path6"
     style="stroke-width:0.286179" />
  <path
     d="m 37.344641,55.244877 c -0.203188,0.236785 -0.521133,0.419224 -0.994474,0.419224 -0.412957,0 -1.048847,-0.229973 -1.075749,-1.278306 h 2.415069 c 0.0069,-0.08128 0.01345,-0.243711 0.01345,-0.3251 0,-1.271467 -0.52056,-2.218664 -1.880485,-2.218664 -1.366736,0 -2.063613,1.04879 -2.063613,2.354284 0,1.305694 0.696877,2.333794 2.063613,2.333794 0.879429,0 1.434332,-0.412499 1.758859,-1.061869 z m -2.070223,-1.299198 c 0,-1.190678 0.09473,-1.636947 0.500529,-1.636947 0.412671,0 0.493945,0.43319 0.507396,1.636947 z"
     id="path7"
     style="stroke-width:0.286179" />
  <path
     d="m 40.821837,53.350626 c 0,-0.405802 -0.128581,-0.723834 -0.480267,-0.723834 -0.351914,0 -0.493974,0.318032 -0.493974,0.723834 v 2.672087 h 0.412699 v 0.42635 h -2.259588 v -0.42635 h 0.419568 v -3.680212 h -0.419568 v -0.412499 h 1.779351 v 0.689865 h 0.02012 c 0.169247,-0.378759 0.561628,-0.777836 1.190908,-0.777836 0.663021,0 1.068909,0.405802 1.197461,0.940128 0.04731,0.209827 0.06081,0.555045 0.06081,0.730559 v 2.509995 h 0.54108 v 0.42635 h -1.968601 z"
     id="path8"
     style="stroke-width:0.286179" />
  <path
     d="m 44.705293,52.342501 v 3.342262 c 0,0.229745 0.14867,0.283948 0.290873,0.283948 0.135134,0 0.263828,-0.04716 0.263828,-0.04716 v 0.412499 c 0,0 -0.270668,0.169018 -0.872761,0.169018 -0.703687,0 -1.116415,-0.345219 -1.116415,-1.075406 v -3.085159 h -0.480467 v -0.304294 c 0.534784,-0.426121 1.157339,-0.913313 1.650999,-1.325813 h 0.263943 v 1.217609 h 0.554701 v 0.412498 z"
     id="path9"
     style="stroke-width:0.286179" />
  <path
     d="m 47.857732,54.209708 c -0.04035,-0.04058 -0.128495,-0.09447 -0.311077,-0.09447 -0.426121,0 -0.520847,0.419568 -0.520847,0.852415 0,0.426121 0.128495,0.770996 0.493946,0.770996 0.175714,0 0.28389,-0.07455 0.337978,-0.135277 z m 0.06124,1.697732 h -0.0206 c -0.263572,0.372606 -0.615573,0.622669 -1.156738,0.622669 -0.737485,0 -1.197662,-0.629366 -1.197662,-1.380244 0,-0.906044 0.643046,-1.481551 1.671289,-1.481551 0.419539,0 0.642473,0.09536 0.642473,0.09536 v -0.284491 c 0,-0.548005 -0.337978,-0.838964 -0.831924,-0.838964 -0.683397,0 -1.035111,0.527972 -1.035111,0.527972 l -0.250121,-0.304409 c 0.453022,-0.703715 1.149583,-1.021746 1.799211,-1.021746 1.096353,0 1.745694,0.649484 1.745694,1.637147 v 2.543535 h 0.459891 v 0.42635 h -1.826398 z"
     id="path10"
     style="stroke-width:0.286179" />
  <path
     d="m 50.2459,50.671585 h -0.49366 v -0.412499 h 1.92141 v 5.763627 h 0.554616 v 0.42635 H 50.2459 Z"
     id="path11"
     style="stroke-width:0.286179" />
  <path
     d="m 43.834333,28.274551 c -0.25098,-0.96044 -0.625683,-2.047077 -0.919082,-2.589865 0,0 0.16791,-0.167026 0.50196,0.04224 0.334051,0.208384 2.465613,1.670784 2.465613,1.670784 1.085223,1.587183 1.753325,8.104708 1.795744,10.445891 -1.002153,-0.461131 -2.423194,-1.255076 -3.342275,-2.131915 z"
     id="path12"
     style="stroke-width:1.76746" />
  <path
     d="M 37.400763,22.217451 C 35.645671,20.294627 34.18221,18.497469 32.762936,16.368381 33.68025,14.612582 34.350119,9.9763465 33.93123,8.1791886 33.765089,7.6344561 32.260977,5.6303279 32.009997,5.3381661 31.633527,4.9606357 30.422814,3.5832508 29.837783,3.5832508 c -0.12549,0 -0.25098,0.041359 -0.293399,0.082717 l 0.167909,1.5465313 c -1.629602,1.0445714 -3.761164,2.4649061 -5.682398,3.8857704 0,0.541198 0.04065,1.3773855 0.08307,1.6707845 0.291632,0.24992 0.62745,0.459011 1.002152,0.584677 0.75294,-0.125666 3.093063,-0.711051 3.718745,-0.626212 l -2.297702,3.467412 -2.633522,1.879168 -3.299856,-1.043865 c -0.208561,-0.04136 -0.417122,0 -0.542612,0.167733 l -2.423193,2.631931 c -0.12549,0.124252 -0.210328,0.249919 -0.210328,0.543318 l -0.08307,2.966159 c 0,0 -0.04065,0.458303 -0.04065,0.96097 0,2.129971 0.961501,3.133184 0.961501,3.133184 l 1.58718,-2.297704 c -0.210329,-0.332813 -0.585031,-1.253132 -0.668102,-1.67096 0,-0.08413 0.04065,-2.548861 0.04065,-2.548861 l 1.546533,-1.128879 4.093447,2.883795 c 0,0 1.12941,2.088612 2.214633,3.342982 0.710521,0.876839 4.261357,3.257437 5.975797,4.260649 0.166142,0.919612 0.542612,2.424785 0.836011,3.216609 l 5.014296,5.140139 -2.967573,3.717861 c -1.044571,0.668279 -2.046723,1.882173 -1.963653,3.008932 h 3.427114 l 0.374702,-1.96436 4.095215,-4.553165 c 0.208561,-0.25204 0.208561,-0.376293 0.08307,-0.752586 l -1.170062,-3.927129 c 0.586799,-0.669692 1.838163,-2.338356 1.838163,-4.346195 0,-3.63426 -3.967957,-4.552635 -5.221088,-5.597206 z"
     id="path13"
     style="stroke-width:1.76746" />
  <path
     d="m 18.930761,14.738956 c -0.123723,0.04065 -3.174366,0.876839 -3.174366,0.876839 0,0 -1.421041,0.541198 -2.048491,0.96097 -0.625683,0.416415 -1.336202,1.126759 -1.378621,1.503052 l 2.716591,0.62692 c 0.418889,-0.459188 0.876663,-0.961147 1.295552,-1.294491 l 0.627449,-0.293399 2.255285,-2.296997 c 0,0 -0.08307,-0.125136 -0.293399,-0.08289 z"
     id="path14"
     style="stroke-width:1.76746" />
  <path
     d="m 31.759017,38.217952 3.844235,-3.676503 1.58895,1.58789 -4.137634,3.510715 c -0.334051,0.415707 -0.585031,1.0854 -0.793591,1.503051 h -3.050644 c 0.167909,-1.127995 1.755092,-2.547623 2.548684,-2.925153 z"
     id="path15"
     style="stroke-width:1.76746" />
  <path
     d="m 11.367782,45.989846 v -1.337263 h 40.823122 v 1.337263 z"
     id="path16"
     style="stroke-width:1.76746" />
</svg>
