<?xml version="1.0" encoding="UTF-8" standalone="no"?>
<svg
   width="135.72"
   height="135.72"
   viewBox="0 0 35.909249 35.909251"
   version="1.1"
   id="svg2"
   sodipodi:docname="creditsuisse.svg"
   inkscape:version="1.3.2 (091e20e, 2023-11-25, custom)"
   xmlns:inkscape="http://www.inkscape.org/namespaces/inkscape"
   xmlns:sodipodi="http://sodipodi.sourceforge.net/DTD/sodipodi-0.dtd"
   xmlns="http://www.w3.org/2000/svg"
   xmlns:svg="http://www.w3.org/2000/svg">
  <defs
     id="defs2" />
  <sodipodi:namedview
     id="namedview2"
     pagecolor="#ffffff"
     bordercolor="#000000"
     borderopacity="0.25"
     inkscape:showpageshadow="2"
     inkscape:pageopacity="0.0"
     inkscape:pagecheckerboard="0"
     inkscape:deskcolor="#d1d1d1"
     inkscape:zoom="0.71458686"
     inkscape:cx="-434.5168"
     inkscape:cy="80.466075"
     inkscape:window-width="1920"
     inkscape:window-height="1137"
     inkscape:window-x="-8"
     inkscape:window-y="-8"
     inkscape:window-maximized="1"
     inkscape:current-layer="svg2" />
  <g
     transform="matrix(0.86752801,0,0,0.86752801,-127.21347,6.0945436)"
     id="g2">
    <path
       fill="#003662"
       d="M 82.3,25.6 H 70.1 v 2.8 h 0.4 c 0.1,-0.4 0.8,-1.2 1.7,-1.2 h 2.7 v 14.3 h 2.7 V 27.2 h 2.8 c 0.9,0 1.5,0.5 1.6,1 v 0.1 h 0.4 z M 2.8,24.7 C 1,26.5 0,29.1 0,31.6 c 0,2.9 1.2,5.5 3.2,7.3 2,1.8 4.7,2.8 7.5,2.8 1.5,0 4.4,-0.3 7.3,-2 l 0.1,-0.1 0.3,-4 -0.5,-0.1 -0.1,0.2 C 15.7,40 12.5,40 11.2,40 c -5.5,0 -8,-4.6 -8,-8.8 0,-4.1 2.5,-8.3 8,-8.3 1.7,0 4.8,0.6 6.4,4.3 l 0.1,0.2 0.5,-0.2 L 18,23.1 17.9,23 C 15.3,21.9 13.2,21.4 11.1,21.4 7.7,21.5 4.8,22.6 2.8,24.7 Z M 21.1,25.6 21,26 c 0.2,0.1 0.5,0.7 0.5,1.4 v 14 h 2.6 v -7.2 h 1.1 c 1,0.1 1.4,0.7 2,1.6 l 0.1,0.1 0.3,0.6 c 0.6,0.9 1.3,2.2 2.1,3.4 0.6,0.9 1.3,1.3 2.2,1.5 0.6,0.1 1.9,0.1 2.4,-0.1 l 0.6,-0.1 0.2,-0.1 -0.8,-0.2 C 34,40.8 33.5,40.6 32.8,39.8 32.4,39.3 31.7,38.2 30.7,36.6 L 29.7,35 C 29.4,34.6 29,34 28.2,33.5 29.7,33 31.1,31.7 31.1,29.7 31.1,29.1 31,28 30,27.1 29,26.2 27.5,25.7 25.4,25.7 Z m 4.5,1.5 c 2.7,0.1 2.8,2.4 2.8,2.7 0,2.3 -1.7,3.1 -3.1,3.1 H 24.2 V 27.2 C 24.5,27.1 25,27 25.6,27.1 Z M 48,25.6 V 26 c 0.2,0.1 0.4,0.7 0.4,1.2 v 14.2 h 4.5 c 3,0 5.4,-0.9 7.1,-2.7 1.4,-1.5 2.2,-3.4 2.2,-5.5 0,-1.2 -0.4,-3.1 -1.6,-4.6 -1.6,-2 -4,-3.1 -7.3,-3.1 z m 3.1,1.6 h 1.4 c 0.4,0 1.3,0 2,0.1 4.4,0.7 4.9,4.4 4.9,6 0,1.3 -0.2,3.1 -1.3,4.6 C 57,39.3 55.3,40 53,40 H 51.1 Z M 67.7,25.6 H 64.6 V 26 c 0.3,0.1 0.5,0.7 0.5,1.3 v 14.1 h 2.6 z m 53,0 h -3.1 V 26 c 0.3,0.1 0.5,0.7 0.5,1.3 v 14.1 h 2.6 z m -76.1,0 h -8.8 l 0.1,0.4 c 0.2,0.1 0.5,0.7 0.5,1.4 v 14 h 8.8 l 0.6,-2.8 -0.4,-0.1 -0.1,0.2 c -0.7,1.1 -1.5,1.3 -4,1.3 -0.9,0 -1.8,-0.1 -2.4,-0.1 v -6.4 h 4.5 V 32 h -4.5 v -4.9 h 3.6 c 0.8,0 1.7,0.8 1.8,1.3 v 0.1 h 0.4 z m 112.8,0 h -8.8 V 26 c 0.2,0.1 0.5,0.6 0.5,1.4 v 14 h 8.8 l 0.6,-2.8 -0.4,-0.1 -0.1,0.2 c -0.7,1.1 -1.5,1.3 -4,1.3 -0.9,0 -1.8,-0.1 -2.4,-0.1 v -6.4 h 4.5 V 32 h -4.5 v -4.9 h 3.6 c 1,0 1.7,0.8 1.7,1.3 v 0.1 h 0.4 z M 90,22.7 c -0.9,0.7 -2,1.9 -2.1,4 v 0.1 c 0,2.5 1.6,3.9 4.2,5.2 0.1,0.1 0.3,0.2 1,0.5 2.2,1.1 3.7,1.9 3.7,4.1 0,0.8 -0.3,1.9 -1.1,2.7 -0.7,0.7 -1.6,1 -2.7,1 -3.3,0 -4.5,-2.9 -4.8,-4.2 L 88.1,35.9 87.5,36 87.7,40.1 88,40 c 1.1,0.6 2.8,1.6 5.4,1.7 1.8,0 3.6,-0.7 4.9,-2 1.1,-1.1 1.7,-2.5 1.7,-4 0,-3.3 -2.4,-4.6 -4.9,-5.9 l -0.5,-0.3 c -2.6,-1.3 -3.8,-2.1 -3.8,-3.7 0,-1.1 0.9,-2.9 3.1,-2.9 2.6,0 4,2 4.3,3.2 l 0.1,0.2 0.6,-0.1 -0.2,-3.6 -0.1,-0.1 c -1.5,-1 -3.4,-1.2 -4.2,-1.2 -1.8,0.1 -3.3,0.6 -4.4,1.4 z m 35,6.9 c 0,2.2 1.3,3.3 3.4,4.4 l 0.8,0.4 c 1.7,0.8 2.8,1.4 2.8,3 0,0.3 -0.1,1.2 -0.8,2 -0.5,0.5 -1.2,0.8 -2.1,0.7 -2.5,0 -3.4,-2 -3.8,-3.1 l -0.1,-0.2 -0.5,0.1 0.1,3.3 0.1,0.1 c 0.8,0.5 2.2,1.3 4.3,1.3 1.4,0 2.9,-0.6 3.9,-1.6 0.9,-0.9 1.3,-2 1.3,-3.2 0,-2.8 -1.9,-3.8 -3.9,-4.8 l -0.4,-0.2 c -2.2,-1.1 -2.9,-1.6 -2.9,-2.8 0,-0.9 0.6,-2.1 2.4,-2.1 2.1,0 3,1.6 3.2,2.4 l 0.1,0.2 0.5,-0.1 -0.2,-2.9 -0.1,-0.1 c -1.2,-0.8 -2.7,-0.9 -3.3,-0.9 -2.3,0 -4.8,1.4 -4.8,4.1 z m 11.8,0 c 0,2.2 1.3,3.3 3.4,4.4 l 0.8,0.4 c 1.7,0.8 2.8,1.4 2.8,3 0,0.3 -0.1,1.2 -0.8,2 -0.5,0.5 -1.2,0.8 -2.1,0.7 -2.5,0 -3.4,-2 -3.8,-3.1 l -0.1,-0.2 -0.5,0.1 0.1,3.3 0.1,0.1 c 0.8,0.5 2.2,1.3 4.3,1.3 1.4,0 2.9,-0.6 3.9,-1.6 0.9,-0.9 1.3,-2 1.3,-3.2 0,-2.8 -1.9,-3.8 -3.9,-4.8 l -0.4,-0.2 C 139.7,30.7 139,30.2 139,29 c 0,-0.5 0.2,-1.1 0.6,-1.5 0.4,-0.4 1,-0.6 1.7,-0.6 2.1,0 3,1.6 3.2,2.4 l 0.1,0.2 0.5,-0.1 -0.2,-2.9 -0.1,-0.1 c -1.2,-0.8 -2.7,-0.9 -3.3,-0.9 -2.1,0 -4.7,1.4 -4.7,4.1 z m -22.6,-4 h -2.1 V 26 c 0.1,0.1 0.4,0.3 0.4,1.3 v 9 c 0,1.7 -0.6,3.8 -3.7,3.8 -2.9,0 -3.5,-1.7 -3.5,-4.3 V 25.6 H 102 V 26 c 0.2,0.1 0.6,0.5 0.6,1.4 v 8.4 c 0,5.2 3.4,5.8 6,5.8 1.3,0 5.4,-0.4 5.4,-5.3 z m 65.9,-4.5 c 1.9,0.6 3.8,1.4 5.9,2.6 -5.1,-8.4 -14.1,-17.5 -23,-23.4 2.3,2.3 6,7.3 7,12.6 3.6,2.6 7,5.4 10.1,8.2 z m 0,0 c -4.4,-1.4 -8.1,-1.5 -10.8,-1.2 1,-2.3 1.1,-4.7 0.7,-7 -6.7,-4.8 -14.2,-9 -21.3,-12.1 5.2,3.5 11,13.8 13.4,24.8 5.2,-1.5 13.1,-2.6 23.4,0.9 -1.7,-1.8 -3.5,-3.6 -5.4,-5.4 z"
       id="path1" />
    <path
       fill="none"
       d="m 169.9,12.9 c 0.4,2.3 0.3,4.7 -0.6,7 2.8,-0.3 6.5,-0.2 10.8,1.2 -3.1,-2.8 -6.5,-5.6 -10.2,-8.2 z"
       id="path2"
       inkscape:transform-center-x="10.210737"
       inkscape:transform-center-y="-9.9489228" />
  </g>
  <rect
     style="fill:#ffffff;stroke-width:1.49146;fill-opacity:1"
     id="rect2"
     width="11.940904"
     height="17.86507"
     x="-0.55539083"
     y="26.566195" />
</svg>
