<?xml version="1.0" encoding="UTF-8" standalone="no"?>
<!-- Generator: Adobe Illustrator 16.0.0, SVG Export Plug-In . SVG Version: 6.00 Build 0)  -->

<svg
   version="1.1"
   id="Ebene_1"
   x="0px"
   y="0px"
   width="45"
   height="45"
   viewBox="0 0 45 45"
   xml:space="preserve"
   sodipodi:docname="fraunhoferigd.svg"
   inkscape:version="1.3.2 (091e20e, 2023-11-25, custom)"
   xmlns:inkscape="http://www.inkscape.org/namespaces/inkscape"
   xmlns:sodipodi="http://sodipodi.sourceforge.net/DTD/sodipodi-0.dtd"
   xmlns="http://www.w3.org/2000/svg"
   xmlns:svg="http://www.w3.org/2000/svg"><defs
   id="defs17" /><sodipodi:namedview
   id="namedview17"
   pagecolor="#ffffff"
   bordercolor="#000000"
   borderopacity="0.25"
   inkscape:showpageshadow="2"
   inkscape:pageopacity="0.0"
   inkscape:pagecheckerboard="0"
   inkscape:deskcolor="#d1d1d1"
   inkscape:zoom="3.8644208"
   inkscape:cx="152.15734"
   inkscape:cy="24.971401"
   inkscape:window-width="1920"
   inkscape:window-height="1137"
   inkscape:window-x="-8"
   inkscape:window-y="-8"
   inkscape:window-maximized="1"
   inkscape:current-layer="Ebene_1" />
<style
   type="text/css"
   id="style1">
<![CDATA[
	.st0{fill:#179C7D;}
	.st1{fill:#FFFFFF;}
]]>
</style>
<g
   id="g17">
	<path
   class="st0"
   d="M 0,41.697 C 9.874,36.614 24.338,28.395 41.507,16.38 V 12.347 C 26.396,22.233 11.031,30.171 0,35.422 Z"
   id="path1" />
	<path
   class="st0"
   d="M 0,29.654 C 10.994,25.175 26.36,18.255 41.507,9.246 V 7.255 C 27.271,14.317 12.48,18.737 0,21.493 Z"
   id="path2" />
	<path
   class="st0"
   d="M 41.507,41.717 V 21.432 c -9.45,7.966 -18.809,14.864 -26.67,20.285 z"
   id="path3" />
	<path
   class="st0"
   d="M 9.53,41.717 C 16.995,37.285 26.056,31.502 35.08,24.743 37.185,23.165 39.335,21.54 41.508,19.86 V 17.346 C 28.151,27.359 14.519,35.706 3.869,41.717 Z"
   id="path4" />
	<path
   class="st0"
   d="M 0,18.542 C 12.14,16.407 26.993,12.566 41.507,5.668 V 3.407 C 26.881,9.973 12.242,12.757 0,13.748 Z"
   id="path5" />
	<path
   class="st0"
   d="M 0,0 V 11.62 C 0.907,11.564 1.831,11.499 2.775,11.426 12.868,10.65 26.642,8.866 41.507,2.439 V 0 Z"
   id="path6" />
	<g
   id="g8">
		<g
   id="g7">
			<path
   class="st1"
   d="m 0,11.62 v 2.128 C 12.242,12.757 26.881,9.973 41.507,3.407 V 2.439 C 26.643,8.866 12.868,10.65 2.775,11.426 1.831,11.5 0.907,11.564 0,11.62 Z"
   id="path7" />
		</g>
	</g>
	<g
   id="g10">
		<g
   id="g9">
			<path
   class="st1"
   d="M 0,21.493 C 12.48,18.737 27.271,14.317 41.507,7.255 V 5.669 C 26.993,12.566 12.14,16.407 0,18.542 Z"
   id="path8" />
		</g>
	</g>
	<g
   id="g12">
		<g
   id="g11">
			<path
   class="st1"
   d="M 0,35.422 C 11.031,30.171 26.396,22.233 41.507,12.347 V 9.246 C 26.36,18.255 10.994,25.175 0,29.654 Z"
   id="path10" />
		</g>
	</g>
	<g
   id="g14">
		<g
   id="g13">
			<path
   class="st1"
   d="m 9.53,41.717 h 5.308 c 7.861,-5.42 17.22,-12.319 26.67,-20.285 V 19.86 c -2.173,1.68 -4.322,3.305 -6.428,4.883 -9.024,6.759 -18.085,12.542 -25.55,16.974 z"
   id="path12" />
		</g>
	</g>
	<g
   id="g16">
		<g
   id="g15">
			<path
   class="st1"
   d="M 0,41.717 H 3.869 C 14.519,35.706 28.151,27.36 41.507,17.346 V 16.38 C 24.338,28.396 9.874,36.614 0,41.697 Z"
   id="path14" />
		</g>
	</g>
</g>

</svg>
