<?xml version="1.0" encoding="UTF-8" standalone="no"?>
<svg
   id="Logos_nebeneinander"
   data-name="Logos nebeneinander"
   viewBox="0 0 1059 1059"
   version="1.1"
   sodipodi:docname="invenio.svg"
   width="1059"
   height="1059"
   inkscape:version="1.3.2 (091e20e, 2023-11-25, custom)"
   xmlns:inkscape="http://www.inkscape.org/namespaces/inkscape"
   xmlns:sodipodi="http://sodipodi.sourceforge.net/DTD/sodipodi-0.dtd"
   xmlns="http://www.w3.org/2000/svg"
   xmlns:svg="http://www.w3.org/2000/svg">
  <sodipodi:namedview
     id="namedview8"
     pagecolor="#ffffff"
     bordercolor="#000000"
     borderopacity="0.25"
     inkscape:showpageshadow="2"
     inkscape:pageopacity="0.0"
     inkscape:pagecheckerboard="0"
     inkscape:deskcolor="#d1d1d1"
     inkscape:zoom="0.47073681"
     inkscape:cx="1034.5484"
     inkscape:cy="347.32784"
     inkscape:window-width="1920"
     inkscape:window-height="1137"
     inkscape:window-x="-8"
     inkscape:window-y="-8"
     inkscape:window-maximized="1"
     inkscape:current-layer="Logos_nebeneinander" />
  <defs
     id="defs1">
    <style
       id="style1">
      .cls-1 {
        stroke-width: 0px;
      }
    </style>
  </defs>
  <rect
     style="fill:#dbda04;fill-opacity:1"
     id="rect8"
     width="1085.5322"
     height="1098.2782"
     x="-10.621642"
     y="-10.621655" />
  <rect
     class="cls-1"
     x="80.875671"
     y="499.50006"
     width="38.41"
     height="91.279999"
     id="rect1"
     style="stroke-width:0px" />
  <rect
     class="cls-1"
     x="816.59564"
     y="499.50006"
     width="38.41"
     height="91.279999"
     id="rect2"
     style="stroke-width:0px" />
  <path
     class="cls-1"
     d="m 454.47571,490.22001 c 0,0 -13.29,63.44 -15.36,73.1 -2.08,9.66 -7.34,17.04 -15.89,21.97 -10.93,5.89 -24.08,8.86 -39.44,8.86 h -1.03 c -15.36,0 -28.51,-2.95 -39.44,-8.86 -8.54,-4.95 -13.64,-11.4 -15.89,-21.97 -2.25,-10.57 -14.8,-72.98 -14.8,-72.98 h 38.92 c 0,0 13.27,66.19 14.8,72.98 1.53,6.79 6.84,9.42 16.39,9.42 h 1.03 c 9.9,0 15.43,-2.93 16.9,-9.42 1.48,-6.49 15.36,-73.1 15.36,-73.1 z"
     id="path2"
     style="stroke-width:0px" />
  <path
     class="cls-1"
     d="m 785.45571,539.34001 v 51.46 h -38.41 v -51.46 c 0,-10.62 -0.05,-15.92 -0.65,-21.92 -0.58,-6.02 -5.37,-8.61 -16.39,-9.14 -11.02,-0.52 -21.36,-0.42 -31.77,0 -10.39,0.42 -16.58,3.52 -16.91,9.14 -0.31,5.61 -0.54,12.69 -0.54,21.92 v 51.46 h -38.41 v -51.46 c 0,-10.41 0.16,-13.2 0.54,-21.92 0.4,-8.74 5.37,-15.8 16.13,-21.69 10.76,-5.89 25.84,-8.56 39.18,-8.86 13.34,-0.28 17.8,-0.28 31.77,0 13.97,0.28 27.92,3 38.68,9 10.76,6 15.69,12.85 16.15,21.55 0.45,8.7 0.65,12.05 0.65,21.92 z"
     id="path3"
     style="stroke-width:0px" />
  <path
     class="cls-1"
     d="m 292.25571,539.34001 v 51.46 h -38.41 v -51.46 c 0,-10.62 -0.05,-15.92 -0.63,-21.92 -0.58,-6.02 -5.37,-8.61 -16.39,-9.14 -11.02,-0.52 -21.36,-0.42 -31.75,0 -10.41,0.42 -16.6,3.52 -16.91,9.14 -0.31,5.61 -0.54,12.69 -0.54,21.92 v 51.46 h -38.41 v -51.46 c 0,-10.41 0.16,-13.2 0.54,-21.92 0.4,-8.74 5.37,-15.8 16.13,-21.69 10.76,-5.89 25.84,-8.56 39.18,-8.86 13.34,-0.28 17.8,-0.28 31.75,0 13.97,0.28 27.92,3 38.68,9 10.76,6 15.69,12.85 16.15,21.55 0.44,8.7 0.63,12.05 0.63,21.92 z"
     id="path4"
     style="stroke-width:0px" />
  <path
     class="cls-1"
     d="m 80.875706,468.39001 h 38.380004 v 6.82 c 0,1.99 0.42,9.12 -6.03,12.69 -7.04,3.89 -32.350004,3.07 -32.350004,3.07 z"
     id="path5"
     style="stroke-width:0px" />
  <path
     class="cls-1"
     d="m 816.59571,468.39001 h 38.38 v 6.82 c 0,1.99 0.42,9.12 -6.03,12.69 -7.04,3.89 -32.35,3.07 -32.35,3.07 z"
     id="path6"
     style="stroke-width:0px" />
  <path
     class="cls-1"
     d="m 613.62571,571.53001 c -2.88,14.7 -29.24,20.18 -47.94,20.38 -18.83,0.21 -20.65,0.17 -34.68,0 -14.04,-0.17 -28.34,-3 -38.92,-9 -10.58,-6 -15,-11.96 -15.89,-21.83 -0.96,-10.67 -0.92,-12.83 -0.92,-21.74 0,-8.91 0.03,-11.74 0.92,-20.8 0.89,-9.07 5.3,-15.55 15.89,-21.55 10.58,-6 24.85,-8.81 38.92,-9 14.09,-0.19 17.47,-0.14 31.77,0 14.35,0.42 28,2.95 38.94,8.86 10.93,5.89 16.39,13.13 16.39,21.69 v 1.43 c 0,8.58 -5.39,15.85 -16.15,21.85 -10.76,6 -23.82,8.6 -39.18,9 -15.36,0.38 -48.67,0 -48.67,0 l 0.51,10.29 c 0,6.28 5.88,9.21 16.39,9.42 10.51,0.21 21.41,0.23 34.93,0 13.5,-0.23 15.64,-6.91 15.64,-6.91 h 32.83 c 0,0 0.28,2.51 -0.78,7.92 z m -33.95,-51.58 v -1.43 c 0,-6.09 -5.63,-9.14 -16.91,-9.14 h -31.77 c -10.93,0 -16.39,3.05 -16.39,9.14 v 1.43 c 0,6.28 5.46,9.43 16.39,9.43 h 31.77 c 11.28,0 16.91,-3.14 16.91,-9.43 z"
     id="path7"
     style="stroke-width:0px" />
  <path
     class="cls-1"
     d="m 1023.7657,539.33001 c 0,9.22 -0.02,12 -1.06,21.76 -1.03,9.75 -5.37,15.83 -16.13,21.83 -10.75999,6 -23.30999,8.7 -39.17999,9 -15.89,0.3 -17.12,0.3 -31.75,0 -14.63,-0.3 -28.42,-3 -39.18,-9 -10.76,-6 -15.43,-12.82 -16.15,-21.83 -0.7,-9.02 -0.66,-11.75 -0.66,-21.74 0,-9.99 0.1,-11.87 0.66,-20.8 0.56,-8.93 5.37,-15.8 16.15,-21.69 10.76,-5.89 24.46,-8.58 39.18,-8.86 14.72,-0.26 15.55,-0.26 31.75,0 16.2,0.26 28.42,2.95 39.17999,8.86 10.76,5.89 15.29,12.59 16.13,21.69 0.85,9.1 1.06,11.56 1.06,20.79 z m -39.47999,21.76 c 2.67,-7.71 2.46,-36.48 0,-42.55 -2.25,-5.56 -4.53,-8.74 -16.9,-9.14 -12.36,-0.4 -20.37,-0.38 -31.75,0 -11.39,0.38 -14.4,4.05 -16.39,9.14 -2.46,6.26 -2.67,36.03 0,42.55 2.16,5.32 4.97,8.95 16.39,9.42 11.42,0.47 20.63,0.52 31.75,0 11.13,-0.52 14.84,-3.45 16.9,-9.42 z"
     id="path8"
     style="stroke-width:0px" />
</svg>
