<?xml version="1.0" encoding="UTF-8" standalone="no"?>
<svg
   viewBox="0 0 38.883 38.882999"
   version="1.1"
   id="svg1"
   sodipodi:docname="mckinsey.svg"
   width="38.882999"
   height="38.882999"
   inkscape:version="1.3.2 (091e20e, 2023-11-25, custom)"
   xmlns:inkscape="http://www.inkscape.org/namespaces/inkscape"
   xmlns:sodipodi="http://sodipodi.sourceforge.net/DTD/sodipodi-0.dtd"
   xmlns="http://www.w3.org/2000/svg"
   xmlns:svg="http://www.w3.org/2000/svg"
   xmlns:rdf="http://www.w3.org/1999/02/22-rdf-syntax-ns#"
   xmlns:cc="http://creativecommons.org/ns#"
   xmlns:dc="http://purl.org/dc/elements/1.1/">
  <sodipodi:namedview
     id="namedview1"
     pagecolor="#ffffff"
     bordercolor="#000000"
     borderopacity="0.25"
     inkscape:showpageshadow="2"
     inkscape:pageopacity="0.0"
     inkscape:pagecheckerboard="0"
     inkscape:deskcolor="#d1d1d1"
     inkscape:zoom="15.82954"
     inkscape:cx="18.604457"
     inkscape:cy="17.40417"
     inkscape:window-width="1920"
     inkscape:window-height="1137"
     inkscape:window-x="-8"
     inkscape:window-y="-8"
     inkscape:window-maximized="1"
     inkscape:current-layer="svg1" />
  <defs
     id="defs1">
    <style
       id="style1">
      .a {
        fill: #051c2c;
      }
    </style>
  </defs>
  <title
     id="title1">mck</title>
  <path
     class="a"
     d="m 4.125,14 h 1.184 v 0.223 H 5.086 c -0.039,0 -0.107,0.045 -0.205,0.134 -0.098,0.089 -0.147,0.159 -0.147,0.205 v 3.4 c 0,0.047 0.049,0.115 0.147,0.205 0.098,0.09 0.166,0.135 0.205,0.135 h 0.223 v 0.222 H 3.562 V 18.3 h 0.223 c 0.039,0 0.106,-0.045 0.2,-0.135 0.094,-0.09 0.141,-0.158 0.141,-0.205 V 14.668 L 2.484,18.605 0.844,14.6 v 3.361 c 0,0.047 0.047,0.115 0.14,0.205 0.093,0.09 0.161,0.135 0.2,0.135 h 0.222 v 0.222 H 0 V 18.3 h 0.223 c 0.047,0 0.117,-0.045 0.211,-0.135 0.094,-0.09 0.14,-0.158 0.14,-0.205 v -3.398 c 0,-0.046 -0.047,-0.115 -0.14,-0.205 C 0.341,14.267 0.27,14.223 0.223,14.223 H 0 V 14 h 1.312 l 1.36,3.387 h 0.035 z m 2.813,4.066 A 1.068,1.068 0 0 0 7.512,17.938 1.128,1.128 0 0 0 7.863,17.551 H 8.051 A 1.691,1.691 0 0 1 7.588,18.312 1.234,1.234 0 0 1 6.727,18.594 1.191,1.191 0 0 1 5.754,18.148 1.632,1.632 0 0 1 5.391,17.082 1.56,1.56 0 0 1 5.8,15.945 a 1.323,1.323 0 0 1 0.984,-0.422 1.485,1.485 0 0 1 0.586,0.106 1.543,1.543 0 0 1 0.457,0.3 L 7.4,16.6 7.224,16.611 a 1.188,1.188 0 0 0 -0.035,-0.6 0.436,0.436 0 0 0 -0.469,-0.264 0.724,0.724 0 0 0 -0.645,0.316 1.484,1.484 0 0 0 -0.211,0.833 1.249,1.249 0 0 0 0.287,0.832 0.984,0.984 0 0 0 0.787,0.338 z m 2.906,0.457 H 8.074 V 18.3 H 8.3 c 0.047,0 0.117,-0.045 0.211,-0.135 0.094,-0.09 0.14,-0.158 0.14,-0.205 v -3.398 c 0,-0.046 -0.046,-0.115 -0.14,-0.205 C 8.417,14.267 8.344,14.223 8.3,14.223 H 8.074 V 14 h 1.77 v 0.223 H 9.621 c -0.047,0 -0.117,0.045 -0.211,0.134 -0.094,0.089 -0.14,0.159 -0.14,0.205 v 1.852 l 1.617,-1.805 c 0.031,-0.039 0,-0.113 -0.082,-0.222 -0.082,-0.109 -0.149,-0.164 -0.188,-0.164 H 10.4 V 14 h 1.64 v 0.223 H 11.817 A 0.844,0.844 0 0 0 11.52,14.4 c -0.157,0.121 -0.25,0.2 -0.282,0.229 l -1.1,1.183 1.582,2.1 a 1.312,1.312 0 0 0 0.263,0.234 0.671,0.671 0 0 0 0.276,0.153 h 0.328 a 0.363,0.363 0 0 0 0.2,-0.117 c 0.086,-0.079 0.129,-0.145 0.129,-0.2 v -1.849 c 0,-0.047 -0.043,-0.11 -0.129,-0.188 a 0.363,0.363 0 0 0 -0.2,-0.117 H 12.41 v -0.223 h 1.043 v 2.379 c 0,0.055 0.045,0.121 0.135,0.2 a 0.4,0.4 0 0 0 0.193,0.117 h 0.364 c 0.039,0 0.1,-0.039 0.187,-0.117 0.087,-0.078 0.129,-0.145 0.129,-0.2 v -1.851 c 0,-0.047 -0.043,-0.11 -0.129,-0.188 -0.086,-0.078 -0.148,-0.117 -0.187,-0.117 h -0.188 v -0.223 h 0.926 L 15,16.2 a 5.017,5.017 0 0 1 0.51,-0.469 1,1 0 0 1 0.638,-0.2 0.8,0.8 0 0 1 0.581,0.235 0.813,0.813 0 0 1 0.24,0.609 v 1.609 c 0,0.055 0.043,0.121 0.129,0.2 0.086,0.079 0.148,0.117 0.187,0.117 h 0.188 v 0.222 H 15.938 V 18.3 H 16.1 a 0.366,0.366 0 0 0 0.2,-0.117 c 0.086,-0.079 0.129,-0.145 0.129,-0.2 V 16.414 A 0.545,0.545 0 0 0 16.311,16.051 0.43,0.43 0 0 0 15.96,15.91 1.1,1.1 0 0 0 15.321,16.139 Q 15,16.367 15,16.52 v 1.464 c 0,0.055 0.043,0.121 0.129,0.2 a 0.363,0.363 0 0 0 0.2,0.117 h 0.164 v 0.222 H 11.3 L 9.727,16.262 9.27,16.754 v 1.207 c 0,0.047 0.046,0.115 0.14,0.205 0.094,0.09 0.164,0.135 0.211,0.135 h 0.223 z m 1.57,5.1 -0.014,-0.014 c 0.149,0.125 0.3,0.25 0.452,0.375 0.152,0.125 0.314,0.246 0.486,0.364 h 0.269 v 0.234 h -0.492 a 1.542,1.542 0 0 1 -0.586,-0.105 1.888,1.888 0 0 1 -0.539,-0.364 1.746,1.746 0 0 1 -0.627,0.405 2.425,2.425 0 0 1 -0.849,0.134 1.518,1.518 0 0 1 -1,-0.369 1.2,1.2 0 0 1 -0.446,-0.967 v 0 A 1.574,1.574 0 0 1 8.268,22.531 1.691,1.691 0 0 1 8.8,21.957 2.11,2.11 0 0 1 8.536,21.523 1.255,1.255 0 0 1 8.436,21.008 0.949,0.949 0 0 1 8.728,20.264 1.148,1.148 0 0 1 9.527,20 a 1.432,1.432 0 0 1 0.493,0.07 0.953,0.953 0 0 0 0.328,0.071 0.553,0.553 0 0 0 0.129,-0.012 0.142,0.142 0 0 0 0.082,-0.07 h 0.2 v 1.066 h -0.2 a 0.967,0.967 0 0 0 -0.3,-0.574 0.95,0.95 0 0 0 -0.744,-0.34 0.893,0.893 0 0 0 -0.575,0.17 0.576,0.576 0 0 0 -0.211,0.474 0.732,0.732 0 0 0 0.176,0.481 1.15,1.15 0 0 0 0.469,0.328 q 0.433,0.47 0.937,0.943 0.504,0.473 0.961,0.885 a 1.476,1.476 0 0 0 0.182,-0.433 2.209,2.209 0 0 0 0.053,-0.5 0.637,0.637 0 0 0 -0.194,-0.487 0.728,0.728 0 0 0 -0.521,-0.181 V 21.664 H 12.4 v 0.211 h -0.175 c -0.039,0 -0.116,0.066 -0.229,0.2 a 0.587,0.587 0 0 0 -0.17,0.293 v 0.012 a 2.4,2.4 0 0 1 -0.117,0.662 2.068,2.068 0 0 1 -0.295,0.579 z m -1.535,0.68 A 1.7,1.7 0 0 0 10.424,24.221 1.728,1.728 0 0 0 10.863,24 L 10.828,23.977 Q 10.328,23.531 9.844,23.063 9.36,22.595 8.906,22.078 a 1.424,1.424 0 0 0 -0.269,0.4 1.392,1.392 0 0 0 -0.094,0.562 1.169,1.169 0 0 0 0.428,0.873 1.327,1.327 0 0 0 0.908,0.387 z m 3.246,-9.412 H 13.113 A 0.371,0.371 0 0 1 12.85,14.785 0.339,0.339 0 0 1 12.738,14.527 v -0.011 a 0.349,0.349 0 0 1 0.112,-0.276 0.431,0.431 0 0 1 0.55,0 0.349,0.349 0 0 1 0.112,0.276 H 13.5 c 0.008,0 0.012,0 0.012,0.011 a 0.339,0.339 0 0 1 -0.112,0.258 0.358,0.358 0 0 1 -0.252,0.106 z m 2.975,9.386 a 1.555,1.555 0 0 0 0.914,-0.234 1.8,1.8 0 0 0 0.55,-0.68 H 17.8 a 2,2 0 0 1 -0.692,0.955 1.856,1.856 0 0 1 -1.136,0.346 1.933,1.933 0 0 1 -1.559,-0.7 2.511,2.511 0 0 1 -0.586,-1.67 2.561,2.561 0 0 1 0.539,-1.641 1.8,1.8 0 0 1 1.488,-0.679 1.738,1.738 0 0 1 0.622,0.1 1.433,1.433 0 0 0 0.527,0.1 0.366,0.366 0 0 0 0.164,-0.03 0.443,0.443 0 0 0 0.117,-0.087 h 0.164 v 1.595 h -0.2 a 1.68,1.68 0 0 0 -0.363,-0.879 1.158,1.158 0 0 0 -1.008,-0.527 1.238,1.238 0 0 0 -0.926,0.346 1.733,1.733 0 0 0 -0.4,1.107 v -0.023 q -0.012,0.129 -0.018,0.258 c 0,0.086 -0.006,0.175 -0.006,0.269 0,0.109 0,0.221 0.012,0.334 0.012,0.113 0.016,0.217 0.023,0.311 a 1.657,1.657 0 0 0 0.457,1.013 1.421,1.421 0 0 0 1.081,0.416 z m 3.7,-6.574 a 0.831,0.831 0 0 1 -0.264,0.656 0.973,0.973 0 0 1 -0.674,0.235 1.115,1.115 0 0 1 -0.469,-0.088 0.871,0.871 0 0 0 -0.375,-0.088 0.209,0.209 0 0 0 -0.128,0.029 l -0.094,0.076 H 17.66 v -1.031 h 0.176 a 0.949,0.949 0 0 0 0.275,0.528 0.938,0.938 0 0 0 0.756,0.328 0.807,0.807 0 0 0 0.422,-0.094 0.33,0.33 0 0 0 0.152,-0.3 0.386,0.386 0 0 0 -0.181,-0.357 3.1,3.1 0 0 0 -0.369,-0.194 c -0.11,-0.046 -0.209,-0.089 -0.3,-0.128 C 18.5,17.236 18.397,17.193 18.28,17.146 a 1.54,1.54 0 0 1 -0.445,-0.311 0.67,0.67 0 0 1 -0.176,-0.486 0.758,0.758 0 0 1 0.235,-0.6 1.113,1.113 0 0 1 1.048,-0.129 0.736,0.736 0 0 0 0.323,0.077 0.243,0.243 0 0 0 0.1,-0.018 0.128,0.128 0 0 0 0.065,-0.065 h 0.152 v 0.9 h -0.176 a 0.852,0.852 0 0 0 -0.24,-0.469 0.8,0.8 0 0 0 -0.65,-0.293 0.572,0.572 0 0 0 -0.381,0.106 0.338,0.338 0 0 0 -0.123,0.269 0.324,0.324 0 0 0 0.129,0.281 2.269,2.269 0 0 0 0.351,0.2 c 0.11,0.046 0.213,0.089 0.311,0.128 l 0.322,0.129 a 1.583,1.583 0 0 1 0.457,0.293 0.7,0.7 0 0 1 0.223,0.542 z m 0.767,4.289 a 1.466,1.466 0 0 1 0.44,1.125 1.482,1.482 0 0 1 -0.44,1.131 1.432,1.432 0 0 1 -1.013,0.416 1.447,1.447 0 0 1 -1.026,-0.416 1.482,1.482 0 0 1 -0.439,-1.131 1.453,1.453 0 0 1 1.465,-1.535 1.443,1.443 0 0 1 1.018,0.41 z M 20.426,23.6 v 0.023 c 0.008,-0.086 0.013,-0.172 0.017,-0.258 0.004,-0.086 0.006,-0.172 0.006,-0.258 0,-0.086 0,-0.169 -0.006,-0.251 -0.006,-0.082 -0.009,-0.159 -0.017,-0.229 a 0.971,0.971 0 0 0 -0.252,-0.574 0.82,0.82 0 0 0 -0.615,-0.211 0.8,0.8 0 0 0 -0.6,0.211 0.958,0.958 0 0 0 -0.252,0.562 V 22.6 a 1.726,1.726 0 0 0 -0.029,0.246 c 0,0.086 -0.006,0.172 -0.006,0.257 0,0.085 0,0.17 0.006,0.252 a 1.431,1.431 0 0 0 0.029,0.229 1.006,1.006 0 0 0 0.252,0.562 0.779,0.779 0 0 0 0.6,0.223 0.8,0.8 0 0 0 0.621,-0.217 1,1 0 0 0 0.246,-0.552 z m 0.961,-5 a 1.213,1.213 0 0 1 -0.967,-0.451 1.611,1.611 0 0 1 -0.381,-1.073 1.619,1.619 0 0 1 0.387,-1.1 1.187,1.187 0 0 1 0.961,-0.434 0.991,0.991 0 0 1 0.767,0.3 1.116,1.116 0 0 1 0.3,0.721 l 0.012,0.211 -1.946,0.156 a 1.247,1.247 0 0 0 0.28,0.77 0.918,0.918 0 0 0 0.773,0.369 1.1,1.1 0 0 0 0.58,-0.128 1.036,1.036 0 0 0 0.346,-0.376 h 0.176 a 1.584,1.584 0 0 1 -0.446,0.756 1.209,1.209 0 0 1 -0.842,0.273 z m -0.012,-2.836 a 0.734,0.734 0 0 0 -0.662,0.31 1.243,1.243 0 0 0 -0.217,0.651 L 21.961,16.6 A 1.237,1.237 0 0 0 21.896,16.019 Q 21.8,15.759 21.375,15.758 Z m 3.539,8.6 c 0.047,0 0.111,-0.041 0.193,-0.123 0.082,-0.082 0.123,-0.146 0.123,-0.193 v -1.6 a 0.526,0.526 0 0 0 -0.111,-0.346 0.436,0.436 0 0 0 -0.357,-0.135 0.959,0.959 0 0 0 -0.569,0.211 q -0.287,0.212 -0.287,0.352 v 1.523 c 0,0.047 0.041,0.111 0.123,0.193 0.082,0.082 0.143,0.123 0.182,0.123 h 0.176 v 0.223 h -1.5 v -0.223 h 0.164 c 0.047,0 0.111,-0.041 0.193,-0.123 0.082,-0.082 0.123,-0.146 0.123,-0.193 v -1.6 a 0.527,0.527 0 0 0 -0.117,-0.358 0.44,0.44 0 0 0 -0.352,-0.135 0.947,0.947 0 0 0 -0.58,0.223 q -0.287,0.222 -0.287,0.375 v 1.5 c 0,0.047 0.041,0.111 0.123,0.193 0.082,0.082 0.147,0.123 0.194,0.123 h 0.164 v 0.223 h -1.5 v -0.223 h 0.176 c 0.039,0 0.1,-0.041 0.181,-0.123 0.081,-0.082 0.123,-0.146 0.123,-0.193 v -1.867 c 0,-0.046 -0.041,-0.109 -0.123,-0.187 -0.082,-0.078 -0.142,-0.117 -0.181,-0.117 h -0.176 v -0.223 h 0.9 l 0.117,0.563 q 0.258,-0.27 0.469,-0.452 a 0.89,0.89 0 0 1 0.6,-0.181 0.862,0.862 0 0 1 0.515,0.158 0.661,0.661 0 0 1 0.27,0.463 c 0.179,-0.172 0.344,-0.317 0.492,-0.434 a 0.919,0.919 0 0 1 0.586,-0.176 0.815,0.815 0 0 1 0.574,0.217 0.8,0.8 0 0 1 0.235,0.616 v 1.6 c 0,0.047 0.041,0.111 0.123,0.193 0.082,0.082 0.142,0.123 0.181,0.123 h 0.176 v 0.223 h -1.5 v -0.223 z m -1.957,-8.2 a 0.8,0.8 0 0 0 -0.182,-0.2 c -0.1,-0.086 -0.166,-0.129 -0.2,-0.129 h -0.129 v -0.23 h 1.582 v 0.223 h -0.187 c -0.039,0 -0.09,0.039 -0.152,0.117 a 0.345,0.345 0 0 0 -0.094,0.2 l 0.7,1.441 0.645,-1.43 a 0.291,0.291 0 0 0 -0.088,-0.211 q -0.1,-0.117 -0.159,-0.117 H 24.5 v -0.223 h 1.184 v 0.223 h -0.129 c -0.039,0 -0.1,0.041 -0.182,0.123 a 0.738,0.738 0 0 0 -0.158,0.205 l -1,2.121 -0.86,1.653 -0.255,-0.13 0.89,-1.606 z m 5.309,5.426 a 0.992,0.992 0 0 1 0.843,0.41 1.766,1.766 0 0 1 0.3,1.078 1.8,1.8 0 0 1 -0.34,1.125 1.045,1.045 0 0 1 -0.867,0.446 1.124,1.124 0 0 1 -0.615,-0.147 1.211,1.211 0 0 1 -0.393,-0.439 v 1.406 c 0,0.055 0.043,0.121 0.129,0.2 0.086,0.079 0.149,0.117 0.188,0.117 H 27.7 V 26 h -1.544 v -0.223 h 0.188 a 0.341,0.341 0 0 0 0.193,-0.117 0.315,0.315 0 0 0 0.123,-0.2 v -3.269 c 0,-0.046 -0.041,-0.109 -0.123,-0.187 a 0.341,0.341 0 0 0 -0.193,-0.117 h -0.188 v -0.235 h 0.949 l 0.094,0.61 a 1.445,1.445 0 0 1 0.451,-0.516 1.107,1.107 0 0 1 0.616,-0.164 z m 0.586,1.969 v 0.011 l 0.023,-0.234 a 2.292,2.292 0 0 0 0.012,-0.234 1.7,1.7 0 0 0 -0.012,-0.205 C 28.867,22.83 28.859,22.766 28.852,22.703 a 1,1 0 0 0 -0.235,-0.556 0.648,0.648 0 0 0 -0.5,-0.2 0.783,0.783 0 0 0 -0.586,0.228 1.4,1.4 0 0 0 -0.328,0.568 v 0.762 a 0.8,0.8 0 0 0 0.246,0.586 0.815,0.815 0 0 0 0.6,0.246 h 0.012 a 0.7,0.7 0 0 0 0.562,-0.217 1.053,1.053 0 0 0 0.229,-0.569 z m 6.621,0.492 c 0,0.047 0.043,0.111 0.129,0.193 0.086,0.082 0.148,0.123 0.187,0.123 h 0.176 V 24.59 H 34.43 v -0.223 h 0.17 c 0.04,0 0.1,-0.041 0.188,-0.123 0.088,-0.082 0.129,-0.146 0.129,-0.193 v -1.59 a 0.571,0.571 0 0 0 -0.111,-0.357 0.408,0.408 0 0 0 -0.346,-0.147 1.087,1.087 0 0 0 -0.639,0.234 q -0.323,0.236 -0.322,0.375 v 1.477 c 0,0.055 0.043,0.121 0.129,0.2 a 0.363,0.363 0 0 0 0.2,0.117 H 34 v 0.223 H 31.512 L 31.43,23.974 a 3.492,3.492 0 0 1 -0.41,0.451 0.8,0.8 0 0 1 -0.563,0.217 0.722,0.722 0 0 1 -0.527,-0.223 0.775,0.775 0 0 1 -0.223,-0.574 0.659,0.659 0 0 1 0.322,-0.627 2.379,2.379 0 0 1 0.627,-0.252 l 0.762,-0.153 0.012,-0.351 a 0.7,0.7 0 0 0 -0.164,-0.486 0.733,0.733 0 0 0 -0.563,-0.182 0.537,0.537 0 0 0 -0.51,0.234 0.668,0.668 0 0 0 0.03,0.61 h -0.211 l -0.4,-0.586 a 1.639,1.639 0 0 1 1.219,-0.469 1.378,1.378 0 0 1 0.809,0.229 0.758,0.758 0 0 1 0.328,0.662 v 1.57 c 0,0.047 0.043,0.109 0.129,0.187 0.086,0.078 0.148,0.118 0.187,0.118 h 0.352 a 0.36,0.36 0 0 0 0.2,-0.118 c 0.086,-0.078 0.129,-0.14 0.129,-0.187 v -1.853 c 0,-0.046 -0.043,-0.109 -0.129,-0.187 a 0.363,0.363 0 0 0 -0.2,-0.117 H 32.46 v -0.235 h 0.926 l 0.117,0.61 a 5.452,5.452 0 0 1 0.5,-0.469 0.991,0.991 0 0 1 0.644,-0.2 0.8,0.8 0 0 1 0.58,0.234 0.812,0.812 0 0 1 0.241,0.61 z m -4.043,-1.039 -0.7,0.176 a 0.65,0.65 0 0 0 -0.387,0.216 0.6,0.6 0 0 0 -0.106,0.358 v 0.011 a 0.452,0.452 0 0 0 0.129,0.323 0.421,0.421 0 0 0 0.317,0.134 H 30.7 a 0.661,0.661 0 0 0 0.422,-0.175 1.317,1.317 0 0 0 0.3,-0.34 z m 7.453,-1.348 v 0.223 h -0.141 c -0.031,0 -0.088,0.041 -0.17,0.123 a 1.49,1.49 0 0 0 -0.17,0.193 l -0.984,2.133 -0.879,1.641 -0.246,-0.129 0.879,-1.606 -1.031,-2.027 a 0.822,0.822 0 0 0 -0.182,-0.2 c -0.1,-0.086 -0.162,-0.129 -0.193,-0.129 h -0.141 v -0.222 h 1.582 v 0.223 h -0.176 c -0.039,0 -0.092,0.039 -0.158,0.117 a 0.34,0.34 0 0 0 -0.1,0.2 l 0.7,1.442 0.648,-1.446 A 0.27,0.27 0 0 0 38.033,22 c -0.066,-0.078 -0.119,-0.117 -0.158,-0.117 h -0.187 v -0.219 z"
     id="path1" />
  <metadata
     id="metadata1">
    <rdf:RDF>
      <cc:Work
         rdf:about="">
        <dc:title>mck</dc:title>
      </cc:Work>
    </rdf:RDF>
  </metadata>
</svg>
