<?xml version="1.0" encoding="UTF-8" standalone="no"?>
<svg
   version="1.1"
   x="0px"
   y="0px"
   width="46"
   height="46"
   viewBox="0 0 46 46"
   enable-background="new 0 0 127 46"
   xml:space="preserve"
   id="svg2"
   sodipodi:docname="ubs.svg"
   inkscape:version="1.3.2 (091e20e, 2023-11-25, custom)"
   xmlns:inkscape="http://www.inkscape.org/namespaces/inkscape"
   xmlns:sodipodi="http://sodipodi.sourceforge.net/DTD/sodipodi-0.dtd"
   xmlns="http://www.w3.org/2000/svg"
   xmlns:svg="http://www.w3.org/2000/svg"><defs
     id="defs2" /><sodipodi:namedview
     id="namedview2"
     pagecolor="#ffffff"
     bordercolor="#000000"
     borderopacity="0.25"
     inkscape:showpageshadow="2"
     inkscape:pageopacity="0.0"
     inkscape:pagecheckerboard="0"
     inkscape:deskcolor="#d1d1d1"
     inkscape:zoom="6.8539248"
     inkscape:cx="64.999254"
     inkscape:cy="16.99756"
     inkscape:window-width="1920"
     inkscape:window-height="1137"
     inkscape:window-x="-8"
     inkscape:window-y="-8"
     inkscape:window-maximized="1"
     inkscape:current-layer="svg2" /><style
     type="text/css"
     id="style1">.st0{fill:#E60000;}.st1{fill:#000000;}</style><path
     class="st0"
     d="m 19.49314,41.860636 c 0,2.109032 -1.154417,2.375436 -2.308835,2.375436 -1.97583,0 -2.397636,-1.021216 -2.397636,-2.464237 V 37.664773 H 14.054058 V 37.265167 H 16.8291 v 0.399606 h -0.777012 v 3.97386 c 0,1.398621 0.355205,2.109032 1.376421,2.109032 1.021215,0 1.531823,-0.510608 1.531823,-1.97583 v -4.107062 h -0.732611 v -0.399606 h 1.97583 v 0.399606 h -0.66601 z m 1.931429,1.887029 v -6.082892 h -0.777011 v -0.399606 h 3.063646 c 1.309819,0 1.953629,0.732611 1.953629,1.598424 0,0.932414 -0.843612,1.443022 -1.576223,1.598424 1.443021,0.133202 1.842627,1.065616 1.842627,1.753827 0,1.39862 -1.198818,1.931429 -2.353235,1.931429 h -2.974845 v -0.399606 z m 2.997046,-4.795273 c 0,-0.643809 -0.333005,-1.287619 -1.065617,-1.287619 h -0.799212 v 2.64184 h 0.710411 c 0.799212,0 1.154418,-0.64381 1.154418,-1.354221 z m 0.266403,3.28565 c 0,-0.910214 -0.399606,-1.531823 -1.309819,-1.531823 h -0.777012 v 3.063646 h 0.64381 c 0.954614,-0.0222 1.443021,-0.599409 1.443021,-1.531823 z m 4.329066,-4.66207 c -0.732611,0 -1.198818,0.421806 -1.198818,1.176617 0,0.666011 0.732611,0.999015 1.443021,1.243219 0.421807,0.155402 0.954615,0.355205 1.332021,0.688211 0.399606,0.377405 0.621609,0.888013 0.599408,1.531823 -0.0222,1.198818 -0.865812,2.02023 -2.353235,2.02023 -0.555008,0 -1.420821,-0.133202 -1.931429,-0.421806 l -0.0666,-1.798228 h 0.444007 c 0.0444,1.221019 0.599409,1.842628 1.598424,1.842628 0.799212,0 1.243218,-0.532807 1.243218,-1.35422 0,-0.710411 -0.577208,-0.999015 -1.465221,-1.30982 -0.288605,-0.0888 -0.865814,-0.310805 -1.26542,-0.710411 -0.355205,-0.355205 -0.532808,-0.821412 -0.532808,-1.287619 0,-1.398621 0.999016,-2.02023 2.242234,-2.02023 0.488407,0 1.221019,0.177602 1.665025,0.421806 l 0.0444,1.576224 h -0.444007 c -0.0666,-1.110017 -0.555008,-1.598424 -1.35422,-1.598424 z"
     id="path1"
     style="stroke-width:0.222003" /><path
     class="st1"
     d="m 33.38201,10.607099 -0.601741,0.526524 0.676958,2.181311 -1.955658,-1.053047 -0.676959,0.526523 2.181312,1.203483 -2.331747,1.880441 -0.601741,-0.827394 0.827394,-0.676959 -0.601741,-0.752177 -0.827394,0.676959 -0.676959,-0.902611 0.827394,-0.676959 -0.601741,-0.827394 -4.212188,3.535229 4.061753,3.234358 0.752176,-0.902612 c 0.526524,0 0.902612,0.451306 1.128265,0.902612 l -0.752177,0.902612 0.451306,0.376088 c 0.977829,-0.902612 2.331747,-1.504353 3.685664,-1.504353 2.85827,0 5.039582,2.331747 5.039582,5.190017 0,0.902612 -0.225653,1.955659 -0.752177,2.783053 l 0.752177,0.601741 c 0,0.526523 -0.526524,1.128264 -1.053047,1.278699 l -0.752176,-0.601741 c -0.97783,0.97783 -2.331747,1.504353 -3.685665,1.504353 -2.85827,0 -5.039581,-2.256529 -5.039581,-5.114799 0,-0.902612 0.30087,-1.880441 0.676959,-2.707835 l -0.526524,-0.376088 -0.752176,0.977829 c -0.526524,-0.07522 -0.97783,-0.451306 -1.128265,-0.977829 l 0.752177,-0.827394 -3.384794,-2.85827 v 4.513058 h 1.128264 c 0.150436,0.225653 0.225653,0.451306 0.225653,0.676959 0,0.225652 -0.07522,0.526523 -0.225653,0.752176 h -1.128264 v 0.526523 c 2.482182,0.451306 4.588276,2.5574 4.588276,5.1148 0,2.632617 -2.030876,4.738711 -4.588276,5.190016 v 0.902612 c -0.225653,0.150435 -0.526524,0.225653 -0.827394,0.225653 -0.300871,0 -0.676959,-0.07522 -0.902612,-0.225653 v -0.902612 c -2.557399,-0.376088 -4.513058,-2.557399 -4.513058,-5.190016 0,-2.5574 1.955659,-4.663494 4.513058,-5.039582 v -0.601741 h -1.203482 c -0.150435,-0.225653 -0.225653,-0.451306 -0.225653,-0.752176 0,-0.300871 0.07522,-0.526524 0.225653,-0.752177 h 1.203482 v -4.513058 l -3.460011,2.85827 0.752176,0.827394 c -0.150435,0.526524 -0.601741,0.902612 -1.128264,0.977829 l -0.752177,-0.977829 -0.451305,0.451306 c 0.451305,0.827394 0.752176,1.730006 0.752176,2.707835 0,2.85827 -2.256529,5.114799 -5.039581,5.114799 -1.353918,0 -2.707835,-0.526523 -3.6856654,-1.504353 l -0.752176,0.601741 C 8.3345368,28.132808 7.8080133,27.531067 7.7327957,27.004544 L 8.484972,26.402803 C 8.0336662,25.575409 7.7327957,24.597579 7.7327957,23.61975 c 0,-2.85827 2.1813119,-5.190017 5.0395823,-5.190017 1.353917,0 2.707834,0.601741 3.685664,1.504353 l 0.451305,-0.300871 -0.752176,-0.902611 c 0.150435,-0.451306 0.601741,-0.827394 1.128265,-0.902612 l 0.752176,0.902612 4.061752,-3.234359 -4.212187,-3.535229 -0.601741,0.827394 0.827394,0.676959 -0.601741,0.827394 -0.827394,-0.676959 -0.601742,0.752177 0.676959,0.526523 -0.601741,0.827394 -2.256529,-1.880441 2.106094,-1.203482 -0.601741,-0.526523 -1.955659,1.053047 0.601742,-2.030876 -0.601742,-0.526524 -0.752176,2.331747 -2.331747,-1.880441 0.601741,-0.752176 0.827394,0.676958 0.676959,-0.752176 -0.827394,-0.7521756 0.601741,-0.752177 0.827394,0.601741 0.601741,-0.752176 -1.805223,-1.353918 c 0.150435,-0.601741 0.526524,-1.053046 1.128265,-1.429135 L 22.55067,13.615804 V 8.4257884 h -0.977829 v 0.977829 h -0.977829 v -0.977829 h -0.97783 v 0.977829 h -0.977829 v -2.933488 l 2.256529,0.977829 v -0.827394 l -2.106094,-0.902611 2.106094,-0.827394 v -0.752177 l -2.256529,0.902612 v -3.008705 h 0.977829 v 1.053046 h 0.97783 v -1.053046 h 0.977829 v 1.053046 h 0.977829 v -2.331746 c 0.300871,-0.07522 0.601741,-0.150436 0.902612,-0.150436 0.30087,0 0.601741,0.07522 0.827394,0.150436 V 13.615804 l 9.55264,-7.8226336 c 0.526523,0.376089 0.902611,0.827394 1.128264,1.429135 l -1.805223,1.429136 0.601741,0.752176 0.827394,-0.601741 0.601741,0.752176 -0.827394,0.7521766 0.601741,0.752176 0.827394,-0.676959 0.601741,0.752177 -2.331746,1.88044 z M 13.900642,24.748015 c 0,0.827394 0.601741,1.353917 1.353918,1.429135 l -1.203482,0.902611 c -0.827394,-0.30087 -1.579571,-1.278699 -1.579571,-2.181311 0,-0.300871 0.07522,-0.451306 0.150435,-0.676959 H 12.39629 c -1.128265,0 -2.030877,-1.053047 -2.25653,-2.106094 l 1.2787,-0.977829 v 0.376088 c 0,0.676959 0.676959,1.2787 1.353918,1.2787 0.752176,0 1.429135,-0.601741 1.429135,-1.353917 0,-0.902612 -0.676959,-1.504353 -1.579571,-1.504353 -1.654788,0 -3.3095754,1.654788 -3.3095754,3.760882 0,0.601741 0.150435,1.203482 0.376088,1.730005 l 0.7521764,-0.601741 c 0.526523,0.225653 0.902612,0.752177 1.053047,1.353918 l -0.752176,0.601741 c 0.752176,0.601741 1.654788,0.902611 2.557399,0.902611 1.955659,0 3.460011,-1.57957 3.460011,-2.933487 0,-0.827394 -0.526523,-1.504353 -1.353917,-1.504353 -0.902612,0.150435 -1.504353,0.752176 -1.504353,1.504353 z m 10.229599,3.008705 c 0,0.752176 0.601741,1.353917 1.353917,1.353917 0.526524,0 0.752176,-0.225652 1.128265,-0.526523 v 1.57957 c -0.376089,0.225653 -0.752177,0.300871 -1.203483,0.300871 -0.827394,0 -1.504352,-0.225653 -1.955658,-0.977829 -0.451306,0.752176 -1.203482,0.977829 -2.030876,0.977829 -0.376088,0 -0.827394,-0.07522 -1.203482,-0.300871 v -1.57957 c 0.376088,0.376088 0.601741,0.526523 1.128264,0.526523 0.752176,0 1.353918,-0.601741 1.353918,-1.353917 0,-0.752176 -0.451306,-1.353917 -1.2787,-1.353917 -1.429135,0 -2.030876,1.353917 -2.030876,2.632617 0,1.805223 1.353917,3.384793 3.083923,3.685664 v -0.902612 c 0.30087,-0.150435 0.601741,-0.150435 0.827394,-0.150435 0.30087,0 0.601741,0 0.902611,0.150435 v 0.902612 c 1.654788,-0.225653 3.083923,-1.955659 3.083923,-3.685664 0,-1.2787 -0.526523,-2.632617 -2.030876,-2.632617 -0.601741,-0.07522 -1.128264,0.601741 -1.128264,1.353917 z m 8.57481,-6.243064 c 0,0.676959 0.752176,1.353918 1.429135,1.353918 0.676959,0 1.353918,-0.601741 1.353918,-1.2787 v -0.376088 l 1.203482,0.977829 c -0.225653,1.203482 -1.2787,2.181311 -2.482182,2.106094 0.07522,0.225653 0.07522,0.451306 0.07522,0.676959 0,0.902611 -0.752176,1.88044 -1.57957,2.181311 L 31.57679,26.17715 c 0.752176,-0.07522 1.353917,-0.601741 1.353917,-1.429135 0,-0.827394 -0.676959,-1.353918 -1.429135,-1.353918 -0.827394,0 -1.353917,0.676959 -1.353917,1.504353 0,0.977829 1.203482,2.933488 3.535228,2.933488 0.902612,0 1.805224,-0.300871 2.482182,-0.902612 l -0.752179,-0.601741 c 0.150435,-0.601741 0.526523,-1.128265 1.053047,-1.353917 l 0.752176,0.601741 c 0.300871,-0.526524 0.451306,-1.128265 0.451306,-1.730006 0,-1.654788 -1.2787,-3.760882 -3.309576,-3.760882 -0.902612,0 -1.654788,0.526524 -1.654788,1.429135 z"
     id="path2"
     style="stroke-width:0.752176" /></svg>
