<?xml version="1.0" standalone="no"?>
<!DOCTYPE svg PUBLIC "-//W3C//DTD SVG 20010904//EN"
 "http://www.w3.org/TR/2001/REC-SVG-20010904/DTD/svg10.dtd">
<svg version="1.0" xmlns="http://www.w3.org/2000/svg"
 width="800.000000pt" height="800.000000pt" viewBox="0 0 800.000000 800.000000"
 preserveAspectRatio="xMidYMid meet">

<g transform="translate(0.000000,800.000000) scale(0.100000,-0.100000)"
fill="#000000" stroke="none">
<path d="M4405 6003 c-30 -7 -45 -23 -38 -39 3 -9 -2 -14 -15 -14 -12 0 -24
-5 -27 -11 -7 -10 -26 -19 -74 -34 -16 -5 -21 -4 -17 4 5 7 -5 11 -28 11 -19
0 -38 -5 -41 -11 -4 -6 -13 -8 -20 -5 -8 3 -16 0 -18 -7 -3 -9 -12 -9 -39 1
-41 14 -108 16 -108 2 0 -5 7 -10 16 -10 8 0 13 -4 9 -10 -3 -5 6 -17 20 -26
14 -9 25 -21 25 -28 0 -7 -3 -7 -8 -1 -20 28 -74 45 -139 45 -101 0 -168 -13
-158 -30 6 -10 -23 -22 -36 -14 -5 3 -9 0 -9 -5 0 -6 -6 -11 -12 -11 -17 -1
-58 -35 -58 -49 0 -6 -4 -11 -10 -11 -5 0 -12 -11 -16 -25 -3 -14 -10 -25 -16
-25 -24 0 35 109 80 147 15 13 21 23 14 23 -9 0 -9 8 3 33 l16 32 -20 -25
c-11 -14 -19 -30 -16 -37 2 -7 0 -15 -5 -18 -6 -4 -10 5 -10 18 0 14 -7 28
-16 31 -24 9 -31 7 -14 -4 13 -9 13 -10 0 -11 -8 -1 -18 -1 -22 0 -7 1 -12
-22 -9 -41 0 -5 -16 -8 -37 -8 l-37 0 25 -20 c30 -24 14 -27 -19 -4 -19 14
-25 14 -31 3 -6 -8 3 -27 23 -53 l32 -41 -40 33 c-50 41 -109 43 -178 9 -25
-13 -44 -19 -41 -13 3 6 -11 -7 -33 -29 -21 -22 -41 -39 -45 -38 -5 2 -8 -7
-9 -20 -1 -28 -4 -63 -9 -102 -2 -24 -4 -21 -9 18 l-6 48 -40 -30 c-47 -36
-52 -37 -85 -11 -23 18 -23 20 -5 20 15 0 17 2 6 9 -8 5 -9 10 -3 12 6 2 -4
19 -23 37 -31 28 -35 30 -35 13 0 -11 5 -32 12 -46 16 -35 8 -38 -42 -14 -28
14 -46 17 -48 11 -2 -6 -9 -9 -16 -6 -23 9 -37 -23 -36 -83 1 -95 4 -121 14
-115 5 3 6 -2 3 -12 -4 -10 -7 -24 -7 -32 0 -8 -10 -14 -23 -14 -25 0 -47 -17
-47 -37 0 -7 8 -13 18 -13 9 0 22 -4 29 -8 7 -4 -9 -7 -34 -7 -39 1 -49 6 -73
36 -16 18 -32 30 -37 25 -4 -4 15 -29 42 -55 39 -35 51 -54 54 -80 1 -18 9
-52 17 -74 8 -22 14 -49 15 -61 0 -11 3 -16 5 -9 9 22 60 -49 62 -86 3 -40 12
-56 12 -22 0 17 4 22 16 17 9 -3 22 -6 30 -6 21 0 17 -27 -8 -44 -17 -12 -25
-13 -37 -3 -12 10 -14 9 -8 -6 4 -10 7 -20 7 -23 0 -2 12 1 26 6 34 13 47 13
38 -1 -6 -11 -10 -29 -13 -72 -1 -22 -19 -13 -31 17 -7 17 -9 18 -9 3 -1 -12
-6 -16 -13 -11 -7 4 1 -8 18 -27 22 -24 34 -48 38 -81 5 -33 14 -51 27 -58 11
-7 19 -21 19 -38 0 -15 5 -34 10 -42 8 -13 10 -12 10 3 0 10 4 16 8 13 12 -7
7 -57 -8 -66 -10 -6 -8 -10 7 -19 23 -11 45 -85 37 -117 -4 -13 8 -36 35 -71
23 -28 41 -54 41 -58 0 -5 11 -31 24 -60 14 -28 28 -76 32 -106 3 -30 12 -61
19 -69 7 -8 19 -34 25 -57 7 -23 16 -40 21 -38 4 3 5 -3 2 -13 -5 -20 49 -130
91 -185 25 -33 46 -41 62 -24 7 7 54 -33 54 -46 0 -4 -9 -3 -20 3 -11 6 -20
18 -20 27 0 12 -3 13 -13 4 -8 -6 -17 -8 -20 -4 -4 3 -7 2 -7 -4 0 -10 101
-110 221 -218 58 -52 70 -70 97 -140 83 -216 111 -317 92 -340 -7 -8 -10 -23
-8 -33 4 -13 -1 -18 -15 -19 -33 -3 -43 -21 -21 -39 19 -15 19 -15 -3 -11 -33
7 -38 -21 -6 -34 22 -8 30 -6 50 13 20 19 24 31 23 73 -2 27 -2 65 -1 83 1 28
3 31 15 20 16 -16 27 -48 31 -92 2 -17 6 -48 9 -68 2 -22 0 -41 -6 -44 -7 -5
-8 -2 -3 6 5 8 3 11 -6 8 -11 -4 -14 -28 -13 -106 1 -56 -2 -102 -7 -102 -13
0 -11 -34 3 -48 7 -7 9 -12 5 -12 -4 0 1 -17 12 -38 22 -42 17 -56 -23 -77
-25 -14 -27 -13 -37 13 -6 15 -28 60 -50 99 l-40 73 -24 -18 c-12 -9 -21 -20
-19 -23 2 -4 -5 -14 -16 -24 -11 -10 -20 -25 -20 -33 0 -13 2 -13 18 0 33 29
47 31 20 3 -35 -35 -36 -47 -2 -35 32 12 37 12 29 1 -3 -5 3 -12 12 -14 15 -4
14 -5 -3 -6 -12 0 -27 -8 -34 -16 -11 -13 -7 -15 26 -16 24 -1 30 -3 16 -6
-12 -2 -30 -16 -39 -30 -15 -22 -17 -23 -26 -8 -6 12 -5 20 4 26 11 7 10 9 -3
9 -10 0 -18 -4 -18 -10 0 -21 -2 -25 -17 -42 -9 -10 -13 -26 -10 -38 3 -13 1
-18 -6 -13 -7 4 -8 -13 -4 -54 5 -48 3 -62 -8 -66 -8 -4 -15 1 -18 11 -2 9 -5
-2 -8 -25 -5 -49 -3 -53 11 -20 8 16 8 10 3 -23 -3 -25 -6 -90 -5 -144 2 -105
20 -177 52 -211 17 -18 55 -105 45 -105 -7 0 -50 75 -47 82 1 5 -1 7 -6 6 -14
-3 -42 14 -42 27 0 6 -9 20 -20 30 -11 10 -20 22 -20 27 0 5 -12 25 -26 44
-15 19 -22 34 -18 34 5 0 3 4 -4 9 -7 4 -20 26 -27 47 -13 36 -14 37 -15 11 0
-16 -4 -26 -9 -23 -5 3 -6 46 -3 96 3 64 1 90 -7 90 -6 0 -12 -19 -13 -42 -1
-24 -3 -59 -4 -78 -1 -19 -2 -59 -3 -87 0 -29 -5 -53 -10 -53 -4 0 -6 61 -4
136 3 138 -3 171 -33 160 -8 -3 -11 0 -8 9 7 17 -20 47 -31 37 -5 -4 -5 -2 -2
4 4 6 -2 21 -12 33 l-19 21 -12 -47 c-7 -27 -14 -58 -16 -70 -1 -13 -5 -32 -9
-43 -5 -15 -2 -20 12 -20 14 0 15 -2 4 -9 -32 -20 -50 30 -35 93 5 21 4 27 -5
22 -6 -4 -11 -16 -11 -27 0 -27 -16 -15 -39 29 l-19 37 5 -66 c5 -61 4 -67
-15 -73 -19 -6 -21 -13 -18 -67 2 -32 0 -61 -4 -64 -11 -7 -21 22 -14 40 4 8
2 15 -4 15 -17 0 -20 -24 -11 -95 16 -116 21 -237 13 -295 l-7 -55 -22 50 -23
50 -3 -62 c-2 -33 -1 -59 4 -56 4 2 6 -22 5 -54 l-1 -58 -6 45 -7 45 -8 -33
c-4 -18 -11 -30 -16 -27 -20 12 -55 -176 -75 -409 -31 -344 -30 -768 2 -1093
3 -32 1 -53 -5 -53 -5 0 -12 -7 -16 -15 -5 -13 188 -15 1694 -15 l1700 0 0 45
c0 26 -7 59 -15 76 -9 16 -13 35 -9 41 4 6 3 8 -3 5 -6 -4 -18 14 -28 41 -10
26 -35 84 -57 130 -21 45 -38 84 -38 86 0 2 -18 34 -40 70 -40 65 -56 106 -22
53 10 -15 22 -24 27 -20 4 5 5 2 0 -6 -4 -7 -3 -16 2 -20 5 -3 24 -35 42 -71
17 -36 35 -65 39 -65 4 0 6 -4 4 -8 -1 -5 7 -6 18 -2 15 5 23 0 31 -19 7 -14
16 -23 22 -19 6 4 7 1 2 -7 -5 -8 -1 -18 9 -26 11 -7 15 -18 11 -25 -6 -8 -12
-3 -22 15 -14 26 -24 32 -36 20 -7 -8 11 -46 26 -56 6 -3 21 -2 33 2 20 8 23
6 22 -21 -1 -16 -5 -29 -10 -29 -14 0 -9 -28 7 -34 11 -4 14 -13 9 -32 -5 -19
-3 -25 4 -20 17 10 26 -38 12 -63 -16 -31 -5 -40 45 -39 50 1 55 11 44 85 -4
30 -2 44 8 47 7 3 13 13 13 23 1 17 1 17 11 -1 9 -15 13 -16 20 -5 7 11 9 11
9 -2 0 -9 -7 -19 -15 -23 -9 -3 -15 -19 -15 -41 0 -28 5 -38 23 -44 12 -5 29
-5 39 0 9 5 28 9 41 9 14 0 28 7 31 16 11 28 38 -4 32 -38 -2 -15 0 -28 5 -28
5 0 9 10 9 23 l1 22 18 -22 c11 -13 29 -23 40 -23 25 0 25 0 9 37 -6 15 -10
34 -9 41 1 6 -6 42 -15 80 -10 37 -17 81 -15 98 1 17 -5 50 -14 73 -8 24 -15
56 -15 70 0 15 -4 31 -9 36 -5 6 -14 33 -20 60 -11 44 -14 61 -20 100 -1 6 -8
1 -16 -9 -14 -19 -15 -18 -16 10 -3 78 -6 112 -13 142 -6 21 -5 32 2 32 6 0
43 -31 84 -69 63 -60 75 -76 85 -120 7 -28 10 -58 6 -66 -3 -9 6 -30 21 -49
45 -59 94 -178 117 -279 l21 -99 -43 -44 c-24 -24 -37 -44 -29 -44 8 0 25 12
38 27 l23 28 -4 -27 -4 -28 553 0 554 0 0 1049 c0 923 -2 1050 -15 1055 -8 3
-15 12 -15 21 0 8 -8 15 -18 15 -10 0 -23 5 -30 12 -9 9 -12 9 -12 -1 0 -7 7
-19 15 -28 9 -8 14 -20 12 -27 -6 -19 -31 -12 -36 9 -3 19 -18 35 -33 35 -4 0
1 -15 12 -33 19 -32 19 -33 0 -65 -11 -18 -20 -43 -20 -56 0 -19 -7 -26 -30
-31 -17 -4 -30 -13 -30 -21 0 -17 -40 -74 -52 -74 -5 0 -13 11 -18 25 -8 22
-14 24 -37 19 -16 -4 -28 -7 -29 -8 0 -1 -10 -15 -22 -33 -24 -34 -28 -64 -12
-93 7 -14 6 -23 -5 -34 -14 -14 -13 -23 10 -88 54 -150 82 -237 74 -232 -5 3
-13 23 -19 44 -6 22 -33 92 -60 156 -28 64 -50 120 -50 124 0 17 -141 337
-241 545 -39 83 -78 168 -87 190 -20 50 -111 205 -120 205 -4 1 -25 16 -47 36
-22 19 -33 32 -24 29 32 -12 16 38 -20 62 -18 12 -65 62 -105 110 -96 119
-206 233 -264 273 -33 24 -19 7 46 -55 52 -49 98 -98 103 -109 5 -12 21 -36
36 -55 24 -29 25 -33 7 -23 -12 6 -24 8 -28 5 -3 -3 -6 6 -6 20 0 20 -4 25
-17 20 -13 -5 -15 -2 -10 17 4 17 3 20 -6 11 -16 -16 -27 -14 -27 5 0 8 5 12
10 9 6 -3 10 -4 10 -1 0 3 -9 10 -20 16 -16 9 -18 8 -14 -5 5 -11 2 -13 -10
-9 -9 3 -16 15 -16 25 0 10 -3 18 -7 18 -20 -3 -33 2 -30 13 1 7 -7 12 -18 13
-11 0 -20 5 -20 12 0 7 -6 18 -14 25 -12 11 -13 11 -6 -1 6 -10 4 -12 -6 -5
-8 5 -21 7 -30 6 -9 -2 -21 4 -28 12 -7 8 -20 12 -28 9 -12 -5 -15 -2 -10 10
3 9 2 17 -2 17 -5 0 -11 -7 -15 -15 -3 -8 -10 -15 -15 -15 -6 0 -8 7 -5 15 4
8 2 15 -2 16 -5 0 -18 3 -29 6 -59 14 -75 15 -75 2 0 -12 -2 -12 -9 0 -5 8
-19 12 -34 9 -18 -3 -28 0 -32 11 -6 14 -7 14 -16 -1 -14 -25 -28 -22 -22 5 4
20 3 19 -14 -5 -14 -20 -22 -25 -30 -17 -8 8 -17 8 -31 0 -15 -8 -22 -8 -25 2
-4 8 -6 7 -6 -3 -1 -9 -11 -16 -23 -17 -55 -4 -108 -15 -108 -23 0 -8 -44 -23
-73 -24 -10 -1 -22 -8 -27 -16 -5 -8 -12 -11 -16 -7 -4 4 -31 -7 -59 -23 -57
-33 -65 -35 -65 -20 0 15 -33 50 -42 44 -5 -3 -5 -10 -2 -16 4 -6 2 -8 -3 -5
-15 9 -35 -17 -55 -72 -9 -25 -17 -39 -17 -31 -1 19 20 88 48 158 22 55 21 68
-6 156 l-16 49 33 27 c33 27 33 28 11 35 -13 4 -20 12 -17 20 4 12 -33 25 -77
26 -9 0 -15 4 -12 8 5 9 -52 21 -100 21 -28 -1 -29 -2 -12 -14 16 -12 11 -14
-42 -9 -42 4 -61 2 -61 -6 0 -7 19 -11 48 -11 36 0 57 -7 82 -25 27 -20 44
-24 77 -22 32 2 48 -1 60 -15 9 -10 14 -19 12 -21 -2 -2 -76 1 -164 5 -269 15
-316 6 -407 -80 -38 -36 -66 -38 -35 -4 10 10 17 21 17 24 0 3 18 36 41 73 22
37 38 70 35 73 -3 3 -6 3 -6 -1 0 -3 -11 4 -23 16 -13 12 -41 36 -62 52 -21
17 -47 38 -57 48 -10 9 -22 17 -28 17 -5 0 -15 10 -21 22 -7 13 -17 28 -23 34
-56 60 -144 162 -157 182 -20 28 -18 57 2 57 50 1 77 37 86 113 7 61 9 71 15
78 4 3 4 12 1 20 -3 8 6 23 21 35 14 11 26 28 26 37 0 13 -3 12 -16 -6 -8 -12
-20 -22 -26 -22 -6 0 -3 10 8 21 l19 22 -34 -18 c-33 -16 -37 -16 -65 -1 -32
17 -56 56 -56 88 0 10 4 18 9 18 11 0 32 -25 26 -31 -2 -3 11 -6 30 -7 18 -1
36 2 39 7 3 5 -3 7 -14 4 -11 -3 -26 0 -33 6 -11 8 -4 21 33 59 43 45 48 55
53 108 3 33 12 97 21 144 9 47 16 117 17 155 0 39 3 64 6 58 2 -7 9 -13 14
-13 4 0 6 7 3 15 -5 11 1 15 22 16 26 0 27 1 8 9 -22 9 -60 60 -45 60 6 0 8 7
5 15 -5 11 -2 13 10 9 11 -4 16 0 16 14 0 11 -7 23 -16 26 -15 6 -15 8 0 25
11 13 14 21 7 26 -17 10 -13 35 5 35 8 0 12 5 9 10 -3 6 -1 10 4 10 15 0 14
53 -1 68 -9 9 -9 15 0 24 10 10 15 10 22 -2 9 -13 10 -13 10 0 -1 20 -24 50
-51 64 -12 6 -26 21 -30 34 -6 15 -5 21 2 17 15 -10 61 4 57 17 -2 6 -13 12
-24 13 -10 1 -28 6 -39 13 -19 11 -19 11 3 12 13 0 22 6 22 16 0 11 6 14 23
10 l22 -6 -22 11 c-13 7 -23 16 -23 21 0 4 -6 8 -14 8 -7 0 -16 9 -19 20 -3
11 -1 20 5 20 5 0 8 6 5 13 -2 6 -10 11 -16 9 -6 -1 -11 2 -11 8 0 5 -13 7
-32 3 -22 -4 -29 -3 -24 5 4 7 1 12 -8 12 -9 0 -16 -4 -16 -10 0 -5 -5 -10
-10 -10 -6 0 -3 14 6 31 19 38 7 57 -25 39 -20 -10 -23 -7 -41 35 -11 26 -20
53 -20 61 0 8 -4 14 -10 14 -5 0 -9 18 -7 39 1 21 6 37 10 34 5 -3 6 -17 2
-31 -4 -20 0 -30 15 -40 25 -15 25 -15 -1 53 -19 50 -39 73 -39 43 0 -7 -16 3
-35 22 -41 40 -39 51 4 19 49 -36 49 -13 0 33 -39 36 -42 42 -25 48 16 5 15 8
-12 19 -26 11 -30 16 -22 31 13 24 13 60 0 60 -5 0 -10 -5 -10 -11 0 -6 -7 -9
-15 -5 -8 3 -27 -5 -42 -18 -29 -24 -73 -43 -73 -31 0 4 16 26 35 49 40 49 44
66 15 66 -11 0 -17 5 -15 13 4 8 -6 12 -30 13 -29 0 -33 -2 -23 -14 9 -11 9
-13 -3 -11 -7 1 -33 -3 -57 -10 -29 -8 -48 -9 -60 -2 -14 8 -10 10 19 11 19 0
44 7 55 15 18 14 18 14 -6 14 -14 -1 -34 -4 -45 -6z m120 -62 c-3 -6 -11 -11
-17 -11 -6 0 -6 6 2 15 14 17 26 13 15 -4z m45 9 c0 -5 -2 -10 -4 -10 -3 0 -8
5 -11 10 -3 6 -1 10 4 10 6 0 11 -4 11 -10z m-190 -15 c-7 -9 -15 -13 -19 -10
-3 3 1 10 9 15 21 14 24 12 10 -5z m160 -20 c-7 -8 -17 -15 -23 -15 -5 0 -2 9
8 20 21 23 35 19 15 -5z m-325 -14 c-6 -5 -21 -12 -35 -15 l-25 -7 25 15 c28
17 50 21 35 7z m185 0 c0 -5 -6 -11 -14 -14 -8 -3 -20 -16 -27 -29 -12 -22
-12 -22 14 -5 33 21 56 22 53 1 -3 -19 -32 -38 -45 -29 -5 3 -12 1 -16 -5 -3
-5 -13 -10 -21 -10 -11 0 -13 7 -8 26 l7 27 -32 -19 c-17 -10 -31 -22 -31 -26
0 -4 -19 -6 -42 -6 -24 1 -69 -6 -101 -15 -68 -20 -70 -20 -62 -7 3 6 14 10
23 10 37 0 92 22 92 36 0 8 4 13 8 10 4 -2 21 1 37 9 52 23 127 45 136 39 5
-3 9 0 9 5 0 6 5 11 10 11 6 0 10 -4 10 -9z m211 -34 c-16 -16 -26 0 -10 19 9
11 15 12 17 4 2 -6 -1 -17 -7 -23z m-558 16 c-7 -2 -19 -2 -25 0 -7 3 -2 5 12
5 14 0 19 -2 13 -5z m-403 -37 c0 -2 -6 -9 -13 -15 -10 -8 -14 -7 -14 4 0 8 6
15 14 15 7 0 13 -2 13 -4z m860 -31 c0 -6 -56 -35 -67 -35 -4 0 6 9 22 20 29
19 45 25 45 15z m-30 -45 c0 -5 -5 -10 -11 -10 -5 0 -7 5 -4 10 3 6 8 10 11
10 2 0 4 -4 4 -10z m170 0 c0 -5 -2 -10 -4 -10 -3 0 -8 5 -11 10 -3 6 -1 10 4
10 6 0 11 -4 11 -10z m-1340 -80 c0 -5 -2 -10 -4 -10 -3 0 -8 5 -11 10 -3 6
-1 10 4 10 6 0 11 -4 11 -10z m330 1 c0 -10 -61 -34 -68 -27 -3 4 40 27 66 35
1 1 2 -3 2 -8z m1020 -111 c0 -5 -7 -10 -15 -10 -8 0 -15 5 -15 10 0 6 7 10
15 10 8 0 15 -4 15 -10z m-1845 -290 c3 -5 2 -10 -4 -10 -5 0 -13 5 -16 10 -3
6 -2 10 4 10 5 0 13 -4 16 -10z m60 -181 c11 -17 -1 -21 -15 -4 -8 9 -8 15 -2
15 6 0 14 -5 17 -11z m320 -119 c3 -5 1 -10 -4 -10 -6 0 -11 5 -11 10 0 6 2
10 4 10 3 0 8 -4 11 -10z m73 -232 c-2 -18 -11 -42 -21 -52 -11 -13 -14 -23
-8 -29 7 -7 5 -21 -3 -41 -7 -17 -10 -40 -6 -51 4 -11 4 -29 0 -40 -9 -23 -14
-92 -12 -143 2 -29 5 -32 23 -27 18 6 20 4 14 -14 -4 -13 -1 -27 9 -37 18 -18
21 -44 5 -44 -6 0 -9 -6 -6 -14 3 -8 1 -17 -6 -20 -8 -3 -6 -8 6 -16 20 -13
23 -40 3 -40 -7 0 -16 -9 -19 -20 -3 -13 0 -20 10 -20 8 0 11 5 8 10 -3 6 -1
10 5 10 7 0 9 -8 5 -20 -4 -12 -1 -28 6 -36 6 -8 9 -17 6 -20 -3 -4 3 -23 14
-42 10 -20 19 -42 19 -49 0 -7 9 -22 20 -33 18 -18 18 -21 5 -26 -12 -5 -13
-9 -4 -20 7 -8 9 -17 5 -21 -3 -3 -6 -1 -6 6 0 7 -4 9 -10 6 -5 -3 -10 3 -10
15 0 12 -4 18 -10 15 -5 -3 -10 0 -10 8 0 8 -12 32 -26 53 -16 23 -22 40 -15
42 6 2 10 16 10 30 -1 16 -3 20 -6 10 -2 -9 -10 -18 -16 -21 -8 -3 -12 16 -14
64 -1 62 1 69 18 69 10 0 19 4 19 10 0 5 -7 7 -15 4 -10 -4 -15 0 -16 12 0 14
-2 15 -6 4 -15 -36 -29 -39 -41 -7 -32 93 -40 493 -10 523 4 3 4 12 1 20 -3 8
0 14 6 14 6 0 11 -4 11 -10 0 -16 40 -12 46 5 11 27 25 16 22 -17z m444 -520
c-7 -7 -12 -20 -12 -30 0 -10 -4 -18 -9 -18 -6 0 -6 12 0 30 6 17 16 30 22 30
7 0 7 -4 -1 -12z m1083 -248 c3 -5 1 -10 -4 -10 -6 0 -11 5 -11 10 0 6 2 10 4
10 3 0 8 -4 11 -10z m25 -40 c0 -11 -6 -20 -14 -20 -18 0 -29 16 -21 30 11 18
35 11 35 -10z m-753 -29 c12 -19 8 -31 -11 -31 -6 0 -12 11 -12 25 -2 30 7 32
23 6z m-67 -6 c7 -8 9 -15 5 -15 -4 0 -2 -6 5 -14 9 -12 8 -15 -7 -14 -10 1
-32 -2 -49 -6 -30 -7 -31 -6 -26 23 3 21 11 31 26 34 11 2 24 5 27 6 4 0 12
-6 19 -14z m-87 -27 c6 -22 -35 -53 -58 -44 -15 5 -21 47 -9 59 14 14 63 3 67
-15z m-595 -13 c-3 -3 -9 2 -12 12 -6 14 -5 15 5 6 7 -7 10 -15 7 -18z m389 3
c-3 -8 -6 -5 -6 6 -1 11 2 17 5 13 3 -3 4 -12 1 -19z m47 7 c14 -15 12 -45 -3
-45 -11 0 -31 47 -24 54 9 8 10 8 27 -9z m67 -16 c8 -16 6 -19 -10 -19 -17 0
-31 18 -31 41 0 14 30 -2 41 -22z m-444 -49 c1 -10 -2 -22 -7 -25 -6 -4 -7 1
-3 11 5 13 3 15 -7 9 -9 -5 -11 -4 -6 3 4 7 1 12 -6 12 -10 0 -9 3 2 10 17 11
23 6 27 -20z m17 -32 c-6 -22 -6 -23 14 -5 15 14 22 15 28 6 5 -8 3 -10 -6 -4
-9 6 -12 4 -8 -7 4 -10 0 -14 -15 -13 -12 1 -22 7 -21 13 2 25 4 32 10 32 3 0
2 -10 -2 -22z m112 -106 c-3 -5 4 -16 15 -25 10 -9 19 -22 19 -29 0 -7 -11 1
-25 17 -27 33 -31 45 -14 45 5 0 8 -4 5 -8z m214 -208 c0 -3 -7 -1 -15 6 -8 7
-15 17 -15 22 0 5 7 3 15 -6 8 -8 15 -18 15 -22z m2000 -56 c0 -5 -8 -4 -19 1
-10 6 -21 7 -25 4 -3 -3 -6 1 -6 10 0 14 4 15 25 5 14 -6 25 -15 25 -20z
m-1947 -49 c4 -16 3 -18 -9 -8 -7 6 -11 15 -8 20 8 13 11 11 17 -12z m48 -113
c5 3 9 0 9 -6 0 -15 -23 -7 -26 8 -1 7 0 8 3 2 2 -5 9 -8 14 -4z m2090 -169
c-10 -9 -11 -8 -5 6 3 10 9 15 12 12 3 -3 0 -11 -7 -18z m-47 -72 c-9 -14 -20
-25 -25 -25 -5 0 -9 -6 -9 -13 0 -7 -11 -28 -25 -47 -30 -41 -33 -28 -4 20 19
32 68 90 76 90 2 0 -4 -11 -13 -25z m1104 -178 c7 -5 10 -13 6 -18 -3 -5 -11
-6 -17 -2 -7 4 -16 8 -21 8 -5 0 -11 6 -14 13 -4 13 24 12 46 -1z m-1204 -5
c2 -4 -7 -9 -20 -10 -15 -1 -22 2 -19 8 7 12 32 13 39 2z m41 -2 c-3 -5 -10
-10 -16 -10 -5 0 -9 5 -9 10 0 6 7 10 16 10 8 0 12 -4 9 -10z m65 -4 c0 -2 -7
-6 -15 -10 -8 -3 -15 -1 -15 4 0 6 7 10 15 10 8 0 15 -2 15 -4z m-220 -27 c-7
-11 -14 -18 -17 -15 -3 3 0 12 7 21 18 21 23 19 10 -6z m295 11 c27 -7 27 -8
5 -8 -14 0 -36 4 -50 8 -20 6 -21 8 -5 8 11 0 34 -4 50 -8z m55 -20 c0 -5 -2
-10 -4 -10 -3 0 -8 5 -11 10 -3 6 -1 10 4 10 6 0 11 -4 11 -10z m947 4 c-3 -3
-12 -4 -19 -1 -8 3 -5 6 6 6 11 1 17 -2 13 -5z m-997 -13 c0 -5 -9 -11 -19
-14 -14 -3 -18 -1 -14 9 6 15 33 19 33 5z m107 -37 c0 -18 1 -18 -28 12 l-24
26 26 -12 c14 -6 26 -18 26 -26z m1008 26 c4 -6 -2 -9 -14 -7 -29 4 -39 17
-13 17 11 0 24 -5 27 -10z m-1386 -24 c19 -20 21 -53 4 -53 -9 0 -13 9 -11 26
3 22 -1 27 -24 29 -16 2 -28 7 -28 12 0 13 42 3 59 -14z m1341 -9 c0 -12 9
-39 19 -60 10 -20 15 -37 11 -37 -5 0 -12 5 -15 10 -3 6 -16 11 -28 11 -17 1
-18 2 -4 6 9 2 17 7 17 9 0 13 -24 50 -38 58 -12 7 -12 10 -1 17 24 15 39 10
39 -14z m-912 -27 c17 -27 10 -25 -19 6 -13 14 -17 23 -9 19 9 -3 21 -14 28
-25z m833 -9 c-12 -12 -21 -18 -21 -14 0 10 33 44 37 39 3 -2 -5 -14 -16 -25z
m-821 -30 c1 10 4 9 11 -4 7 -11 7 -23 2 -28 -5 -5 -16 5 -27 24 -12 23 -13
27 -2 13 12 -15 16 -16 16 -5z m-472 -8 c27 -6 31 -43 5 -43 -23 1 -53 24 -53
41 0 12 -2 12 -9 0 -5 -7 -14 -10 -21 -6 -18 11 10 27 35 19 11 -3 30 -8 43
-11z m265 -10 c-7 -2 -19 -2 -25 0 -7 3 -2 5 12 5 14 0 19 -2 13 -5z m268 -65
c7 -14 6 -18 -4 -18 -8 0 -14 6 -14 13 0 6 -4 21 -8 32 -6 16 -5 17 4 5 7 -8
16 -23 22 -32z m962 24 c13 7 17 5 17 -7 0 -8 5 -15 12 -15 6 0 9 -3 6 -6 -8
-8 -118 28 -118 38 0 5 15 2 33 -6 22 -9 39 -10 50 -4z m-1562 -8 c6 -7 9 -19
6 -26 -4 -9 -6 -8 -6 3 -1 9 -16 20 -38 26 l-38 10 33 0 c17 0 37 -6 43 -13z
m-384 -16 c-3 -8 -6 -5 -6 6 -1 11 2 17 5 13 3 -3 4 -12 1 -19z m683 -5 c0
-35 -25 -139 -36 -150 -7 -7 -16 -27 -20 -45 -7 -32 -8 -32 -14 -8 -3 14 -2
43 3 65 23 101 30 125 38 125 5 0 9 7 9 15 0 8 5 15 10 15 6 0 10 -8 10 -17z
m-573 -6 c0 -8 -6 -14 -13 -14 -7 0 -10 6 -7 14 3 7 8 13 12 13 4 0 8 -6 8
-13z m298 -27 c11 -5 15 -9 8 -9 -16 -1 -5 -32 16 -48 9 -6 20 -9 25 -6 5 4 6
1 3 -5 -8 -12 2 -44 12 -37 4 2 7 -6 6 -18 -3 -25 13 -49 26 -41 5 3 6 -2 3
-10 -3 -9 -7 -16 -9 -16 -10 0 -65 101 -60 110 4 6 1 9 -6 8 -7 -2 -23 16 -36
40 -25 43 -23 47 12 32z m599 -22 c-4 -12 -2 -18 4 -14 8 5 29 -39 47 -101 5
-18 2 -23 -12 -23 -13 0 -14 3 -5 8 9 6 7 14 -8 30 -12 12 -24 22 -28 22 -4 0
-8 25 -9 55 -1 35 2 53 8 49 5 -3 7 -15 3 -26z m956 25 c-8 -3 -24 -10 -35
-15 -20 -9 -20 -9 -1 6 11 9 27 16 35 15 14 0 14 -1 1 -6z m-1483 -32 c-1 -17
-5 -27 -9 -23 -7 7 0 52 8 52 2 0 2 -13 1 -29z m-292 9 c3 -6 -1 -7 -9 -4 -18
7 -21 14 -7 14 6 0 13 -4 16 -10z m1717 -12 c2 -7 -9 -26 -24 -41 l-27 -29 17
41 c18 42 27 50 34 29z m-1992 -31 c0 -2 -12 -14 -27 -28 l-28 -24 24 28 c23
25 31 32 31 24z m1996 -13 c-3 -9 -6 -23 -7 -32 -1 -10 -4 -7 -8 8 -9 28 -5
40 11 40 5 0 7 -7 4 -16z m-3256 -27 c0 -5 -4 -5 -10 -2 -5 3 -10 14 -10 23 0
15 2 15 10 2 5 -8 10 -19 10 -23z m1663 -80 l34 -73 66 -13 c37 -7 69 -16 71
-20 6 -8 -33 -7 -56 2 -39 15 -45 14 -57 -5 -7 -11 -15 -17 -18 -14 -3 3 0 13
8 23 8 9 9 14 2 10 -6 -4 -13 -3 -15 3 -4 13 -45 1 -52 -16 -3 -9 1 -14 14
-14 10 0 21 8 23 18 3 9 4 5 4 -10 -1 -22 -5 -27 -19 -22 -10 3 -18 1 -18 -4
0 -6 -9 -8 -20 -5 -21 6 -29 -20 -10 -32 7 -4 7 -13 0 -26 -8 -14 -7 -19 2
-19 9 0 9 -3 1 -11 -6 -6 -9 -18 -6 -25 3 -9 -2 -14 -17 -14 -12 0 -18 -4 -15
-11 4 -6 14 -8 22 -5 8 3 11 1 8 -4 -9 -15 21 -12 32 3 14 18 14 57 0 57 -7 0
-6 4 3 10 12 8 12 10 -5 10 -17 0 -17 2 -5 10 11 7 19 5 28 -8 12 -15 13 -14
8 11 -2 15 0 27 5 27 6 0 7 6 3 13 -6 10 -4 10 7 0 18 -18 29 -16 29 4 0 15 1
15 13 1 11 -15 61 -33 150 -57 35 -9 37 -8 25 7 -8 11 -5 10 11 -3 36 -31 5
-31 -89 -1 -115 38 -121 37 -119 -23 1 -31 -5 -64 -19 -92 -21 -46 -21 -45 -8
-316 4 -83 -4 -98 -53 -107 -27 -5 -48 2 -110 35 -109 58 -231 148 -257 189
-12 19 -32 45 -43 58 -12 12 -21 27 -21 33 0 6 -4 8 -9 4 -5 -3 -18 6 -29 20
-36 46 -44 33 -40 -69 1 -52 6 -92 10 -90 4 3 13 -22 19 -54 12 -58 13 -59 58
-71 73 -19 231 -83 231 -93 0 -5 4 -7 9 -4 5 3 12 -1 15 -10 3 -8 10 -13 15
-10 14 9 172 -125 231 -196 46 -55 105 -163 167 -308 14 -31 14 -33 -1 -21 -9
7 -14 16 -12 20 8 13 -23 56 -40 56 -12 0 -19 8 -20 20 -3 61 -4 64 -24 60
-11 -2 -20 1 -20 7 0 5 7 8 15 4 16 -6 21 9 5 19 -5 3 -6 13 -3 22 5 12 3 14
-7 8 -10 -6 -12 -4 -7 8 6 16 5 16 -18 1 -20 -13 -22 -19 -13 -34 9 -14 8 -22
-6 -35 -21 -22 -87 -27 -83 -6 1 8 -4 16 -12 19 -8 3 -11 0 -7 -6 3 -6 -1 -15
-11 -20 -15 -9 -13 -13 12 -36 15 -14 32 -26 36 -26 5 0 9 -9 9 -20 0 -11 -5
-20 -11 -20 -6 0 -9 7 -5 15 3 10 -5 20 -23 30 -16 8 -31 21 -34 30 -4 8 -11
15 -18 15 -6 0 -9 -7 -6 -15 8 -18 -10 -30 -26 -17 -18 14 -95 11 -108 -4 -6
-8 -18 -14 -25 -14 -8 0 -14 -4 -14 -9 0 -5 -8 -12 -17 -15 -19 -6 -28 -56
-11 -56 5 0 7 -4 3 -10 -8 -12 26 -50 45 -50 8 0 24 -15 35 -33 28 -46 28 -46
7 -40 -13 3 -24 -4 -36 -22 -17 -25 -17 -27 8 -46 22 -18 64 -112 58 -133 -2
-5 9 -21 23 -36 14 -14 22 -30 18 -35 -5 -4 4 -6 19 -3 15 3 25 1 22 -3 -3 -5
0 -9 6 -9 6 0 9 -4 6 -9 -6 -9 30 -61 51 -74 8 -5 11 -12 8 -18 -4 -5 -1 -9 4
-9 6 0 11 6 12 13 0 7 3 6 6 -3 8 -19 62 -70 74 -70 5 0 8 -5 7 -11 -2 -6 13
-17 32 -24 34 -13 34 -13 7 -14 -20 -1 -42 12 -75 42 -26 24 -90 78 -144 121
-135 108 -260 227 -254 241 2 7 -1 12 -8 11 -7 0 -47 42 -89 94 -42 52 -82
102 -90 110 -142 160 -180 299 -141 514 13 69 23 95 45 121 l29 32 -7 160 -6
160 34 57 c19 32 38 66 44 77 5 10 15 19 21 19 14 0 95 87 113 123 14 26 25
31 67 28 12 -1 24 5 27 13 4 9 11 16 16 16 15 0 -7 -55 -34 -84 -23 -25 -53
-37 -40 -16 11 17 -22 11 -46 -9 -23 -18 -23 -20 -6 -38 23 -27 22 -40 -3 -18
-10 9 -26 15 -35 12 -20 -8 -20 -63 0 -71 8 -3 15 -12 15 -20 0 -21 28 -28 33
-8 3 13 7 10 16 -12 8 -20 9 -32 1 -40 -7 -7 -10 -6 -10 2 0 7 -9 12 -20 12
-13 0 -20 -7 -20 -19 0 -10 9 -21 20 -24 11 -3 20 -10 20 -16 0 -6 -8 -8 -17
-6 -10 3 0 -3 22 -14 45 -23 69 -13 42 17 -28 31 -19 70 10 41 8 -8 13 -8 17
0 4 6 0 11 -8 11 -9 0 -16 7 -16 15 0 21 16 19 34 -6 9 -13 19 -18 27 -14 9 6
7 12 -6 21 -10 8 -15 17 -11 21 3 4 15 -2 26 -13 25 -24 17 -64 -11 -57 -25 7
-33 -16 -21 -60 10 -35 10 -35 -18 -27 -15 4 -37 13 -49 20 -13 6 -25 9 -29 6
-3 -3 -1 -6 5 -6 6 0 9 -10 8 -22 -3 -27 29 -90 40 -80 5 4 5 1 0 -7 -4 -8 -2
-17 6 -21 19 -12 32 -1 18 16 -15 19 -8 25 30 28 24 2 28 -1 19 -11 -6 -7 -7
-13 -2 -13 4 0 3 -5 -4 -12 -17 -17 -15 -33 3 -18 8 7 15 19 15 26 0 8 4 14
10 14 13 0 33 77 24 93 -4 6 -4 9 1 5 12 -11 58 87 60 130 0 7 5 16 11 20 14
9 29 66 15 58 -5 -3 -4 7 2 24 6 16 15 30 19 30 8 0 28 42 32 68 1 7 9 21 18
32 9 10 25 38 36 63 19 42 19 47 4 68 -8 12 -10 19 -4 15 7 -4 27 -40 45 -79z
m-1840 40 c-8 -31 -20 -44 -46 -50 l-22 -6 21 17 c11 10 19 23 16 30 -2 6 1
12 7 12 6 0 11 7 11 16 0 8 4 13 9 10 5 -3 7 -16 4 -29z m2525 8 c-3 -15 0
-25 8 -27 9 -2 11 -8 4 -18 -5 -8 -12 -11 -16 -7 -11 10 -11 77 -1 77 5 0 7
-11 5 -25z m-1161 9 c-2 -3 -54 -6 -113 -7 -105 -2 -109 -3 -112 -24 -2 -13 2
-23 8 -23 8 0 10 -9 5 -27 -8 -32 -22 -44 -43 -35 -11 4 -13 2 -6 -9 4 -8 7
-23 6 -34 -2 -12 0 -16 5 -8 5 6 9 -12 10 -43 3 -50 1 -54 -23 -60 -14 -4 -22
-9 -16 -13 5 -3 8 -17 7 -31 -1 -21 -6 -25 -33 -24 -35 2 -39 -4 -19 -25 8
-10 8 -12 0 -7 -6 3 -14 2 -18 -4 -3 -5 3 -10 14 -10 11 0 22 4 25 9 3 4 20
11 37 15 18 3 29 9 26 12 -3 4 5 21 18 39 14 17 25 35 25 38 0 14 53 57 70 57
15 0 20 7 20 25 0 14 5 25 10 25 6 0 10 8 11 18 0 9 3 12 5 5 3 -7 -4 -34 -16
-60 -13 -29 -17 -49 -10 -51 5 -2 10 -8 10 -14 0 -6 -6 -8 -14 -5 -17 7 -40
-33 -34 -59 2 -11 10 -18 17 -16 13 3 -21 -52 -40 -63 -5 -4 -25 -30 -44 -58
-65 -97 -113 -159 -192 -250 -111 -128 -130 -147 -151 -147 -10 0 -44 -29 -77
-66 -59 -67 -135 -124 -164 -124 -14 1 -14 2 0 10 9 5 24 22 34 37 10 16 12
22 4 16 -18 -18 -34 -16 -20 1 8 10 9 16 2 21 -6 3 -9 24 -8 46 3 35 1 40 -15
35 -26 -6 -18 16 10 30 13 6 44 31 70 56 116 111 161 181 332 513 87 169 148
276 163 286 11 8 232 11 224 3z m158 -34 c-4 -12 -2 -20 4 -20 8 0 7 -6 -1
-19 -10 -16 -15 -18 -27 -8 -12 10 -14 9 -9 -4 4 -10 1 -16 -8 -16 -19 0 -18
11 6 32 11 10 22 26 25 36 4 11 9 19 11 19 3 0 2 -9 -1 -20z m1123 -51 c15
-28 42 -71 60 -95 18 -24 30 -49 26 -56 -4 -6 -3 -8 3 -5 16 10 68 -50 56 -65
-7 -9 -5 -21 4 -38 14 -25 14 -25 9 9 -4 30 -3 32 10 20 12 -13 8 -28 -35
-114 -27 -55 -54 -118 -61 -140 -7 -22 -16 -44 -21 -49 -5 -6 -9 -20 -9 -33 0
-12 -12 -35 -27 -50 -29 -29 -31 -47 -19 -123 4 -22 3 -30 -3 -21 -5 7 -13 11
-17 8 -12 -7 -9 89 4 135 5 20 6 40 2 45 -4 4 -13 62 -19 128 -12 117 -33 191
-51 180 -13 -8 -28 24 -22 47 3 14 0 17 -12 12 -18 -7 -21 -20 -5 -29 6 -4 8
-13 5 -21 -3 -8 0 -13 5 -11 6 1 13 -16 16 -38 2 -22 12 -69 23 -105 28 -99
39 -160 28 -160 -5 0 -6 -10 -3 -22 5 -18 4 -20 -4 -8 -6 8 -9 27 -6 41 3 14
1 36 -4 50 -5 13 -10 18 -10 12 -1 -7 -5 -13 -10 -13 -6 0 -8 20 -6 45 2 27 0
43 -6 39 -5 -3 -9 7 -9 23 0 63 -2 73 -10 73 -5 0 -7 6 -4 13 2 7 -2 21 -10
32 -13 18 -14 17 -9 -20 6 -47 6 -65 0 -165 -4 -59 -2 -79 10 -92 15 -17 15
-18 -3 -18 -15 0 -16 -2 -5 -9 10 -7 11 -16 4 -37 -7 -19 -7 -38 -1 -54 5 -14
7 -37 4 -52 -4 -21 -1 -28 9 -28 8 0 15 -4 15 -10 0 -5 -4 -10 -10 -10 -5 0
-10 -7 -10 -15 0 -8 7 -15 15 -15 16 0 20 -16 6 -24 -11 -7 -11 -56 1 -56 5 0
6 -4 3 -10 -3 -5 -2 -10 3 -10 6 0 13 -7 16 -16 3 -8 2 -12 -4 -9 -6 3 -10 -4
-10 -17 0 -19 2 -20 11 -8 7 11 8 4 3 -23 -5 -32 -2 -43 17 -64 21 -22 21 -24
4 -15 -42 22 -65 56 -130 192 -31 64 -49 87 -126 155 -113 99 -153 153 -224
295 -58 117 -70 164 -17 63 17 -32 36 -57 43 -55 7 2 9 -6 5 -22 -5 -20 -3
-24 9 -20 10 4 13 2 10 -8 -7 -19 12 -71 24 -64 11 7 36 -22 28 -31 -4 -3 5
-14 18 -25 14 -11 23 -23 20 -28 -3 -4 4 -6 15 -3 12 3 21 0 22 -8 0 -8 2 -19
2 -25 2 -15 36 -48 36 -34 0 6 5 8 12 4 9 -6 9 -9 0 -12 -7 -2 7 -18 30 -35
24 -16 45 -34 46 -39 2 -5 10 -4 18 3 8 7 18 9 21 5 4 -4 2 -10 -4 -14 -8 -5
-7 -11 2 -19 11 -10 13 -8 11 10 -9 62 -36 89 -50 51 -4 -9 -10 -14 -13 -10
-4 4 10 22 30 40 38 33 38 34 14 40 -21 5 -25 13 -31 62 -3 30 -3 60 0 66 12
20 16 78 5 78 -14 0 -14 47 0 56 8 4 8 9 0 17 -6 6 -11 19 -11 28 0 10 -6 20
-12 22 -8 4 -4 8 10 12 26 8 31 52 7 61 -8 4 -15 11 -15 16 0 6 7 8 15 4 8 -3
15 -1 15 5 0 5 -7 12 -15 15 -8 4 -15 17 -15 30 0 15 -6 24 -15 24 -8 0 -15
-5 -15 -12 0 -9 -3 -9 -12 0 -14 14 -19 82 -6 82 4 0 8 -4 8 -10 0 -5 4 -10
10 -10 5 0 7 7 3 16 -4 10 1 17 16 21 23 6 27 18 10 29 -8 4 -7 9 2 15 10 6
11 9 2 9 -7 0 -13 4 -13 9 0 13 39 21 46 9 4 -6 12 -1 20 13 7 13 13 18 14 10
0 -10 8 -12 30 -8 33 7 45 -4 31 -30 -6 -13 -5 -29 4 -51 8 -17 16 -57 19 -88
5 -64 12 -77 21 -42 4 14 -1 62 -9 108 -9 46 -14 85 -11 88 3 3 5 -2 5 -12 0
-9 4 -14 10 -11 6 4 7 -1 3 -11 -4 -11 -2 -15 4 -11 6 4 8 -4 6 -21 l-5 -27
16 29 c9 15 16 38 16 49 0 16 3 18 12 9 15 -15 28 -15 28 -1 0 5 -4 8 -9 5 -5
-3 -14 8 -20 24 -16 48 6 35 37 -21z m-1058 31 c0 -5 -4 -10 -10 -10 -5 0 -10
5 -10 10 0 6 5 10 10 10 6 0 10 -4 10 -10z m820 -6 c0 -2 -7 -4 -15 -4 -8 0
-15 4 -15 10 0 5 7 7 15 4 8 -4 15 -8 15 -10z m170 5 c0 -5 5 -7 10 -4 6 3 10
2 10 -4 0 -19 -16 -19 -28 0 -7 11 -8 19 -2 19 5 0 10 -5 10 -11z m-2953 -56
c-3 -10 -5 -4 -5 12 0 17 2 24 5 18 2 -7 2 -21 0 -30z m1723 28 c0 -10 -28
-41 -36 -41 -7 0 0 23 11 37 12 15 25 17 25 4z m405 -1 c3 -5 1 -10 -4 -10 -6
0 -11 5 -11 10 0 6 2 10 4 10 3 0 8 -4 11 -10z m309 -28 c27 -40 33 -58 16
-47 -11 7 -53 85 -47 85 3 0 16 -17 31 -38z m1243 -14 c-3 -8 -6 -5 -6 6 -1
11 2 17 5 13 3 -3 4 -12 1 -19z m-3643 3 c3 -5 -1 -11 -9 -14 -9 -4 -12 -1 -8
9 6 16 10 17 17 5z m2476 -11 c0 -5 -4 -10 -10 -10 -5 0 -10 5 -10 10 0 6 5
10 10 10 6 0 10 -4 10 -10z m1529 -24 c-3 -3 -11 5 -18 17 -13 21 -12 21 5 5
10 -10 16 -20 13 -22z m-4058 -13 c-12 -20 -14 -14 -5 12 4 9 9 14 11 11 3 -2
0 -13 -6 -23z m359 17 c0 -5 12 -21 26 -35 14 -14 24 -29 20 -32 -11 -11 -34
6 -50 38 -19 38 -19 39 -6 39 6 0 10 -4 10 -10z m3365 -19 c-6 -5 -25 10 -25
20 0 5 6 4 14 -3 8 -7 12 -15 11 -17z m-2339 -6 c-14 -13 -26 -29 -26 -35 0
-17 -3 -25 -17 -39 -8 -7 -17 -26 -20 -42 -3 -16 -8 -27 -12 -25 -4 3 -18 -23
-31 -57 -14 -34 -30 -68 -37 -75 -7 -7 -13 -22 -13 -33 0 -11 -4 -17 -10 -14
-5 3 -7 0 -5 -8 3 -7 -3 -22 -15 -32 -11 -10 -20 -23 -20 -28 0 -6 -8 -19 -17
-30 -10 -11 -12 -17 -5 -13 11 7 12 4 2 -13 -6 -12 -18 -25 -25 -27 -8 -3 -17
-14 -20 -24 -6 -20 -93 -108 -121 -123 -18 -10 -18 -9 -3 9 9 10 18 24 20 30
2 6 19 29 37 50 62 73 143 207 131 219 -7 7 -13 5 -20 -8 -6 -9 -15 -14 -21
-11 -6 4 -8 2 -4 -4 3 -6 2 -13 -3 -16 -5 -4 -11 -1 -14 6 -2 7 -2 3 0 -9 2
-13 -1 -23 -7 -23 -5 0 -10 -6 -10 -14 0 -19 -21 -26 -44 -14 -12 7 -16 7 -12
0 3 -6 2 -13 -4 -17 -5 -3 -10 -17 -10 -31 0 -15 -6 -24 -15 -24 -8 0 -14 -3
-13 -7 3 -15 -31 -83 -42 -83 -6 0 -9 -4 -6 -8 3 -5 -4 -19 -16 -32 -16 -17
-18 -24 -8 -30 9 -6 7 -10 -7 -14 -16 -5 -20 -14 -17 -42 1 -20 -2 -46 -7 -58
-8 -18 -9 -17 -6 9 1 22 -3 31 -17 33 -10 2 -23 -3 -28 -12 -5 -9 -14 -16 -20
-16 -6 0 -20 -7 -30 -17 -17 -15 -18 -15 -17 3 1 10 4 30 8 44 6 23 8 24 17 7
10 -17 14 -14 37 25 23 39 24 44 10 61 -13 14 -13 17 -2 17 11 0 11 2 -1 10
-9 6 -11 10 -3 10 7 0 10 7 7 15 -7 18 16 50 39 51 9 1 17 -5 17 -15 1 -20 29
27 29 49 1 13 0 13 -9 0 -5 -8 -10 -11 -10 -6 0 5 -7 3 -15 -4 -27 -22 -29 -2
-6 53 44 99 51 118 51 128 0 22 202 159 234 159 8 0 24 12 35 26 21 27 70 58
78 50 3 -2 -5 -9 -16 -16 -12 -6 -21 -17 -21 -25 0 -8 -6 -15 -12 -15 -10 0
-9 -3 1 -9 9 -6 10 -11 2 -15 -6 -4 -16 -4 -21 -1 -6 4 -10 3 -9 -2 1 -4 0
-12 -1 -18 -1 -5 -3 -28 -4 -50 -1 -30 -5 -40 -17 -39 -11 1 -16 -7 -16 -23 0
-41 20 -20 62 63 72 141 124 232 137 237 28 12 30 6 4 -18z m2658 9 c3 -8 2
-12 -4 -9 -6 3 -10 10 -10 16 0 14 7 11 14 -7z m-3974 -3 c0 -5 -8 -11 -17
-15 -10 -3 -25 -9 -33 -12 -10 -5 -9 0 4 15 19 21 46 29 46 12z m2380 -1 c8
-5 11 -10 5 -10 -5 0 -17 5 -25 10 -8 5 -10 10 -5 10 6 0 17 -5 25 -10z m-843
-16 c-3 -3 -12 -4 -19 -1 -8 3 -5 6 6 6 11 1 17 -2 13 -5z m923 2 c0 -3 -4 -8
-10 -11 -5 -3 -10 -1 -10 4 0 6 5 11 10 11 6 0 10 -2 10 -4z m880 -4 c0 -4 -9
-13 -20 -20 -19 -12 -20 -11 -8 8 13 20 28 27 28 12z m-3350 -12 c0 -12 -42
-51 -48 -45 -5 5 37 55 45 55 2 0 3 -4 3 -10z m1490 0 c0 -5 -2 -10 -4 -10 -3
0 -8 5 -11 10 -3 6 -1 10 4 10 6 0 11 -4 11 -10z m2136 -51 c-15 -34 -15 -34
-9 -4 7 35 13 48 20 42 2 -3 -3 -20 -11 -38z m-3331 14 c14 6 16 0 13 -40 -4
-56 -19 -65 -38 -21 -16 34 -15 93 0 68 4 -7 15 -10 25 -7z m3006 -20 c-12
-20 -14 -14 -5 12 4 9 9 14 11 11 3 -2 0 -13 -6 -23z m-3399 -49 l-10 -49 0
58 c1 35 4 55 10 49 5 -5 5 -28 0 -58z m3412 -19 c-21 -41 -42 -75 -47 -75 -4
0 -5 -6 -1 -12 5 -10 3 -10 -7 0 -10 9 -11 15 -2 20 6 4 15 19 18 35 4 15 11
25 15 22 5 -3 19 17 32 44 12 28 24 48 27 46 2 -3 -14 -38 -35 -80z m-3465 40
c7 -26 6 -42 -3 -60 -12 -23 -13 -20 -12 35 1 33 2 60 3 60 1 0 6 -16 12 -35z
m2001 5 c0 -5 -7 -10 -15 -10 -8 0 -15 5 -15 10 0 6 7 10 15 10 8 0 15 -4 15
-10z m1429 -27 c-6 -15 -17 -41 -24 -58 -8 -16 -13 -38 -12 -48 1 -11 -9 -26
-23 -35 -24 -16 -25 -16 -10 3 15 19 14 19 -10 4 -14 -9 -26 -22 -26 -28 -1
-6 -2 -14 -3 -18 0 -4 -8 2 -17 13 -14 18 -15 18 -4 -4 14 -28 4 -66 -16 -58
-8 3 -14 1 -14 -4 0 -6 5 -10 10 -10 6 0 10 -5 10 -10 0 -6 -12 -9 -27 -8 -23
2 -28 -1 -29 -20 -1 -26 -11 -39 -21 -28 -14 14 72 220 99 237 5 3 9 9 9 13
-3 24 0 28 17 14 36 -31 41 -30 67 22 27 54 41 67 24 23z m-1369 2 c0 -8 -4
-15 -10 -15 -5 0 -10 7 -10 15 0 8 5 15 10 15 6 0 10 -7 10 -15z m544 -7 c-2
-7 -20 -23 -39 -36 -32 -20 -34 -21 -23 -3 6 11 15 18 20 15 4 -3 13 4 20 16
14 22 30 28 22 8z m1581 -4 c-16 -8 -34 -22 -38 -30 -4 -8 -12 -14 -18 -14
-14 0 13 38 36 49 33 16 52 12 20 -5z m-433 -16 c-7 -7 -12 -8 -12 -2 0 14 12
26 19 19 2 -3 -1 -11 -7 -17z m-3634 -20 c-2 -5 -8 -9 -13 -9 -5 0 -11 4 -13
9 -1 5 4 9 13 9 9 0 14 -4 13 -9z m1205 -3 c-3 -9 -8 -14 -10 -11 -3 3 -2 9 2
15 9 16 15 13 8 -4z m1565 -10 c3 -11 0 -15 -7 -10 -6 3 -9 10 -6 15 3 4 0 11
-5 13 -6 3 -5 4 2 3 7 -1 15 -11 16 -21z m859 -67 c-2 -18 -4 -6 -4 27 0 33 2
48 4 33 2 -15 2 -42 0 -60z m-3797 60 c0 -7 3 -31 7 -53 3 -22 2 -37 -2 -33
-12 11 -23 98 -13 98 4 0 8 -6 8 -12z m66 -50 c-2 -10 0 -18 6 -18 24 0 -14
-155 -40 -165 -11 -4 -12 -2 -4 7 5 7 10 24 11 38 1 46 4 60 15 60 7 0 8 3 1
8 -6 4 -9 35 -6 72 3 54 5 61 13 40 5 -14 7 -33 4 -42z m46 15 c-5 -59 -10
-63 -11 -10 -1 26 3 47 7 47 4 0 6 -17 4 -37z m39 20 c0 -5 2 -18 3 -30 1 -12
-1 -28 -6 -35 -6 -9 -8 -3 -6 17 1 17 -1 36 -5 43 -5 6 -4 12 2 12 6 0 11 -3
12 -7z m167 -32 c1 -22 -3 -43 -8 -46 -11 -7 -14 44 -4 69 9 23 11 20 12 -23z
m4477 -2 c10 -15 -1 -23 -20 -15 -9 3 -13 10 -10 16 8 13 22 13 30 -1z m-2648
-5 c-3 -3 -12 -4 -19 -1 -8 3 -5 6 6 6 11 1 17 -2 13 -5z m2168 -3 c3 -5 1
-12 -5 -16 -5 -3 -10 1 -10 9 0 18 6 21 15 7z m-2230 -11 c-3 -5 -11 -10 -16
-10 -6 0 -7 5 -4 10 3 6 11 10 16 10 6 0 7 -4 4 -10z m577 -32 c-6 -6 -7 0 -4
19 5 21 7 23 10 9 2 -10 0 -22 -6 -28z m1468 2 c-6 -11 -13 -20 -16 -20 -2 0
0 9 6 20 6 11 13 20 16 20 2 0 0 -9 -6 -20z m-3975 -20 c-3 -11 -2 -20 3 -20
6 0 8 -10 5 -21 -5 -19 -7 -20 -15 -4 -9 16 -3 65 8 65 3 0 2 -9 -1 -20z
m3556 -44 c-3 -90 -42 -176 -79 -176 -11 0 -8 6 8 20 13 11 20 23 17 26 -3 4
0 22 8 41 8 19 13 39 10 44 -3 4 1 24 9 44 9 20 11 33 6 30 -5 -3 -11 -1 -15
5 -3 5 1 10 9 10 9 0 16 5 16 12 0 6 3 8 7 5 3 -4 5 -31 4 -61z m86 -28 c-1
-65 -6 -96 -16 -104 -11 -8 -11 -15 -1 -33 6 -12 9 -29 6 -37 -3 -8 -1 -14 5
-14 6 0 8 -7 5 -16 -4 -11 -2 -15 6 -11 9 3 14 -6 15 -25 1 -17 10 -36 19 -43
12 -9 14 -14 5 -19 -18 -12 -41 13 -41 45 0 22 -5 29 -19 29 -24 0 -35 41 -27
102 7 54 39 218 42 218 2 0 2 -42 1 -92z m1053 77 c0 -8 -4 -15 -10 -15 -5 0
-10 7 -10 15 0 8 5 15 10 15 6 0 10 -7 10 -15z m-4830 -4 c0 -6 -4 -12 -8 -15
-5 -3 -9 1 -9 9 0 8 4 15 9 15 4 0 8 -4 8 -9z m1025 -54 c-13 -32 -30 -57 -37
-58 -10 0 -10 -2 -1 -6 8 -3 9 -10 3 -21 -5 -9 -16 -35 -25 -56 -8 -22 -18
-37 -21 -33 -3 3 1 18 10 35 8 16 12 33 8 36 -3 4 -17 -23 -29 -60 -15 -43
-19 -70 -13 -74 6 -4 -1 -16 -15 -28 -14 -12 -25 -17 -25 -10 0 19 52 182 60
188 4 3 28 38 55 78 26 40 49 71 51 69 2 -2 -7 -29 -21 -60z m1057 41 c-7 -7
-12 -8 -12 -2 0 14 12 26 19 19 2 -3 -1 -11 -7 -17z m1555 -4 c-3 -3 -12 -4
-19 -1 -8 3 -5 6 6 6 11 1 17 -2 13 -5z m-2667 -44 c-16 -40 -23 -33 -9 9 6
18 14 30 17 27 2 -3 -1 -19 -8 -36z m1079 26 c9 -11 8 -15 -5 -20 -29 -11 -44
-6 -44 14 0 23 31 27 49 6z m1538 8 c-3 -3 -12 -4 -19 -1 -8 3 -5 6 6 6 11 1
17 -2 13 -5z m700 -26 c-3 -8 -6 -5 -6 6 -1 11 2 17 5 13 3 -3 4 -12 1 -19z
m-814 1 c-38 -11 -45 -22 -9 -13 13 3 27 1 30 -5 4 -7 0 -10 -11 -9 -46 4 -53
-1 -43 -28 13 -33 13 -74 0 -74 -5 0 -10 6 -10 13 0 8 -3 7 -9 -3 -13 -19 -4
-31 16 -23 12 5 15 2 10 -11 -5 -12 1 -19 21 -26 15 -6 35 -15 45 -20 12 -7
24 -7 40 1 22 12 22 11 4 -8 -23 -26 -163 -73 -217 -73 -22 0 -40 -3 -40 -7 0
-4 14 -22 31 -39 30 -31 33 -40 41 -131 4 -54 8 -197 8 -318 1 -121 2 -238 3
-260 2 -33 -1 -40 -18 -43 -17 -3 -17 -1 -5 7 13 9 13 12 1 20 -7 5 -11 13 -8
17 3 5 -2 25 -11 44 -8 19 -16 37 -17 40 -1 3 -5 12 -8 20 -9 20 -56 176 -67
220 -22 92 -27 131 -18 136 5 4 7 17 3 31 -4 16 -2 22 4 18 7 -3 8 0 5 9 -3 9
-10 16 -15 16 -9 0 8 46 27 70 19 24 27 71 40 210 2 25 12 72 22 105 18 57 20
59 30 35 6 -14 11 -19 11 -12 1 6 7 12 15 12 23 0 40 28 27 43 -6 8 -7 17 -3
21 4 4 -5 2 -20 -5 -16 -7 -28 -16 -28 -21 0 -5 -4 -6 -10 -3 -6 4 -5 13 2 25
12 18 42 25 133 27 l30 1 -32 -9z m-3486 -66 c-3 -10 -5 -2 -5 17 0 19 2 27 5
18 2 -10 2 -26 0 -35z m238 28 c-3 -6 -11 -11 -17 -11 -6 0 -6 6 2 15 14 17
26 13 15 -4z m3824 -8 c-7 -10 -14 -19 -15 -21 -1 -2 -4 4 -8 13 -3 9 -2 13 3
10 5 -3 12 -1 16 5 3 5 9 10 12 10 3 0 -1 -8 -8 -17z m-3741 -45 c2 -26 -1
-49 -6 -52 -5 -3 -8 6 -6 20 1 14 -2 39 -6 55 -7 22 -6 29 3 26 7 -2 13 -24
15 -49z m2452 16 c0 -8 -19 -13 -24 -6 -3 5 1 9 9 9 8 0 15 -2 15 -3z m330 -4
c0 -5 -5 -10 -11 -10 -5 0 -7 5 -4 10 3 6 8 10 11 10 2 0 4 -4 4 -10z m1187
-22 c-3 -7 -5 -2 -5 12 0 14 2 19 5 13 2 -7 2 -19 0 -25z m125 -33 c-4 -5 -8
-2 -10 8 -2 9 -7 17 -12 17 -4 0 -10 10 -13 22 -5 19 -3 18 17 -7 13 -17 21
-34 18 -40z m-1151 31 c5 3 9 0 9 -6 0 -7 -7 -9 -16 -6 -9 3 -18 6 -20 6 -3 0
-2 5 2 12 6 9 9 9 12 0 2 -7 8 -10 13 -6z m761 -18 c-7 -7 -12 -21 -13 -32 0
-13 -3 -16 -6 -8 -6 15 17 65 26 57 2 -3 -1 -11 -7 -17z m-777 -7 c3 -5 1 -12
-5 -16 -5 -3 -10 1 -10 9 0 18 6 21 15 7z m545 -11 c0 -5 -4 -10 -10 -10 -5 0
-10 5 -10 10 0 6 5 10 10 10 6 0 10 -4 10 -10z m-3527 -34 c11 -3 18 -8 15
-11 -11 -11 -48 15 -47 33 1 15 2 15 6 1 2 -10 14 -19 26 -23z m4032 14 c10
-11 13 -20 7 -20 -6 0 -16 9 -22 20 -6 11 -9 20 -7 20 2 0 12 -9 22 -20z m103
-5 c-3 -3 -9 2 -12 12 -6 14 -5 15 5 6 7 -7 10 -15 7 -18z m-1168 -20 c-7 -9
-15 -13 -17 -11 -7 7 7 26 19 26 6 0 6 -6 -2 -15z m1136 0 c-24 -18 -33 -19
-42 -3 -5 8 -2 9 9 5 9 -3 19 -2 22 3 4 6 12 10 18 10 7 0 3 -7 -7 -15z m74
-29 c0 -27 -10 -14 -16 20 -3 22 -2 25 6 14 5 -8 10 -24 10 -34z m-450 19 c0
-8 -4 -15 -10 -15 -5 0 -7 7 -4 15 4 8 8 15 10 15 2 0 4 -7 4 -15z m-813 -17
c-3 -8 -6 -5 -6 6 -1 11 2 17 5 13 3 -3 4 -12 1 -19z m-2227 -3 c0 -8 -4 -15
-10 -15 -5 0 -7 7 -4 15 4 8 8 15 10 15 2 0 4 -7 4 -15z m1997 9 c-3 -3 -12
-4 -19 -1 -8 3 -5 6 6 6 11 1 17 -2 13 -5z m-2630 -28 c7 -6 25 -36 40 -66 27
-53 27 -55 7 -46 -12 6 -20 16 -17 22 2 7 -9 15 -26 19 -17 4 -28 11 -25 16 3
6 12 8 20 5 26 -10 14 15 -16 32 -38 22 -50 46 -17 37 12 -4 27 -12 34 -19z
m2909 13 c4 -8 9 -7 16 2 7 11 8 9 5 -6 -2 -11 -9 -19 -15 -17 -7 1 -12 -2
-12 -8 0 -5 5 -10 11 -10 8 0 8 -4 -1 -15 -6 -8 -9 -18 -6 -23 3 -5 1 -24 -4
-43 -9 -31 -8 -32 5 -15 8 11 15 24 15 30 0 7 3 7 10 0 7 -7 7 -21 -1 -42 -6
-18 -9 -39 -5 -47 3 -8 1 -17 -5 -20 -5 -4 -7 -11 -4 -16 4 -5 3 -9 -2 -9 -4
0 -10 -19 -12 -43 -8 -80 -2 -483 7 -457 10 28 19 3 17 -45 -1 -30 1 -55 4
-55 3 0 14 -11 23 -24 16 -23 16 -23 -10 -20 -44 5 -60 35 -66 126 -14 186
-11 454 5 526 7 34 -2 69 -23 83 -5 3 -4 29 3 60 6 30 13 64 15 77 5 24 19 29
30 11z m731 -36 c-13 -20 -30 -38 -38 -41 -11 -3 -11 -1 1 10 8 7 23 25 33 41
10 15 20 27 22 27 3 0 -5 -17 -18 -37z m490 -5 c-3 -8 -6 -5 -6 6 -1 11 2 17
5 13 3 -3 4 -12 1 -19z m-3478 -7 c-8 -3 -14 -12 -15 -18 -4 -49 -4 -49 -14
-31 -14 23 7 68 28 60 13 -5 13 -6 1 -11z m2295 -37 c3 -8 2 -12 -4 -9 -6 3
-10 10 -10 16 0 14 7 11 14 -7z m630 -25 c-9 -11 -20 -16 -23 -13 -3 4 0 9 7
11 6 3 12 11 12 19 0 9 5 12 11 9 7 -5 4 -14 -7 -26z m563 -6 c-3 -10 -5 -4
-5 12 0 17 2 24 5 18 2 -7 2 -21 0 -30z m-1320 -15 c-3 -8 -6 -5 -6 6 -1 11 2
17 5 13 3 -3 4 -12 1 -19z m-2261 -5 c-3 -10 -10 -38 -16 -62 -6 -23 -14 -41
-16 -38 -6 6 25 117 32 117 3 0 3 -8 0 -17z m-949 -25 c-3 -7 -5 -2 -5 12 0
14 2 19 5 13 2 -7 2 -19 0 -25z m4540 -35 c-3 -10 -5 -2 -5 17 0 19 2 27 5 18
2 -10 2 -26 0 -35z m53 -67 c10 -4 9 -5 -4 -3 -10 1 -25 13 -34 27 l-14 25 18
-21 c11 -12 26 -24 34 -28z m201 -19 c-13 -13 -31 0 -24 19 4 11 8 12 20 3 9
-8 10 -16 4 -22z m-53 -11 c3 -12 -1 -17 -10 -14 -7 3 -15 13 -16 22 -3 12 1
17 10 14 7 -3 15 -13 16 -22z m-20 -49 c20 -22 21 -26 9 -68 l-13 -44 -17 49
c-29 83 -20 107 21 63z m-2218 -182 c0 -8 -4 -15 -10 -15 -5 0 -10 7 -10 15 0
8 5 15 10 15 6 0 10 -7 10 -15z m62 1 c6 4 8 3 5 -3 -4 -6 0 -19 8 -29 13 -17
16 -17 26 -4 9 13 10 13 6 0 -2 -8 3 -20 11 -26 11 -8 12 -13 4 -18 -7 -4 -12
-2 -12 5 0 7 -10 3 -24 -10 l-23 -22 4 25 c5 23 2 26 -21 26 -14 0 -26 5 -26
10 0 6 4 10 9 10 5 0 12 7 15 16 5 14 4 15 -9 4 -18 -15 -20 -5 -2 14 6 8 14
10 15 5 2 -5 9 -6 14 -3z m-252 -10 c0 -9 -30 -14 -35 -6 -4 6 3 10 14 10 12
0 21 -2 21 -4z m75 -14 c-3 -3 -11 0 -18 7 -9 10 -8 11 6 5 10 -3 15 -9 12
-12z m-45 -16 c0 -8 -5 -18 -11 -22 -14 -8 -33 11 -25 25 10 16 36 13 36 -3z
m-160 -26 c0 -5 -4 -10 -9 -10 -6 0 -13 5 -16 10 -3 6 1 10 9 10 9 0 16 -4 16
-10z m265 -9 c-16 -14 -55 -23 -55 -12 0 5 12 12 28 14 15 2 29 5 32 6 2 0 0
-3 -5 -8z m95 0 c0 -12 -39 -25 -47 -17 -4 3 1 6 10 6 10 0 17 5 17 10 0 6 5
10 10 10 6 0 10 -4 10 -9z m-189 -33 c22 -24 21 -21 13 -42 -3 -9 -13 -16 -21
-16 -12 0 -11 -3 3 -17 12 -12 13 -18 4 -21 -7 -3 -16 2 -21 9 -16 25 -10 47
14 52 19 4 18 4 -6 6 -31 1 -48 28 -26 42 19 12 19 12 40 -13z m78 -32 c9 -16
19 -22 32 -19 10 3 19 0 19 -6 0 -15 -52 -14 -74 2 -11 8 -15 19 -10 30 9 23
18 21 33 -7z m101 2 c0 -12 -1 -19 -3 -17 -1 2 -9 12 -16 22 -12 14 -11 17 3
17 10 0 16 -8 16 -22z m155 -37 c5 -23 3 -36 -6 -41 -10 -7 -10 -16 1 -49 18
-57 32 -65 103 -63 60 2 99 -9 84 -24 -3 -4 -14 -1 -22 6 -13 11 -20 11 -39 0
-13 -6 -33 -9 -44 -6 -23 8 -48 -25 -38 -50 3 -8 -1 -14 -9 -14 -18 0 -20 36
-2 43 6 3 3 6 -8 6 -33 1 -45 19 -32 48 9 19 8 26 -4 34 -21 13 -32 11 -26 -6
8 -20 -3 -25 -43 -15 -26 6 -29 8 -11 9 20 1 21 3 11 16 -11 13 -8 15 14 15
14 0 26 5 26 11 0 5 4 8 8 5 4 -2 8 4 8 15 0 23 -5 24 -21 2 -7 -9 -18 -17
-26 -19 -8 -1 -27 -5 -44 -9 -28 -7 -29 -6 -10 8 10 8 24 13 31 10 20 -8 25
29 7 50 -16 18 -16 20 -1 14 9 -3 19 -1 22 6 2 7 3 -8 1 -32 l-3 -44 22 28
c13 15 28 25 33 22 7 -5 9 0 6 13 -4 15 -9 18 -18 10 -10 -8 -15 -7 -21 2 -4
7 -4 10 1 6 4 -4 14 -3 22 3 15 13 18 33 3 24 -6 -4 -7 1 -3 11 8 20 17 5 28
-45z m-69 36 c8 3 14 0 14 -7 0 -15 -33 -9 -36 8 -1 7 0 8 2 3 3 -6 12 -7 20
-4z m-2412 -12 c3 -9 18 -15 36 -15 34 0 62 -16 131 -72 25 -21 51 -38 57 -38
18 0 15 -81 -4 -120 -10 -18 -43 -59 -75 -91 -33 -33 -59 -65 -59 -71 0 -20
49 -119 75 -153 12 -17 50 -48 83 -68 50 -31 74 -39 129 -43 81 -7 83 -8 83
-40 0 -48 -41 -100 -113 -145 -69 -42 -70 -42 -166 -43 -53 0 -112 2 -131 6
-22 5 -37 3 -43 -5 -5 -7 -6 54 -2 138 10 255 8 551 -4 573 -14 25 -14 43 -1
22 18 -28 11 15 -13 82 -12 35 -21 71 -19 81 4 21 28 23 36 2z m2316 -35 c0
-5 -2 -10 -4 -10 -3 0 -8 5 -11 10 -3 6 -1 10 4 10 6 0 11 -4 11 -10z m30 -6
c0 -8 -5 -12 -10 -9 -6 4 -8 11 -5 16 9 14 15 11 15 -7z m-90 -34 c0 -12 -8
-12 -35 0 -18 8 -17 9 8 9 15 1 27 -3 27 -9z m660 -52 c36 -19 77 -39 93 -42
26 -6 27 -7 11 -31 -9 -13 -12 -30 -8 -37 5 -10 4 -10 -5 -2 -10 9 -10 17 -2
33 7 12 9 21 6 21 -12 0 -20 -6 -17 -13 1 -5 -2 -5 -8 -2 -7 4 -10 0 -8 -10 2
-10 -3 -20 -10 -22 -7 -3 -10 1 -6 10 3 8 0 18 -7 23 -7 4 -10 3 -5 -4 3 -6
-11 -3 -33 6 -32 14 -36 18 -23 28 11 8 12 15 4 30 -6 10 -12 15 -12 10 0 -5
-8 -2 -18 7 -24 22 -82 34 -82 18 0 -7 -4 -10 -9 -6 -9 5 -27 -32 -23 -48 1
-5 -2 -6 -8 -2 -15 9 -12 20 15 49 33 36 69 32 155 -16z m-853 5 c14 -16 32
-43 39 -60 8 -18 18 -33 22 -33 11 0 37 43 34 57 -1 6 10 13 25 15 25 3 26 4
10 19 -9 9 -13 19 -10 23 10 10 45 7 38 -4 -3 -5 1 -10 10 -10 8 0 33 -11 55
-25 21 -14 46 -22 55 -19 8 4 15 1 15 -6 0 -17 -69 -4 -93 17 -9 9 -20 14 -23
10 -9 -9 5 -27 30 -38 19 -9 18 -9 -6 -6 -16 3 -29 -1 -32 -9 -3 -8 0 -11 10
-7 18 7 19 -21 0 -36 -11 -9 -20 -9 -35 -2 -16 9 -62 9 -91 1 -3 -1 13 -7 35
-15 22 -7 34 -13 27 -14 -7 -1 -10 -6 -6 -12 7 -12 -15 -59 -28 -59 -4 0 -8 9
-8 21 0 21 -22 49 -38 49 -6 0 -13 19 -17 42 -5 26 -21 59 -42 85 -27 33 -31
43 -19 43 9 0 29 -12 43 -27z m283 -13 c0 -5 -7 -10 -15 -10 -8 0 -15 5 -15
10 0 6 7 10 15 10 8 0 15 -4 15 -10z m380 -24 c0 -2 -7 -7 -16 -10 -8 -3 -12
-2 -9 4 6 10 25 14 25 6z m-390 -30 c0 -3 -4 -8 -10 -11 -5 -3 -10 -1 -10 4 0
6 5 11 10 11 6 0 10 -2 10 -4z m60 -16 c0 -5 -2 -10 -4 -10 -3 0 -8 5 -11 10
-3 6 -1 10 4 10 6 0 11 -4 11 -10z m877 -12 c-3 -8 -6 -5 -6 6 -1 11 2 17 5
13 3 -3 4 -12 1 -19z m-957 -24 c0 -8 -5 -12 -10 -9 -6 4 -8 11 -5 16 9 14 15
11 15 -7z m680 -14 c0 -5 -5 -10 -11 -10 -5 0 -7 5 -4 10 3 6 8 10 11 10 2 0
4 -4 4 -10z m-765 -10 c-3 -5 -14 -10 -23 -9 -14 0 -13 2 3 9 27 11 27 11 20
0z m62 -6 c-3 -3 -12 -4 -19 -1 -8 3 -5 6 6 6 11 1 17 -2 13 -5z m196 -46
c-10 -18 -20 -6 -15 19 5 24 6 25 12 8 4 -11 6 -23 3 -27z m30 25 c-5 -14 -1
-15 33 -10 21 4 40 11 42 17 2 5 20 10 40 10 24 0 32 -3 24 -9 -11 -7 -10 -10
3 -15 27 -10 57 -7 49 5 -3 6 5 4 18 -5 14 -9 28 -14 31 -11 4 3 5 2 3 -1 -3
-3 9 -24 25 -47 16 -22 27 -42 24 -45 -3 -3 -6 -3 -8 -1 -1 2 -16 23 -31 47
-21 30 -34 41 -46 37 -10 -3 -30 -1 -46 5 -20 8 -41 8 -75 -1 -45 -12 -47 -14
-42 -43 8 -50 -40 -82 -91 -61 -14 6 -17 5 -12 -3 4 -7 3 -12 -3 -12 -16 0
-22 18 -9 23 10 4 9 8 -2 16 -11 8 -6 9 23 6 22 -3 37 -1 37 6 0 5 -5 7 -11 3
-8 -4 -9 1 -4 16 6 17 4 21 -6 15 -8 -5 -6 1 4 13 12 13 16 28 12 41 -4 15 -2
21 9 21 10 0 13 -6 9 -17z m574 -35 c-3 -8 -6 -5 -6 6 -1 11 2 17 5 13 3 -3 4
-12 1 -19z m-879 -21 c2 -10 -3 -17 -12 -17 -10 0 -16 9 -16 21 0 24 23 21 28
-4z m896 -38 c4 -22 4 -45 0 -50 -3 -5 0 -8 8 -7 9 2 12 -7 10 -29 -2 -20 1
-33 8 -33 7 0 9 9 5 23 -6 21 -5 21 9 3 12 -14 12 -22 3 -37 -6 -10 -15 -19
-19 -19 -16 0 -30 45 -37 116 -7 78 2 102 13 33z m-647 25 c-3 -3 -12 -4 -19
-1 -8 3 -5 6 6 6 11 1 17 -2 13 -5z m-2600 -56 c-3 -8 -6 -5 -6 6 -1 11 2 17
5 13 3 -3 4 -12 1 -19z m3210 -10 c-3 -8 -6 -5 -6 6 -1 11 2 17 5 13 3 -3 4
-12 1 -19z m-604 -93 l5 -50 -13 40 c-16 47 -19 83 -6 70 4 -6 11 -32 14 -60z
m834 -32 c-3 -10 -5 -4 -5 12 0 17 2 24 5 18 2 -7 2 -21 0 -30z m-817 -43 c0
-11 -2 -20 -4 -20 -2 0 -6 9 -9 20 -3 11 -1 20 4 20 5 0 9 -9 9 -20z m-71 -44
c-1 -17 -2 -16 -9 6 -4 14 -11 32 -15 40 -3 7 1 4 9 -6 9 -11 16 -29 15 -40z
m878 -13 c-3 -10 -5 -2 -5 17 0 19 2 27 5 18 2 -10 2 -26 0 -35z m-862 -23 c3
-5 1 -10 -4 -10 -6 0 -11 5 -11 10 0 6 2 10 4 10 3 0 8 -4 11 -10z m910 -82
c-6 -4 -1 -8 10 -9 11 0 14 -3 8 -6 -18 -6 -16 -23 1 -23 8 0 17 -13 21 -30 4
-17 13 -30 21 -30 9 0 13 -4 10 -9 -4 -5 -2 -11 3 -13 13 -4 22 -58 10 -58 -5
0 -9 7 -9 16 0 11 -5 14 -16 10 -19 -7 -64 39 -64 66 0 10 -8 35 -19 56 -10
20 -22 52 -26 71 l-7 34 33 -34 c20 -20 30 -37 24 -41z m-331 47 c3 -8 1 -15
-4 -15 -6 0 -10 7 -10 15 0 8 2 15 4 15 2 0 6 -7 10 -15z m-549 -5 c-3 -5 -12
-10 -18 -10 -7 0 -6 4 3 10 19 12 23 12 15 0z m883 -15 c-3 -3 -9 2 -12 12 -6
14 -5 15 5 6 7 -7 10 -15 7 -18z"/>
<path d="M5116 2274 c-3 -9 -6 -17 -6 -19 0 -2 16 2 35 7 37 12 38 28 0 28
-12 0 -26 -7 -29 -16z"/>
<path d="M5530 2136 c-8 -11 -9 -20 -1 -33 11 -17 11 -17 9 2 -1 11 1 26 5 33
11 17 2 15 -13 -2z"/>
<path d="M5020 2129 c0 -5 -4 -7 -10 -4 -5 3 -10 2 -10 -4 0 -5 -3 -17 -7 -27
-4 -12 -3 -15 5 -10 8 5 10 2 6 -8 -4 -10 -1 -16 8 -16 9 0 14 13 15 40 1 22
0 40 -3 40 -2 0 -4 -5 -4 -11z"/>
<path d="M5440 2055 c0 -8 -9 -23 -20 -32 -11 -10 -20 -23 -20 -29 0 -6 -7
-17 -15 -24 -8 -7 -12 -16 -9 -22 3 -5 0 -16 -8 -25 -11 -14 -11 -16 2 -11 8
2 17 15 20 29 3 13 11 25 18 25 7 1 16 2 21 3 5 0 11 7 14 15 4 10 0 12 -16 8
-19 -5 -19 -3 6 22 27 27 36 56 17 56 -5 0 -10 -7 -10 -15z"/>
<path d="M5490 2040 c0 -5 6 -10 14 -10 8 0 18 5 21 10 3 6 -3 10 -14 10 -12
0 -21 -4 -21 -10z"/>
<path d="M5037 2007 c-3 -8 1 -14 8 -14 7 0 11 6 8 14 -3 7 -6 13 -8 13 -2 0
-5 -6 -8 -13z"/>
<path d="M5477 2000 c-15 -18 -15 -20 1 -29 14 -9 12 -11 -13 -11 -16 -1 -24
-4 -17 -7 16 -6 15 -38 -2 -52 -7 -6 -21 -9 -30 -5 -11 4 -16 1 -16 -10 0 -9
5 -16 10 -16 6 0 10 -4 10 -10 0 -16 -28 -11 -38 6 -6 11 -11 13 -16 5 -4 -6
-2 -11 3 -11 6 0 11 -7 11 -15 0 -12 7 -14 27 -9 26 7 26 6 -11 -30 -20 -21
-40 -35 -43 -32 -4 3 -17 -1 -30 -9 -17 -12 -28 -13 -43 -5 -16 8 -18 8 -14
-5 3 -8 10 -12 16 -9 5 3 12 -4 15 -15 4 -17 8 -19 19 -10 7 6 18 8 24 4 5 -3
10 -2 10 4 0 5 -10 12 -22 14 -20 5 -20 5 2 4 15 -1 25 -8 25 -17 0 -9 -8 -14
-20 -13 -18 2 -18 1 3 -9 12 -6 22 -15 22 -19 0 -5 7 -6 15 -3 8 4 15 2 15 -4
0 -6 10 -8 22 -4 15 4 19 2 13 -7 -6 -10 -3 -11 14 -2 18 10 19 14 8 31 -6 11
-17 20 -23 20 -20 0 -28 53 -10 66 9 6 16 17 16 25 0 10 3 10 12 1 19 -19 29
-14 22 13 -9 36 12 31 25 -7 6 -17 14 -29 17 -25 10 9 7 208 -3 218 -5 5 -16
0 -26 -11z m23 -100 c0 -5 -5 -10 -11 -10 -5 0 -7 5 -4 10 3 6 8 10 11 10 2 0
4 -4 4 -10z"/>
<path d="M5338 1843 c7 -3 16 -2 19 1 4 3 -2 6 -13 5 -11 0 -14 -3 -6 -6z"/>
<path d="M4920 1832 c0 -5 9 -17 20 -27 23 -21 27 -4 4 19 -17 18 -24 20 -24
8z"/>
<path d="M5277 1803 c-3 -5 -2 -15 2 -22 7 -10 10 -10 16 -1 4 6 3 16 -3 22
-5 5 -12 6 -15 1z"/>
<path d="M5440 1780 c0 -5 7 -10 16 -10 8 0 12 5 9 10 -3 6 -10 10 -16 10 -5
0 -9 -4 -9 -10z"/>
<path d="M5455 1750 c3 -5 8 -10 11 -10 2 0 4 5 4 10 0 6 -5 10 -11 10 -5 0
-7 -4 -4 -10z"/>
<path d="M5489 1735 c-1 -8 -2 -20 -3 -26 -1 -7 9 -15 22 -20 16 -6 22 -5 22
6 0 8 -7 15 -16 15 -11 0 -15 6 -11 20 3 11 1 20 -4 20 -5 0 -10 -7 -10 -15z"/>
<path d="M5508 1663 c7 -3 16 -2 19 1 4 3 -2 6 -13 5 -11 0 -14 -3 -6 -6z"/>
<path d="M5066 1652 c-4 -7 -12 -10 -17 -7 -5 4 -9 1 -9 -4 0 -6 3 -11 8 -12
4 0 14 -2 23 -4 9 -1 23 1 30 6 11 7 11 9 -3 9 -9 0 -18 5 -20 12 -3 9 -6 9
-12 0z"/>
<path d="M5030 1598 c0 -11 28 -10 35 1 3 6 -4 9 -15 8 -11 -1 -20 -5 -20 -9z"/>
<path d="M5286 1555 c-3 -10 -2 -13 5 -10 5 4 21 -1 35 -10 30 -19 44 -13 21
9 -8 8 -17 12 -21 9 -3 -3 -12 -1 -20 6 -11 9 -15 8 -20 -4z"/>
<path d="M5370 1510 c0 -19 3 -21 12 -12 9 9 9 15 0 24 -9 9 -12 7 -12 -12z"/>
<path d="M5385 1470 c3 -5 11 -10 16 -10 6 0 7 5 4 10 -3 6 -11 10 -16 10 -6
0 -7 -4 -4 -10z"/>
<path d="M5545 1330 c21 -24 26 -25 19 -6 -3 8 -13 17 -22 21 -13 5 -13 2 3
-15z"/>
<path d="M5186 1322 c-3 -6 -1 -14 5 -17 14 -9 20 -2 10 14 -6 8 -11 9 -15 3z"/>
<path d="M5320 1310 c0 -5 6 -10 14 -10 8 0 18 5 21 10 3 6 -3 10 -14 10 -12
0 -21 -4 -21 -10z"/>
<path d="M5163 1283 c-24 -8 -13 -25 12 -21 14 3 25 1 25 -4 0 -6 7 -7 15 -4
9 3 18 -1 21 -9 4 -8 15 -15 25 -15 10 0 19 -5 19 -11 0 -5 5 -7 10 -4 6 4 -3
20 -22 38 -31 30 -71 41 -105 30z"/>
<path d="M5100 1202 c-5 -2 -10 -8 -10 -14 0 -7 5 -6 14 1 8 7 15 8 18 2 2 -6
11 -4 21 4 17 12 16 13 -7 11 -14 0 -30 -2 -36 -4z"/>
<path d="M5175 1185 c-33 -27 -32 -32 10 -37 25 -2 31 1 33 21 5 36 -10 42
-43 16z"/>
<path d="M5251 1194 c10 -13 10 -17 -2 -25 -12 -8 -11 -12 6 -25 18 -14 20
-13 28 11 10 28 -5 55 -30 55 -13 0 -13 -3 -2 -16z"/>
<path d="M5117 1037 c-21 -8 -20 -9 12 -25 26 -12 36 -13 39 -4 2 7 10 18 17
26 11 11 9 13 -16 12 -16 -1 -40 -5 -52 -9z"/>
<path d="M5120 978 c0 -4 5 -8 10 -8 6 0 5 -8 -2 -19 -7 -11 -15 -18 -18 -16
-3 2 -6 -5 -6 -15 0 -10 4 -16 9 -13 5 3 6 -4 2 -16 -4 -13 -2 -21 5 -21 6 0
9 -4 6 -8 -3 -5 2 -9 10 -9 10 0 11 4 4 11 -5 5 -10 17 -10 26 0 26 24 70 38
70 9 0 10 -5 2 -19 -14 -26 -13 -31 6 -31 11 0 15 -6 11 -20 -3 -10 1 -24 9
-31 8 -6 11 -15 9 -20 -3 -4 6 -16 20 -25 16 -10 22 -20 16 -24 -8 -4 -7 -12
2 -24 12 -17 14 -16 14 13 0 17 -3 31 -6 31 -10 0 -5 68 6 82 5 7 9 26 9 42
-1 37 -26 48 -26 12 0 -13 -4 -28 -10 -31 -5 -3 -10 3 -10 15 0 12 -7 29 -16
37 -16 17 -84 25 -84 11z m77 -50 c-3 -8 -6 -5 -6 6 -1 11 2 17 5 13 3 -3 4
-12 1 -19z m20 -54 c-3 -3 -12 -4 -19 -1 -8 3 -5 6 6 6 11 1 17 -2 13 -5z"/>
<path d="M5394 608 c-4 -7 -4 -10 1 -6 4 4 14 3 22 -4 11 -8 12 -7 7 6 -7 19
-20 21 -30 4z"/>
<path d="M4801 2337 c-1 -11 -6 -15 -13 -11 -7 5 -8 3 -3 -5 10 -16 29 2 22
21 -4 8 -6 7 -6 -5z"/>
<path d="M4756 2274 c-4 -9 -4 -19 -1 -22 2 -3 7 3 11 12 4 9 4 19 1 22 -2 3
-7 -3 -11 -12z"/>
<path d="M4873 2063 c4 -3 0 -14 -9 -24 -13 -15 -21 -16 -38 -7 -11 6 -18 7
-14 3 4 -4 1 -17 -7 -29 -21 -30 -18 -45 4 -19 10 12 21 20 23 18 2 -3 20 11
38 30 28 29 31 35 15 35 -10 0 -15 -3 -12 -7z"/>
<path d="M4760 1995 c0 -8 5 -15 10 -15 6 0 10 7 10 15 0 8 -4 15 -10 15 -5 0
-10 -7 -10 -15z"/>
<path d="M4692 1966 c-29 -6 -57 -18 -62 -26 -9 -13 -11 -13 -20 0 -5 8 -10
10 -10 5 0 -6 6 -17 12 -23 10 -10 10 -17 1 -31 -7 -10 -9 -22 -6 -25 11 -10
45 -7 38 4 -3 6 2 10 11 10 15 0 14 3 -4 19 -22 18 -31 38 -13 26 5 -3 12 -1
16 5 3 5 33 10 66 10 58 0 75 11 42 28 -11 5 -40 4 -71 -2z"/>
<path d="M4642 1794 c-1 -12 5 -25 13 -28 18 -7 20 5 3 23 -11 10 -10 11 2 8
8 -2 12 -2 7 0 -4 3 -5 8 -3 12 3 4 -1 8 -7 8 -7 0 -14 -10 -15 -23z"/>
<path d="M4565 1750 c-6 -10 20 -46 33 -44 6 1 17 2 22 3 6 0 10 6 10 12 0 8
-4 8 -13 1 -8 -7 -18 -7 -27 -2 -13 8 -13 10 1 10 9 0 22 6 28 14 9 11 5 13
-20 12 -17 -1 -32 -3 -34 -6z"/>
<path d="M4530 1696 c-5 -5 -10 -18 -10 -27 0 -10 -4 -21 -10 -24 -5 -3 -10
-18 -9 -33 l1 -27 11 28 c6 15 16 26 21 24 11 -4 36 36 36 57 0 15 -25 17 -40
2z"/>
<path d="M6110 2251 c0 -6 4 -13 10 -16 6 -3 7 1 4 9 -7 18 -14 21 -14 7z"/>
<path d="M6045 2210 c3 -5 10 -10 16 -10 5 0 9 5 9 10 0 6 -7 10 -16 10 -8 0
-12 -4 -9 -10z"/>
<path d="M6358 2193 c-6 -16 -10 -32 -9 -36 0 -4 -3 -17 -9 -27 -7 -12 -7 -20
-1 -20 12 0 24 37 16 50 -3 5 1 10 9 10 10 0 13 6 9 17 -4 11 -3 14 5 9 8 -5
10 -2 6 8 -8 22 -13 20 -26 -11z"/>
<path d="M6400 2161 c0 -6 4 -13 10 -16 6 -3 7 1 4 9 -7 18 -14 21 -14 7z"/>
<path d="M6086 2005 c-3 -8 -1 -15 4 -15 6 0 10 7 10 15 0 8 -2 15 -4 15 -2 0
-6 -7 -10 -15z"/>
<path d="M5850 1801 c0 -5 5 -13 10 -16 6 -3 10 -2 10 4 0 5 -4 13 -10 16 -5
3 -10 2 -10 -4z"/>
<path d="M6095 1710 c3 -5 8 -10 11 -10 2 0 4 5 4 10 0 6 -5 10 -11 10 -5 0
-7 -4 -4 -10z"/>
<path d="M4444 2045 c-10 -8 -14 -14 -9 -15 15 0 40 18 34 24 -3 3 -14 -1 -25
-9z"/>
<path d="M4233 1917 c-12 -19 14 -27 43 -12 16 8 25 15 19 16 -5 0 -20 2 -33
3 -13 2 -25 -1 -29 -7z"/>
<path d="M4245 1825 c-11 -19 -17 -37 -13 -40 3 -3 13 11 23 30 22 47 14 56
-10 10z"/>
<path d="M4220 1841 c0 -7 -4 -10 -9 -7 -5 3 -11 0 -14 -7 -3 -8 1 -14 9 -14
14 0 28 26 19 35 -3 3 -5 0 -5 -7z"/>
<path d="M4147 1693 c-7 -7 3 -33 13 -33 14 0 19 28 5 33 -7 3 -15 3 -18 0z"/>
<path d="M6535 2020 c19 -21 30 -27 20 -10 -3 6 -1 10 6 10 19 0 1 13 -23 17
-21 3 -21 3 -3 -17z"/>
<path d="M6500 2016 c0 -2 7 -7 16 -10 8 -3 12 -2 9 4 -6 10 -25 14 -25 6z"/>
<path d="M6645 1670 c-4 -6 -11 -8 -16 -4 -5 3 -15 1 -22 -4 -7 -5 -25 -12
-41 -16 -15 -4 -26 -9 -23 -12 3 -3 25 0 48 7 45 12 68 17 82 18 11 1 -2 21
-13 21 -5 0 -12 -5 -15 -10z"/>
<path d="M6481 1088 c-1 -28 3 -38 14 -38 17 0 20 11 6 26 -5 5 -11 18 -14 29
-3 11 -5 4 -6 -17z"/>
<path d="M6496 1027 c3 -10 9 -15 12 -12 3 3 0 11 -7 18 -10 9 -11 8 -5 -6z"/>
<path d="M5763 805 c0 -8 7 -15 15 -15 12 0 12 3 2 15 -7 8 -13 15 -15 15 -1
0 -2 -7 -2 -15z"/>
<path d="M3330 387 c0 -49 117 -167 165 -167 13 0 -9 22 -44 45 -23 14 -46 40
-58 67 -12 24 -30 52 -42 62 -21 19 -21 19 -21 -7z"/>
<path d="M6200 814 c0 -9 5 -14 12 -12 18 6 21 28 4 28 -9 0 -16 -7 -16 -16z"/>
<path d="M6245 800 c4 -6 11 -8 16 -5 14 9 11 15 -7 15 -8 0 -12 -5 -9 -10z"/>
<path d="M5795 630 c-3 -5 -1 -10 4 -10 6 0 11 5 11 10 0 6 -2 10 -4 10 -3 0
-8 -4 -11 -10z"/>
<path d="M6660 101 c0 -6 4 -13 10 -16 6 -3 7 1 4 9 -7 18 -14 21 -14 7z"/>
<path d="M4250 5960 c-22 -7 -20 -8 15 -9 22 0 47 4 55 9 11 7 8 9 -15 9 -16
-1 -41 -5 -55 -9z"/>
<path d="M3645 5930 c-3 -5 -2 -10 4 -10 5 0 13 5 16 10 3 6 2 10 -4 10 -5 0
-13 -4 -16 -10z"/>
<path d="M3460 5825 c-10 -12 -10 -15 4 -15 9 0 16 7 16 15 0 8 -2 15 -4 15
-2 0 -9 -7 -16 -15z"/>
<path d="M4782 5761 c20 -23 39 -58 42 -77 4 -19 12 -34 17 -34 25 0 -39 123
-73 141 -16 9 -12 0 14 -30z"/>
<path d="M3120 5680 c0 -5 5 -10 11 -10 5 0 7 5 4 10 -3 6 -8 10 -11 10 -2 0
-4 -4 -4 -10z"/>
<path d="M4796 5565 c4 -8 10 -15 15 -15 5 0 12 0 17 0 18 0 5 23 -15 26 -16
3 -21 0 -17 -11z"/>
<path d="M4810 5518 c0 -4 4 -8 9 -8 6 0 12 4 15 8 3 5 -1 9 -9 9 -8 0 -15 -4
-15 -9z"/>
<path d="M2871 4970 c14 -31 19 -36 19 -24 0 6 -7 19 -16 30 -14 18 -14 18 -3
-6z"/>
<path d="M5030 4904 c0 -8 5 -12 10 -9 6 3 10 10 10 16 0 5 -4 9 -10 9 -5 0
-10 -7 -10 -16z"/>
<path d="M662 3448 c-7 -7 -12 -16 -12 -21 0 -5 7 -1 16 8 9 9 14 18 12 20 -2
3 -10 -1 -16 -7z"/>
<path d="M696 3452 c-3 -5 8 -6 25 -4 16 2 29 6 29 8 0 8 -49 4 -54 -4z"/>
<path d="M947 3428 c8 -44 13 -48 13 -10 0 17 -4 34 -10 37 -6 4 -7 -6 -3 -27z"/>
<path d="M770 3440 c8 -5 20 -10 25 -10 6 0 3 5 -5 10 -8 5 -19 10 -25 10 -5
0 -3 -5 5 -10z"/>
<path d="M5510 3415 c14 -16 40 -20 40 -6 0 9 -24 21 -42 21 -6 0 -6 -6 2 -15z"/>
<path d="M5356 3412 c-3 -5 4 -10 17 -9 12 0 45 -2 72 -6 45 -6 47 -6 15 4
-57 17 -97 22 -104 11z"/>
<path d="M5790 3400 c8 -5 24 -9 35 -9 l20 0 -20 9 c-11 5 -27 9 -35 9 -13 1
-13 0 0 -9z"/>
<path d="M5876 3401 c-3 -4 2 -15 12 -23 20 -17 121 -52 128 -45 3 2 -9 10
-26 16 -17 6 -45 22 -62 36 -31 27 -44 30 -52 16z"/>
<path d="M1458 3383 c6 -2 18 -2 25 0 6 3 1 5 -13 5 -14 0 -19 -2 -12 -5z"/>
<path d="M5858 3346 c-11 -8 -14 -17 -8 -26 5 -8 4 -22 -2 -33 -8 -15 -7 -18
4 -11 11 6 11 5 -1 -9 -7 -9 -23 -17 -35 -18 -20 0 -21 -1 -1 -9 29 -12 28
-13 63 16 26 22 31 32 26 53 -10 39 -25 52 -46 37z"/>
<path d="M1655 3340 c-3 -5 -1 -10 4 -10 6 0 11 5 11 10 0 6 -2 10 -4 10 -3 0
-8 -4 -11 -10z"/>
<path d="M6035 3320 c-4 -6 7 -10 27 -9 27 0 30 2 13 9 -27 12 -33 12 -40 0z"/>
<path d="M5750 3310 c-9 -6 -10 -10 -3 -10 6 0 15 5 18 10 8 12 4 12 -15 0z"/>
<path d="M440 3250 c0 -5 7 -10 16 -10 8 0 12 5 9 10 -3 6 -10 10 -16 10 -5 0
-9 -4 -9 -10z"/>
<path d="M353 3235 c-17 -13 -16 -14 15 -15 33 0 43 13 18 23 -8 3 -22 -1 -33
-8z"/>
<path d="M465 3227 c-28 -17 -36 -30 -23 -38 6 -4 18 -1 25 7 8 8 19 14 24 14
5 0 9 7 9 15 0 18 -8 18 -35 2z"/>
<path d="M526 3222 c-4 -7 0 -19 9 -28 13 -14 19 -14 28 -4 9 10 9 11 -1 6 -7
-5 -15 1 -20 15 -6 15 -11 18 -16 11z"/>
<path d="M760 3220 c0 -5 5 -10 10 -10 6 0 10 5 10 10 0 6 -4 10 -10 10 -5 0
-10 -4 -10 -10z"/>
<path d="M1460 3220 c0 -5 5 -10 10 -10 6 0 10 5 10 10 0 6 -4 10 -10 10 -5 0
-10 -4 -10 -10z"/>
<path d="M5814 3222 c-15 -10 -25 -42 -14 -42 10 0 34 39 28 45 -2 2 -8 1 -14
-3z"/>
<path d="M675 3200 c-3 -6 1 -7 9 -4 18 7 21 14 7 14 -6 0 -13 -4 -16 -10z"/>
<path d="M1361 3194 c0 -11 3 -14 6 -6 3 7 2 16 -1 19 -3 4 -6 -2 -5 -13z"/>
<path d="M5760 3180 c-6 -11 -7 -20 -2 -20 6 0 12 9 15 20 3 11 3 20 1 20 -2
0 -8 -9 -14 -20z"/>
<path d="M1115 3180 c17 -4 38 -11 48 -15 9 -4 17 -3 17 3 0 12 -35 22 -70 21
-23 -1 -23 -2 5 -9z"/>
<path d="M1550 3181 c0 -5 5 -13 10 -16 6 -3 10 -2 10 4 0 5 -4 13 -10 16 -5
3 -10 2 -10 -4z"/>
<path d="M1860 3180 c0 -5 5 -10 11 -10 5 0 7 5 4 10 -3 6 -8 10 -11 10 -2 0
-4 -4 -4 -10z"/>
<path d="M335 3161 c-3 -5 -1 -12 5 -16 5 -3 10 1 10 9 0 18 -6 21 -15 7z"/>
<path d="M370 3160 c0 -5 5 -10 10 -10 6 0 10 5 10 10 0 6 -4 10 -10 10 -5 0
-10 -4 -10 -10z"/>
<path d="M595 3160 c3 -5 10 -10 16 -10 5 0 9 5 9 10 0 6 -7 10 -16 10 -8 0
-12 -4 -9 -10z"/>
<path d="M1645 3160 c-3 -5 1 -10 10 -10 9 0 13 5 10 10 -3 6 -8 10 -10 10 -2
0 -7 -4 -10 -10z"/>
<path d="M5776 3153 c-6 -14 -5 -15 5 -6 7 7 10 15 7 18 -3 3 -9 -2 -12 -12z"/>
<path d="M5975 3150 c-3 -5 -2 -10 4 -10 5 0 13 5 16 10 3 6 2 10 -4 10 -5 0
-13 -4 -16 -10z"/>
<path d="M480 3139 c0 -5 5 -7 10 -4 6 3 10 8 10 11 0 2 -4 4 -10 4 -5 0 -10
-5 -10 -11z"/>
<path d="M855 3140 c3 -5 8 -10 11 -10 2 0 4 5 4 10 0 6 -5 10 -11 10 -5 0 -7
-4 -4 -10z"/>
<path d="M2070 3140 c0 -5 5 -10 10 -10 6 0 10 5 10 10 0 6 -4 10 -10 10 -5 0
-10 -4 -10 -10z"/>
<path d="M616 3125 c-4 -11 1 -15 19 -15 18 0 23 4 19 15 -4 8 -12 15 -19 15
-7 0 -15 -7 -19 -15z"/>
<path d="M882 3123 c3 -19 51 -35 75 -26 7 3 13 13 13 22 0 9 -3 12 -8 6 -4
-5 -17 -11 -29 -12 -16 -2 -21 2 -17 12 4 10 0 15 -15 15 -15 0 -21 -5 -19
-17z"/>
<path d="M695 3120 c3 -5 10 -10 16 -10 5 0 9 5 9 10 0 6 -7 10 -16 10 -8 0
-12 -4 -9 -10z"/>
<path d="M5737 3123 c-4 -3 -7 -11 -7 -17 0 -6 5 -5 12 2 6 6 9 14 7 17 -3 3
-9 2 -12 -2z"/>
<path d="M995 3110 c-3 -5 -1 -10 4 -10 6 0 11 5 11 10 0 6 -2 10 -4 10 -3 0
-8 -4 -11 -10z"/>
<path d="M796 3101 c-3 -5 1 -11 9 -15 8 -3 15 -1 15 4 0 13 -18 22 -24 11z"/>
<path d="M1350 3100 c0 -5 4 -10 9 -10 6 0 13 5 16 10 3 6 -1 10 -9 10 -9 0
-16 -4 -16 -10z"/>
<path d="M1395 3099 c4 -6 -1 -17 -11 -24 -18 -13 -18 -14 -1 -15 9 0 17 5 17
11 0 6 8 8 19 4 16 -5 18 -2 14 15 -3 11 -14 20 -25 20 -11 0 -16 -5 -13 -11z"/>
<path d="M1751 3086 c-7 -8 -8 -17 -3 -20 6 -3 13 1 16 10 9 23 2 28 -13 10z"/>
<path d="M2020 3084 c0 -8 5 -12 10 -9 6 4 8 11 5 16 -9 14 -15 11 -15 -7z"/>
<path d="M687 3067 c-6 -22 -13 -27 -30 -25 -19 3 -22 -2 -22 -30 0 -35 9 -50
20 -32 3 5 15 10 27 10 13 0 18 5 15 14 -3 8 1 17 9 20 15 6 20 36 5 36 -5 0
-11 8 -13 18 -3 12 -6 9 -11 -11z"/>
<path d="M1645 3080 c4 -6 11 -8 16 -5 14 9 11 15 -7 15 -8 0 -12 -5 -9 -10z"/>
<path d="M1980 3080 c0 -5 5 -10 10 -10 6 0 10 5 10 10 0 6 -4 10 -10 10 -5 0
-10 -4 -10 -10z"/>
<path d="M885 3070 c-3 -5 1 -10 9 -10 9 0 16 5 16 10 0 6 -4 10 -9 10 -6 0
-13 -4 -16 -10z"/>
<path d="M1481 3072 c0 -7 -9 -16 -18 -19 -10 -4 -29 -15 -43 -26 -24 -19 -24
-20 -2 -14 24 6 28 -3 10 -21 -16 -16 -11 -18 45 -25 38 -5 47 -4 47 8 0 8 -5
15 -11 15 -5 0 -8 4 -4 9 3 5 -4 13 -15 16 -17 5 -19 10 -10 20 7 8 10 22 7
32 -3 10 -5 12 -6 5z"/>
<path d="M1775 3071 c-3 -5 -1 -12 5 -16 5 -3 10 1 10 9 0 18 -6 21 -15 7z"/>
<path d="M1574 3045 c25 -19 37 -19 30 0 -4 8 -16 15 -28 15 -21 -1 -21 -1 -2
-15z"/>
<path d="M2005 3050 c-3 -5 -1 -10 4 -10 6 0 11 -7 11 -15 0 -8 -4 -15 -9 -15
-5 0 -11 -6 -14 -13 -8 -21 31 -14 48 9 13 16 16 17 25 4 8 -12 10 -11 10 6 0
29 -61 57 -75 34z"/>
<path d="M730 3040 c0 -5 5 -10 11 -10 5 0 7 5 4 10 -3 6 -8 10 -11 10 -2 0
-4 -4 -4 -10z"/>
<path d="M1333 3037 c-31 -10 -45 -27 -23 -27 6 0 10 -7 10 -15 0 -20 17 -19
29 3 6 9 11 11 11 5 0 -14 30 -18 30 -4 0 5 -7 14 -15 21 -13 11 -13 15 -3 21
17 11 2 9 -39 -4z"/>
<path d="M2132 3030 c14 -22 24 -19 15 5 -4 8 -11 15 -17 15 -6 0 -6 -7 2 -20z"/>
<path d="M260 3026 c0 -9 7 -12 21 -9 16 4 17 8 7 14 -19 13 -28 11 -28 -5z"/>
<path d="M418 3033 c-10 -3 -18 -9 -18 -14 0 -12 37 -12 45 0 7 12 -5 19 -27
14z"/>
<path d="M466 3025 c-3 -8 -2 -16 2 -18 11 -6 58 8 47 14 -27 15 -44 17 -49 4z"/>
<path d="M1178 3033 c7 -3 16 -2 19 1 4 3 -2 6 -13 5 -11 0 -14 -3 -6 -6z"/>
<path d="M1242 3026 c16 -8 32 -18 38 -21 15 -9 12 2 -6 19 -8 9 -25 16 -37
16 -20 0 -19 -1 5 -14z"/>
<path d="M585 3020 c3 -5 8 -10 11 -10 2 0 4 5 4 10 0 6 -5 10 -11 10 -5 0 -7
-4 -4 -10z"/>
<path d="M370 3010 c0 -5 5 -10 10 -10 6 0 10 5 10 10 0 6 -4 10 -10 10 -5 0
-10 -4 -10 -10z"/>
<path d="M720 3007 c0 -7 5 -18 12 -25 9 -9 9 -12 -2 -12 -7 0 -11 -2 -8 -5 8
-9 38 6 38 19 0 6 -9 17 -20 24 -16 10 -20 10 -20 -1z"/>
<path d="M1860 3000 c0 -13 5 -18 15 -14 12 5 13 10 4 20 -15 19 -19 18 -19
-6z"/>
<path d="M872 2999 c2 -7 10 -15 17 -17 8 -3 12 1 9 9 -2 7 -10 15 -17 17 -8
3 -12 -1 -9 -9z"/>
<path d="M1618 3003 c-23 -6 -23 -22 -1 -38 15 -11 9 -14 -40 -25 -31 -7 -57
-17 -57 -22 0 -18 -21 -6 -30 17 -8 22 -15 25 -59 25 -27 0 -58 3 -68 6 -15 5
-15 4 -3 -5 13 -9 13 -11 -2 -11 -11 0 -15 -5 -12 -15 4 -9 0 -15 -9 -15 -8 0
-17 7 -21 15 -7 18 -26 20 -26 3 0 -7 -10 -13 -22 -14 -13 0 -38 -4 -55 -8
-27 -6 -33 -5 -33 8 0 9 -4 16 -8 16 -5 0 -14 10 -20 23 -10 19 -10 18 -5 -10
4 -26 2 -33 -11 -33 -9 0 -24 8 -34 18 -20 20 -114 24 -134 4 -14 -14 -88 -17
-88 -3 0 5 10 11 22 14 12 4 19 9 16 12 -3 4 -25 1 -49 -5 -24 -7 -60 -9 -81
-6 -41 7 -55 -11 -17 -21 12 -3 18 -11 15 -19 -3 -8 -1 -14 4 -14 6 0 10 -13
10 -28 0 -22 5 -28 22 -28 19 0 59 28 55 38 -1 2 6 -6 15 -17 19 -22 24 -55 8
-55 -5 0 -10 6 -10 13 0 9 -3 8 -9 -2 -6 -9 -11 -10 -15 -2 -10 16 -26 14 -26
-4 0 -19 28 -34 53 -27 14 3 18 1 13 -6 -4 -7 -1 -12 8 -12 15 0 21 12 17 34
-1 4 5 19 14 32 16 25 67 34 64 12 -4 -36 3 -57 21 -63 27 -8 47 -45 30 -55
-6 -4 7 -6 30 -4 36 2 42 -1 50 -22 6 -16 17 -24 32 -23 l23 0 -22 11 c-28 13
-28 16 -1 48 14 17 22 21 25 12 4 -10 8 -10 21 0 12 10 16 10 19 1 7 -20 27
-15 59 15 35 34 68 47 112 47 17 0 32 3 32 7 0 4 9 8 19 8 14 0 18 5 14 20 -3
11 -10 20 -17 21 -6 1 5 5 24 9 19 5 37 5 40 2 5 -6 35 -7 53 -2 4 1 10 3 15
4 4 1 19 5 35 9 15 4 36 3 47 -3 11 -6 20 -8 20 -5 0 12 -36 43 -55 48 -11 4
-3 5 18 4 27 -2 36 0 33 10 -3 7 1 13 8 13 8 0 16 -5 18 -12 2 -6 10 -8 17 -4
19 12 -18 35 -57 36 -18 0 -31 4 -27 9 7 12 -5 19 -27 14z m-43 -92 c-15 -14
-55 -23 -55 -13 0 15 12 22 39 22 15 0 21 -4 16 -9z m-425 -11 c0 -5 -7 -10
-15 -10 -8 0 -15 5 -15 10 0 6 7 10 15 10 8 0 15 -4 15 -10z m170 0 c0 -5 -7
-10 -15 -10 -8 0 -15 5 -15 10 0 6 7 10 15 10 8 0 15 -4 15 -10z m88 -22 c2
-11 -4 -16 -22 -14 -14 0 -26 4 -26 8 0 3 -3 13 -6 22 -5 12 0 13 23 7 15 -4
29 -15 31 -23z m-343 -47 c0 -16 -32 -24 -41 -10 -8 14 6 30 24 27 10 -2 17
-10 17 -17z m55 -31 c0 -5 -2 -10 -4 -10 -3 0 -8 5 -11 10 -3 6 -1 10 4 10 6
0 11 -4 11 -10z"/>
<path d="M1700 3000 c0 -5 5 -10 10 -10 6 0 10 5 10 10 0 6 -4 10 -10 10 -5 0
-10 -4 -10 -10z"/>
<path d="M162 2980 c0 -14 2 -19 5 -12 2 6 2 18 0 25 -3 6 -5 1 -5 -13z"/>
<path d="M345 2990 c-3 -5 -1 -10 4 -10 6 0 11 5 11 10 0 6 -2 10 -4 10 -3 0
-8 -4 -11 -10z"/>
<path d="M400 2991 c0 -8 52 -23 59 -16 1 2 0 8 -4 14 -8 13 -55 15 -55 2z"/>
<path d="M575 2989 c-10 -15 1 -23 20 -15 9 3 13 10 10 16 -8 13 -22 13 -30
-1z"/>
<path d="M1925 2990 c3 -5 12 -10 20 -10 8 0 17 5 20 10 4 6 -5 10 -20 10 -15
0 -24 -4 -20 -10z"/>
<path d="M1756 2965 c-3 -8 -1 -15 4 -15 6 0 10 7 10 15 0 8 -2 15 -4 15 -2 0
-6 -7 -10 -15z"/>
<path d="M280 2957 c19 -6 38 -15 42 -21 4 -6 6 -2 6 10 -2 17 -9 21 -42 21
l-41 2 35 -12z"/>
<path d="M400 2960 c0 -5 4 -10 9 -10 6 0 13 5 16 10 3 6 -1 10 -9 10 -9 0
-16 -4 -16 -10z"/>
<path d="M1545 2960 c-4 -6 7 -10 27 -9 27 0 30 2 13 9 -27 12 -33 12 -40 0z"/>
<path d="M447 2939 c4 -16 8 -17 14 -7 13 19 11 28 -5 28 -9 0 -12 -7 -9 -21z"/>
<path d="M506 2951 c-15 -6 -16 -10 -7 -15 8 -5 20 -2 29 8 17 17 9 19 -22 7z"/>
<path d="M560 2952 c0 -11 41 -34 48 -28 3 4 -3 13 -14 21 -21 16 -34 19 -34
7z"/>
<path d="M2093 2946 c-9 -11 -8 -15 10 -20 24 -6 43 7 33 23 -10 15 -28 13
-43 -3z"/>
<path d="M0 2930 c0 -5 7 -10 15 -10 8 0 15 5 15 10 0 6 -7 10 -15 10 -8 0
-15 -4 -15 -10z"/>
<path d="M385 2930 c-3 -5 -1 -10 4 -10 6 0 11 5 11 10 0 6 -2 10 -4 10 -3 0
-8 -4 -11 -10z"/>
<path d="M1792 2928 c-7 -7 -12 -19 -12 -27 0 -11 5 -9 20 7 11 12 20 24 20
27 0 9 -16 5 -28 -7z"/>
<path d="M1848 2933 c17 -7 15 -21 -5 -26 -14 -4 -12 -5 5 -6 12 0 22 3 22 7
0 5 10 14 23 20 20 10 18 11 -18 11 -22 -1 -34 -3 -27 -6z"/>
<path d="M2393 2913 c-1 -19 1 -22 8 -12 11 17 12 39 2 39 -5 0 -9 -12 -10
-27z"/>
<path d="M1710 2914 c0 -9 9 -13 25 -12 32 3 32 23 0 24 -15 1 -25 -3 -25 -12z"/>
<path d="M185 2900 c3 -5 10 -10 16 -10 5 0 9 5 9 10 0 6 -7 10 -16 10 -8 0
-12 -4 -9 -10z"/>
<path d="M2045 2900 c-8 -13 -1 -24 14 -19 6 3 7 10 2 18 -6 10 -10 10 -16 1z"/>
<path d="M685 2884 c-22 -7 -31 -12 -20 -10 15 2 20 -3 22 -22 2 -33 23 -54
23 -23 0 20 4 22 28 17 27 -7 27 -7 5 9 -13 9 -20 22 -17 30 4 8 5 15 3 14 -2
0 -22 -7 -44 -15z"/>
<path d="M2260 2890 c0 -5 7 -10 15 -10 8 0 15 5 15 10 0 6 -7 10 -15 10 -8 0
-15 -4 -15 -10z"/>
<path d="M365 2880 c-3 -5 1 -10 9 -10 9 0 16 5 16 10 0 6 -4 10 -9 10 -6 0
-13 -4 -16 -10z"/>
<path d="M1756 2877 c3 -10 9 -15 12 -12 3 3 0 11 -7 18 -10 9 -11 8 -5 -6z"/>
<path d="M2154 2878 c-4 -6 -3 -8 4 -4 6 3 13 2 17 -4 9 -15 22 -12 22 5 0 18
-33 20 -43 3z"/>
<path d="M2400 2880 c-11 -7 -7 -10 18 -10 20 0 31 4 27 10 -8 13 -26 13 -45
0z"/>
<path d="M3715 2871 c-4 -13 -1 -28 6 -38 12 -13 15 -13 31 7 23 28 23 44 1
36 -9 -4 -20 -1 -24 5 -4 8 -9 4 -14 -10z"/>
<path d="M1710 2864 c0 -16 9 -18 28 -5 10 6 9 10 -7 14 -14 3 -21 0 -21 -9z"/>
<path d="M2075 2869 c-10 -15 -4 -18 27 -12 15 3 25 9 22 14 -7 12 -41 11 -49
-2z"/>
<path d="M3818 2850 c-4 -19 -9 -65 -12 -101 -2 -36 -9 -76 -15 -87 -6 -11
-11 -28 -11 -38 0 -9 11 4 25 31 23 42 25 57 23 139 -2 69 -5 82 -10 56z"/>
<path d="M80 2859 c0 -5 5 -7 10 -4 6 3 10 8 10 11 0 2 -4 4 -10 4 -5 0 -10
-5 -10 -11z"/>
<path d="M608 2853 c7 -3 16 -2 19 1 4 3 -2 6 -13 5 -11 0 -14 -3 -6 -6z"/>
<path d="M2500 2856 c0 -2 9 -6 20 -9 11 -3 20 -1 20 4 0 5 -9 9 -20 9 -11 0
-20 -2 -20 -4z"/>
<path d="M2237 2843 c-3 -5 5 -8 18 -8 13 0 21 3 18 8 -2 4 -10 7 -18 7 -8 0
-16 -3 -18 -7z"/>
<path d="M110 2829 c0 -5 5 -7 10 -4 6 3 10 8 10 11 0 2 -4 4 -10 4 -5 0 -10
-5 -10 -11z"/>
<path d="M2094 2824 c3 -9 6 -18 6 -20 0 -2 4 -4 9 -4 5 0 7 9 4 20 -3 11 -10
20 -15 20 -6 0 -7 -7 -4 -16z"/>
<path d="M580 2821 c0 -11 31 -24 39 -16 3 3 -1 10 -9 15 -19 12 -30 12 -30 1z"/>
<path d="M723 2813 c-15 -13 -17 -21 -9 -28 14 -14 56 -17 56 -4 0 5 -8 9 -17
9 -15 0 -16 2 -3 10 10 6 12 12 4 20 -7 7 -16 5 -31 -7z"/>
<path d="M790 2815 c0 -8 5 -15 10 -15 6 0 10 7 10 15 0 8 -4 15 -10 15 -5 0
-10 -7 -10 -15z"/>
<path d="M2555 2809 c-11 -16 -1 -19 13 -3 7 8 8 14 3 14 -5 0 -13 -5 -16 -11z"/>
<path d="M3615 2765 c5 -48 3 -56 -10 -52 -9 4 -19 -2 -26 -16 -14 -26 -39
-52 -59 -60 -10 -3 -7 -6 7 -6 26 -1 39 -36 29 -76 -4 -14 -2 -25 4 -25 5 0
10 -9 10 -20 0 -11 -4 -20 -9 -20 -5 0 -11 -6 -14 -14 -4 -11 -1 -11 19 -2 13
6 24 18 24 26 0 8 9 40 20 70 21 61 19 70 -12 51 -19 -12 -20 -11 -14 16 14
57 56 69 56 17 0 -14 4 -23 10 -19 5 3 7 12 4 19 -3 8 3 17 14 20 36 12 45 31
33 69 -13 39 -35 61 -69 72 -22 6 -23 5 -17 -50z"/>
<path d="M2130 2804 c0 -5 6 -19 14 -29 13 -18 14 -18 25 4 14 25 5 44 -10 21
-8 -13 -10 -13 -19 0 -5 8 -10 10 -10 4z"/>
<path d="M600 2780 c0 -5 6 -10 14 -10 8 0 18 5 21 10 3 6 -3 10 -14 10 -12 0
-21 -4 -21 -10z"/>
<path d="M0 2768 c0 -9 5 -20 11 -23 17 -11 18 -2 3 19 -12 17 -14 17 -14 4z"/>
<path d="M1839 2778 c-1 -5 -2 -13 -3 -18 0 -6 -7 -15 -15 -19 -7 -5 -11 -13
-7 -19 3 -6 2 -13 -3 -16 -5 -4 -13 -1 -16 5 -4 5 -13 8 -21 5 -9 -4 -14 2
-15 17 0 21 -1 21 -9 2 -5 -11 -9 -15 -9 -9 -1 6 -7 11 -15 11 -18 0 -16 -61
2 -79 7 -7 12 -20 12 -30 0 -10 5 -18 11 -18 5 0 7 -4 4 -10 -3 -5 -1 -19 5
-30 6 -11 7 -20 3 -20 -5 0 -14 -13 -21 -28 -7 -16 -24 -34 -38 -41 -15 -6
-24 -15 -20 -18 3 -4 12 -1 18 5 17 17 28 15 28 -4 0 -9 5 -14 12 -12 20 7 20
26 1 31 -11 3 -6 5 12 6 33 1 59 30 49 55 -8 21 33 30 99 22 47 -6 55 -4 79
19 36 33 98 33 98 -1 0 -15 30 -8 42 10 5 7 18 7 41 -2 18 -7 43 -12 55 -12
12 0 22 -4 22 -10 0 -5 8 -10 18 -10 10 0 23 -5 30 -12 9 -9 18 -9 37 0 15 7
31 9 37 6 5 -3 17 4 25 16 13 18 21 21 50 15 53 -10 83 -26 83 -45 0 -14 12
-19 58 -22 60 -6 102 4 102 23 0 7 -11 9 -30 6 -16 -4 -32 -2 -35 3 -3 6 -20
10 -36 10 -18 0 -28 4 -24 10 8 13 66 13 99 0 21 -7 26 -6 26 5 0 8 -5 15 -11
15 -5 0 -7 5 -4 10 3 6 -1 10 -10 10 -9 0 -13 -4 -10 -10 3 -6 -5 -10 -19 -10
-14 0 -27 4 -30 9 -3 5 -37 7 -76 5 -56 -2 -70 0 -70 11 0 8 -7 15 -16 15 -8
0 -12 5 -9 10 3 6 1 10 -4 10 -6 0 -11 7 -11 15 0 8 -4 15 -9 15 -5 0 -7 -10
-4 -21 5 -18 3 -20 -17 -14 -15 5 -20 4 -16 -4 4 -6 14 -11 22 -11 8 0 14 -4
14 -10 0 -5 -4 -10 -9 -10 -6 0 -13 5 -16 10 -3 6 -15 10 -26 10 -21 0 -25 20
-7 38 9 9 8 12 -4 12 -9 0 -20 -4 -23 -10 -3 -5 -19 -7 -36 -3 -29 5 -30 4
-27 -23 2 -18 9 -29 18 -29 8 0 14 6 12 13 -1 7 8 12 20 12 21 -1 21 -2 5 -11
-9 -6 -15 -15 -11 -20 4 -7 -7 -9 -27 -7 -28 2 -33 7 -31 24 2 15 -4 23 -20
27 -12 4 -25 1 -29 -4 -5 -8 -9 -8 -13 0 -8 13 -56 15 -56 2 0 -16 -41 -20
-47 -5 -3 8 -9 11 -14 8 -5 -3 -7 -8 -5 -12 2 -4 -7 -7 -20 -7 -13 0 -24 5
-24 12 0 7 7 10 15 7 8 -4 15 -2 15 4 0 18 -24 30 -73 36 -27 4 -58 16 -70 26
-11 11 -24 20 -27 20 -4 0 -12 10 -18 23 -6 12 -12 19 -13 15z m58 -100 c-3
-8 -6 -5 -6 6 -1 11 2 17 5 13 3 -3 4 -12 1 -19z m83 -8 c0 -5 -2 -10 -4 -10
-3 0 -8 5 -11 10 -3 6 -1 10 4 10 6 0 11 -4 11 -10z m240 -60 c0 -13 -11 -13
-30 0 -12 8 -11 10 8 10 12 0 22 -4 22 -10z m140 -15 c0 -8 -9 -19 -20 -25
-18 -9 -20 -8 -20 15 0 18 5 25 20 25 11 0 20 -7 20 -15z"/>
<path d="M96 2751 c-4 -6 -11 -9 -15 -6 -5 2 -6 -7 -3 -20 3 -16 0 -25 -9 -25
-7 0 -9 -3 -5 -7 4 -4 16 3 27 17 12 16 22 21 26 14 14 -19 51 -23 58 -6 7 20
-15 34 -32 20 -10 -8 -17 -6 -27 7 -9 13 -15 15 -20 6z"/>
<path d="M237 2746 l-27 -12 23 -22 c37 -35 134 -25 99 10 -8 8 -23 8 -51 0
-44 -11 -56 -2 -19 15 32 14 8 22 -25 9z"/>
<path d="M533 2744 c-2 -7 -20 -20 -39 -29 -19 -9 -34 -20 -34 -24 0 -17 44
-20 62 -4 11 10 26 13 43 9 21 -5 25 -3 25 17 0 13 6 29 12 35 10 10 5 12 -26
10 -21 -1 -40 -8 -43 -14z"/>
<path d="M2176 2744 c-3 -8 -10 -12 -16 -9 -11 7 -13 -6 -4 -29 4 -12 11 -13
24 -6 12 6 20 6 22 0 4 -13 46 -21 52 -11 3 4 -12 13 -33 20 -32 9 -38 15 -34
31 6 24 -2 27 -11 4z"/>
<path d="M1319 2729 c-8 -17 -8 -20 1 -14 9 5 10 1 5 -16 -5 -17 -4 -21 3 -14
6 6 14 22 17 38 9 33 -9 37 -26 6z"/>
<path d="M1 2660 c1 -61 3 -70 19 -70 10 0 22 9 25 20 7 23 25 27 25 5 0 -20
26 -19 34 1 3 9 12 14 20 11 7 -3 26 5 42 18 l29 24 -37 15 c-48 20 -54 20
-70 -3 -10 -14 -21 -18 -42 -14 -23 5 -27 10 -23 29 2 13 -1 25 -9 28 -10 4
-13 -11 -13 -64z"/>
<path d="M48 2723 c7 -3 16 -2 19 1 4 3 -2 6 -13 5 -11 0 -14 -3 -6 -6z"/>
<path d="M1005 2717 c20 -16 12 -39 -12 -35 -9 2 -18 -3 -20 -9 -3 -7 2 -13
11 -13 9 0 16 -4 16 -10 0 -5 -9 -10 -20 -10 -11 0 -20 6 -20 13 0 16 -52 62
-74 63 -9 1 -16 -4 -16 -12 0 -8 4 -14 8 -14 5 0 8 -10 8 -22 -1 -18 7 -25 32
-33 17 -5 32 -13 32 -17 0 -4 9 -8 21 -8 12 0 23 -8 26 -19 3 -11 12 -22 22
-24 11 -3 10 -5 -5 -6 -16 -1 -23 -9 -26 -33 -7 -48 5 -84 28 -80 10 1 31 3
47 4 25 1 26 2 12 18 -15 16 -12 18 42 22 62 6 72 0 74 -42 1 -19 2 -21 6 -6
4 15 7 16 14 5 7 -11 9 -11 9 4 0 9 -5 17 -11 17 -6 0 -3 7 5 16 9 8 13 20 10
26 -4 7 -9 6 -14 -2 -5 -8 -9 -7 -13 4 -4 9 -13 16 -21 16 -14 0 -29 37 -18
43 4 2 58 3 120 2 104 -2 143 5 107 19 -8 3 -15 18 -16 33 0 15 -3 22 -6 16
-7 -18 -30 -16 -42 4 -8 15 -12 16 -35 4 -14 -8 -23 -18 -20 -23 11 -17 -9 -7
-28 15 l-20 22 -15 -22 c-18 -26 -68 -31 -123 -12 -27 10 -30 13 -16 21 9 5
16 15 16 22 0 19 -47 56 -72 56 -21 0 -21 -1 -3 -13z"/>
<path d="M2480 2684 c0 -8 5 -12 10 -9 6 3 10 10 10 16 0 5 -4 9 -10 9 -5 0
-10 -7 -10 -16z"/>
<path d="M830 2650 c0 -5 5 -10 11 -10 5 0 7 5 4 10 -3 6 -8 10 -11 10 -2 0
-4 -4 -4 -10z"/>
<path d="M2498 2643 c7 -3 16 -2 19 1 4 3 -2 6 -13 5 -11 0 -14 -3 -6 -6z"/>
<path d="M400 2630 c0 -5 7 -10 16 -10 8 0 12 5 9 10 -3 6 -10 10 -16 10 -5 0
-9 -4 -9 -10z"/>
<path d="M345 2620 c3 -5 12 -10 20 -10 8 0 17 5 20 10 4 6 -5 10 -20 10 -15
0 -24 -4 -20 -10z"/>
<path d="M580 2621 c0 -15 -87 -53 -125 -54 -19 -1 -35 -5 -35 -10 0 -5 -6 -7
-14 -4 -8 3 -39 -7 -70 -22 -30 -16 -67 -31 -81 -35 -14 -4 -28 -13 -31 -21
-5 -12 -8 -12 -21 1 -10 10 -19 12 -26 5 -13 -13 -37 -3 -37 16 0 9 7 21 16
27 13 10 13 12 -4 13 -18 1 -23 -7 -33 -47 -4 -21 -22 -28 -40 -17 -16 10 -21
9 -29 -3 -9 -13 -12 -13 -24 3 -22 28 -26 20 -26 -48 0 -67 13 -83 40 -50 16
19 40 19 40 1 0 -8 6 -16 13 -19 9 -3 9 -7 -2 -20 -15 -19 -46 -23 -56 -7 -10
17 -35 -16 -35 -45 0 -24 3 -26 25 -21 19 5 25 2 25 -9 0 -9 5 -13 10 -10 6 4
8 15 5 26 -5 15 -1 19 14 19 23 0 28 -15 9 -23 -10 -4 -9 -8 2 -16 13 -10 13
-11 0 -11 -13 0 -13 -2 0 -11 12 -9 12 -10 -4 -5 -11 4 -26 0 -37 -10 -17 -15
-19 -15 -25 -1 -3 9 -3 21 1 27 3 5 -1 10 -9 10 -24 0 -22 -67 2 -73 16 -4 16
-5 0 -6 -19 -1 -26 -31 -8 -31 6 0 10 5 10 11 0 8 5 8 15 -1 12 -10 15 -10 15
0 0 8 3 10 6 7 9 -8 44 11 44 24 0 6 -5 7 -10 4 -5 -3 -10 -2 -10 3 0 6 21 14
48 20 41 8 43 10 15 11 -18 0 -33 6 -33 12 0 5 3 8 8 6 4 -3 7 11 7 31 l0 37
51 3 c44 3 52 0 57 -17 4 -16 -1 -21 -22 -24 l-26 -4 28 -2 c16 0 35 6 43 14
9 8 26 15 39 15 13 0 25 5 27 10 4 14 118 24 118 11 0 -6 15 -7 37 -4 31 5 40
2 57 -19 19 -23 26 -24 81 -19 50 5 55 8 33 14 -16 4 -28 11 -28 15 0 8 8 9
120 15 41 3 75 5 75 6 0 0 63 3 140 6 77 3 154 8 170 11 50 9 68 9 107 0 21
-4 46 -5 55 -1 16 6 16 8 3 18 -9 7 -22 27 -29 44 -12 30 -24 35 -58 24 -1 -1
2 -12 7 -26 9 -24 8 -25 -15 -19 -15 4 -32 1 -41 -7 -13 -10 -17 -10 -25 2 -7
12 -9 12 -9 -1 0 -12 -2 -13 -9 -1 -5 8 -20 12 -38 9 -19 -2 -35 2 -48 14 -16
16 -17 18 -2 18 9 0 17 4 17 9 0 13 -44 4 -48 -9 -2 -6 -18 -8 -38 -4 -19 3
-42 3 -51 -1 -18 -8 -47 -11 -115 -14 -37 -1 -55 -21 -20 -21 16 -1 16 -1 -1
-11 -22 -13 -48 -5 -43 13 1 7 1 10 -1 6 -10 -18 -32 -5 -42 25 -6 17 -21 39
-33 49 -18 13 -22 26 -22 72 0 36 -5 57 -13 60 -7 3 -13 12 -13 20 0 8 -4 18
-10 21 -5 3 -10 2 -10 -4z m-335 -184 c-5 -19 0 -25 33 -40 21 -9 46 -17 55
-17 10 0 26 -9 37 -20 20 -20 27 -36 11 -26 -4 3 -22 2 -38 -3 -17 -5 -36 -5
-42 -1 -7 4 -33 3 -57 -2 -33 -7 -49 -6 -59 2 -11 9 -15 9 -15 1 0 -6 -9 -11
-20 -11 -13 0 -20 7 -20 20 0 11 4 20 9 20 5 0 11 9 14 19 3 14 11 18 26 14
16 -4 21 -1 21 15 0 21 24 52 41 52 5 0 7 -10 4 -23z m368 -68 c18 -18 19 -21
4 -15 -10 3 -23 6 -28 6 -5 0 -9 7 -9 15 0 20 7 19 33 -6z m-183 -9 c0 -11 -7
-20 -15 -20 -18 0 -19 12 -3 28 16 16 18 15 18 -8z m110 10 c0 -5 -7 -10 -16
-10 -8 0 -12 5 -9 10 3 6 10 10 16 10 5 0 9 -4 9 -10z m337 4 c-3 -3 -12 -4
-19 -1 -8 3 -5 6 6 6 11 1 17 -2 13 -5z m-277 -74 c0 -11 -6 -20 -14 -20 -7 0
-16 9 -19 20 -4 15 0 20 14 20 12 0 19 -7 19 -20z"/>
<path d="M1589 2615 c-8 -9 -35 -19 -60 -24 -36 -8 -23 -9 68 -9 62 1 110 5
107 10 -3 4 -16 8 -29 8 -13 0 -30 7 -39 15 -18 19 -28 19 -47 0z"/>
<path d="M1450 2596 c0 -9 7 -16 16 -16 9 0 14 5 12 12 -6 18 -28 21 -28 4z"/>
<path d="M2705 2590 c3 -5 8 -10 11 -10 2 0 4 5 4 10 0 6 -5 10 -11 10 -5 0
-7 -4 -4 -10z"/>
<path d="M236 2563 c6 -4 14 -15 17 -23 5 -11 6 -9 4 4 -1 11 -9 21 -17 23
-10 3 -11 2 -4 -4z"/>
<path d="M2710 2543 c0 -23 28 -35 52 -22 16 9 19 14 9 17 -7 2 -17 -2 -22 -9
-8 -11 -12 -10 -24 5 -8 11 -15 15 -15 9z"/>
<path d="M2386 2531 c-7 -11 18 -21 55 -21 39 0 37 16 -2 24 -41 8 -47 8 -53
-3z"/>
<path d="M2480 2530 c0 -5 5 -10 11 -10 5 0 7 5 4 10 -3 6 -8 10 -11 10 -2 0
-4 -4 -4 -10z"/>
<path d="M1425 2520 c-7 -12 2 -30 16 -30 5 0 9 9 9 20 0 21 -15 27 -25 10z"/>
<path d="M2021 2514 c0 -11 3 -14 6 -6 3 7 2 16 -1 19 -3 4 -6 -2 -5 -13z"/>
<path d="M2108 2518 c-16 -5 -28 -14 -28 -19 0 -13 17 -11 26 2 3 6 17 9 30 6
14 -2 25 1 28 9 6 16 -16 17 -56 2z"/>
<path d="M2190 2520 c-13 -8 -13 -10 2 -10 9 0 20 5 23 10 8 13 -5 13 -25 0z"/>
<path d="M1478 2497 c-6 -31 5 -42 27 -29 14 7 14 11 -3 32 l-19 23 -5 -26z"/>
<path d="M1855 2510 c3 -5 13 -10 21 -10 8 0 12 5 9 10 -3 6 -13 10 -21 10 -8
0 -12 -4 -9 -10z"/>
<path d="M1977 2503 c-12 -11 -8 -23 8 -23 8 0 15 7 15 15 0 16 -12 20 -23 8z"/>
<path d="M1277 2476 c-4 -10 -1 -13 8 -9 8 3 12 9 9 14 -7 12 -11 11 -17 -5z"/>
<path d="M1240 2460 c-9 -6 -10 -10 -3 -10 6 0 15 5 18 10 8 12 4 12 -15 0z"/>
<path d="M7915 2450 c-4 -6 -6 -20 -5 -33 4 -46 1 -50 -30 -43 -20 4 -29 2
-25 -5 4 -6 1 -24 -5 -40 -11 -25 -10 -32 5 -49 18 -20 13 -40 -11 -40 -20 0
-18 -28 4 -38 9 -5 43 -8 75 -7 49 1 57 -1 57 -17 0 -10 4 -18 10 -18 12 0 10
71 -3 88 -5 6 -17 12 -27 12 -19 0 -34 25 -24 41 8 14 22 11 44 -11 l20 -20 0
55 c0 55 -16 96 -49 123 -18 15 -28 15 -36 2z"/>
<path d="M2440 2440 c0 -8 -9 -11 -26 -7 -15 2 -77 0 -138 -5 -133 -12 -125
-12 -206 -5 -35 3 -75 1 -89 -4 -13 -6 -45 -11 -70 -14 -26 -2 -59 -7 -73 -10
-34 -9 -126 14 -130 32 -2 11 -12 9 -43 -7 -22 -11 -45 -18 -52 -16 -6 3 -13
0 -15 -5 -2 -6 -17 -4 -39 5 -23 9 -40 11 -50 5 -7 -5 -24 -9 -36 -9 -13 0
-23 -4 -23 -9 0 -4 -11 -6 -25 -3 -14 2 -22 8 -19 13 3 5 1 9 -5 9 -5 0 -11
-5 -13 -12 -2 -6 -24 -12 -49 -13 -24 -1 -43 -4 -42 -8 5 -17 22 -41 23 -32 0
11 258 11 314 1 17 -3 64 0 104 8 63 12 74 12 79 0 3 -9 13 -12 24 -9 10 3 27
1 38 -4 15 -8 23 -7 33 3 15 15 88 27 88 14 0 -4 7 -5 15 -2 8 4 21 2 28 -3
13 -10 63 -16 53 -6 -11 11 38 30 56 21 9 -4 30 -8 47 -8 16 0 32 -6 34 -12 4
-10 6 -10 6 0 1 6 10 12 22 12 11 0 17 5 14 10 -3 6 1 10 10 10 9 0 13 -4 10
-10 -10 -17 52 -11 70 6 11 12 19 13 28 5 11 -8 61 -9 119 -2 4 1 5 8 2 16 -8
20 -2 19 41 -6 34 -21 37 -21 55 -4 11 10 20 21 20 25 0 4 -30 13 -67 19 -38
6 -80 14 -95 17 -19 4 -28 2 -28 -6z"/>
<path d="M2895 2414 c0 -27 7 -30 23 -11 8 9 7 16 -6 23 -14 9 -17 7 -17 -12z"/>
<path d="M3545 2414 c-16 -15 -24 -23 -17 -20 17 10 15 -10 -4 -29 -26 -26
-56 -115 -44 -129 5 -7 6 -17 2 -21 -4 -5 0 -4 8 0 13 8 13 6 2 -7 -8 -9 -9
-19 -4 -22 6 -3 15 1 22 9 10 13 10 19 -5 34 -16 19 -16 19 4 14 18 -5 21 -1
21 28 0 19 7 47 15 63 9 16 13 31 11 34 -3 2 1 20 9 38 8 19 13 34 12 34 -1
-1 -15 -12 -32 -26z"/>
<path d="M2660 2399 c0 -5 5 -7 10 -4 6 4 18 1 26 -6 13 -10 17 -10 24 0 5 10
19 12 43 7 21 -4 38 -2 42 4 4 6 -20 10 -69 10 -47 0 -76 -4 -76 -11z"/>
<path d="M2825 2400 c-3 -5 -1 -10 4 -10 6 0 11 5 11 10 0 6 -2 10 -4 10 -3 0
-8 -4 -11 -10z"/>
<path d="M2855 2400 c-3 -5 -1 -10 4 -10 6 0 11 5 11 10 0 6 -2 10 -4 10 -3 0
-8 -4 -11 -10z"/>
<path d="M1970 2340 c0 -5 7 -10 16 -10 8 0 12 5 9 10 -3 6 -10 10 -16 10 -5
0 -9 -4 -9 -10z"/>
<path d="M1500 2330 c0 -5 5 -10 11 -10 5 0 7 5 4 10 -3 6 -8 10 -11 10 -2 0
-4 -4 -4 -10z"/>
<path d="M1745 2330 c-3 -5 -1 -10 4 -10 6 0 11 5 11 10 0 6 -2 10 -4 10 -3 0
-8 -4 -11 -10z"/>
<path d="M1798 2323 c7 -3 16 -2 19 1 4 3 -2 6 -13 5 -11 0 -14 -3 -6 -6z"/>
<path d="M1187 2303 c-12 -12 -7 -22 8 -17 8 4 15 10 15 15 0 11 -14 12 -23 2z"/>
<path d="M372 2271 c-19 -12 23 -18 68 -10 27 5 29 7 10 8 -14 1 -34 4 -45 6
-11 3 -26 1 -33 -4z"/>
<path d="M135 2260 c3 -5 8 -10 11 -10 2 0 4 5 4 10 0 6 -5 10 -11 10 -5 0 -7
-4 -4 -10z"/>
<path d="M2383 2263 c9 -2 23 -2 30 0 6 3 -1 5 -18 5 -16 0 -22 -2 -12 -5z"/>
<path d="M2015 2250 c-3 -5 1 -10 10 -10 9 0 13 5 10 10 -3 6 -8 10 -10 10 -2
0 -7 -4 -10 -10z"/>
<path d="M2080 2256 c0 -2 7 -6 15 -10 8 -3 15 -1 15 4 0 6 -7 10 -15 10 -8 0
-15 -2 -15 -4z"/>
<path d="M1934 2241 c5 -8 56 -3 56 5 0 2 -14 4 -31 4 -16 0 -28 -4 -25 -9z"/>
<path d="M555 2222 c-2 -2 -79 -6 -172 -8 -206 -6 -195 -5 -189 -21 3 -7 1
-13 -4 -13 -6 0 -10 -4 -10 -9 0 -13 42 -5 51 10 3 6 33 13 65 15 49 4 61 1
74 -15 13 -17 21 -18 75 -10 33 5 89 9 125 8 72 -1 130 15 113 32 -10 10 -120
19 -128 11z"/>
<path d="M1181 2226 c11 -9 69 -15 64 -6 -3 6 -20 10 -37 10 -17 0 -29 -2 -27
-4z"/>
<path d="M965 2190 c-3 -5 1 -10 10 -10 9 0 13 5 10 10 -3 6 -8 10 -10 10 -2
0 -7 -4 -10 -10z"/>
<path d="M3496 2131 c-6 -9 9 -51 17 -51 2 0 3 11 2 24 0 28 -10 42 -19 27z"/>
<path d="M3077 1944 c-6 -6 -2 -78 9 -172 8 -63 22 -42 16 25 -2 32 -5 68 -6
81 0 12 -4 22 -9 22 -4 0 -5 11 -1 25 6 25 3 31 -9 19z"/>
<path d="M503 1646 c6 -16 -35 -27 -55 -15 -7 4 -17 4 -23 0 -5 -5 -55 -11
-110 -15 -55 -3 -118 -9 -140 -15 l-40 -9 38 -1 c20 0 46 -6 57 -13 15 -9 24
-9 44 1 15 8 37 11 55 8 18 -4 31 -2 31 3 0 15 21 12 40 -5 12 -11 24 -13 40
-7 12 5 42 5 66 2 32 -5 44 -3 44 6 0 8 23 15 68 19 77 7 114 17 119 31 2 5
-5 10 -14 10 -10 1 -65 4 -121 7 -86 5 -103 4 -99 -7z m102 -16 c8 -13 -25
-13 -45 0 -12 8 -9 10 12 10 15 0 30 -4 33 -10z"/>
<path d="M85 1590 c-3 -5 1 -10 9 -10 9 0 16 5 16 10 0 6 -4 10 -9 10 -6 0
-13 -4 -16 -10z"/>
<path d="M150 1501 c0 -4 13 -12 29 -19 34 -15 49 -42 23 -43 -9 0 -59 -1
-109 -2 -63 -1 -93 -6 -93 -14 0 -14 164 -8 228 8 43 12 57 38 30 56 -16 9
-108 21 -108 14z"/>
<path d="M407 1284 c-5 -6 -63 -11 -192 -19 -183 -10 -215 -15 -215 -34 0 -16
12 -17 129 -14 71 1 141 7 155 13 15 5 65 10 111 10 82 0 95 5 95 40 0 8 -75
12 -83 4z"/>
<path d="M2566 934 c-11 -29 -6 -44 14 -44 23 0 27 31 6 49 -11 9 -15 8 -20
-5z"/>
<path d="M810 530 c0 -22 -6 -33 -22 -40 -20 -8 -19 -9 12 -9 33 -1 35 1 34
27 -1 15 -3 33 -3 40 -2 26 -21 10 -21 -18z"/>
<path d="M1952 515 c-8 -18 -8 -26 2 -34 11 -9 15 -5 18 19 6 39 -6 47 -20 15z"/>
<path d="M1040 464 c0 -8 11 -14 25 -14 14 0 25 4 25 9 0 5 -11 11 -25 13 -17
4 -25 1 -25 -8z"/>
<path d="M1150 450 c0 -5 5 -10 10 -10 6 0 10 5 10 10 0 6 -4 10 -10 10 -5 0
-10 -4 -10 -10z"/>
<path d="M1951 434 c0 -11 3 -14 6 -6 3 7 2 16 -1 19 -3 4 -6 -2 -5 -13z"/>
<path d="M1727 399 c-4 -16 -11 -20 -26 -16 -12 3 -21 1 -21 -4 0 -5 13 -9 29
-9 26 0 41 14 41 41 0 18 -18 9 -23 -12z"/>
<path d="M1860 409 c0 -9 7 -22 15 -29 8 -7 12 -16 9 -21 -5 -8 11 -13 69 -22
27 -4 38 8 15 16 -10 3 -10 7 -2 18 9 11 9 17 -2 27 -12 11 -15 10 -19 -2 -3
-9 -7 -23 -10 -31 -2 -8 -9 -15 -15 -15 -5 0 -11 7 -11 15 -3 29 -4 33 -13 42
-5 5 -6 3 -2 -4 11 -19 -5 -15 -20 5 -12 15 -13 15 -14 1z"/>
<path d="M1796 371 c-7 -11 22 -23 36 -15 6 4 5 10 -3 15 -18 11 -26 11 -33 0z"/>
<path d="M2410 321 c0 -23 -4 -40 -9 -36 -5 3 -12 1 -15 -4 -6 -8 39 -21 74
-21 13 0 16 6 12 25 -4 25 -5 25 -23 9 -11 -9 -20 -13 -20 -8 -1 5 -3 22 -5
38 -5 45 -14 43 -14 -3z"/>
<path d="M2510 349 c0 -5 5 -7 10 -4 6 3 10 8 10 11 0 2 -4 4 -10 4 -5 0 -10
-5 -10 -11z"/>
<path d="M2187 326 c-4 -10 -5 -21 -2 -24 9 -9 17 6 13 25 -3 17 -4 17 -11 -1z"/>
<path d="M2243 321 c-13 -21 -8 -31 17 -31 13 0 16 6 12 25 -5 30 -13 32 -29
6z"/>
<path d="M2125 320 c-4 -6 3 -10 14 -10 25 0 27 6 6 13 -8 4 -17 2 -20 -3z"/>
<path d="M2310 290 c0 -6 7 -10 15 -10 8 0 15 2 15 4 0 2 -7 6 -15 10 -8 3
-15 1 -15 -4z"/>
<path d="M2530 280 c0 -5 5 -10 11 -10 5 0 7 5 4 10 -3 6 -8 10 -11 10 -2 0
-4 -4 -4 -10z"/>
<path d="M2508 253 c6 -2 18 -2 25 0 6 3 1 5 -13 5 -14 0 -19 -2 -12 -5z"/>
<path d="M6310 220 c-9 -6 -10 -10 -3 -10 6 0 15 5 18 10 8 12 4 12 -15 0z"/>
<path d="M2907 206 c-6 -16 2 -28 14 -20 12 7 11 34 0 34 -5 0 -11 -6 -14 -14z"/>
<path d="M2808 203 c7 -3 16 -2 19 1 4 3 -2 6 -13 5 -11 0 -14 -3 -6 -6z"/>
<path d="M4 179 c-3 -5 19 -9 48 -9 29 0 80 -6 113 -14 75 -17 182 -30 173
-21 -3 4 -37 11 -75 15 -38 5 -81 16 -97 24 -31 16 -153 20 -162 5z"/>
<path d="M382 115 c21 -7 55 -14 77 -13 21 0 44 -3 50 -6 6 -4 11 -3 11 3 0 9
-30 15 -135 26 l-40 4 37 -14z"/>
<path d="M565 80 c17 -4 44 -8 60 -8 29 0 29 0 5 8 -14 4 -41 8 -60 8 l-35 0
30 -8z"/>
<path d="M660 70 c0 -6 10 -11 23 -11 107 -6 246 -25 283 -39 29 -11 29 -11 9
7 -29 27 -315 66 -315 43z"/>
<path d="M0 31 l0 -31 178 1 c97 0 173 2 167 4 -5 2 -77 14 -160 25 -82 12
-158 23 -167 26 -14 4 -18 -1 -18 -25z"/>
<path d="M6566 31 c-3 -5 1 -11 9 -15 8 -3 15 -1 15 4 0 13 -18 22 -24 11z"/>
</g>
</svg>
